goteka-bold.ufo
<glyph name="exclam" format="2">
  <advance width="579.8"/>
  <unicode hex="0021"/>
  <outline>
    <contour>
      <point x="182.8" y="1457.2" type="line"/>
      <point x="414.0" y="1457.2" type="line"/>
      <point x="374.4" y="357.8" type="line"/>
      <point x="221.0" y="357.8" type="line"/>
    </contour>
    <contour>
      <point x="297.2" y="-22.4" type="qcurve"/>
      <point x="242.0" y="-21.4"/>
      <point x="204.2" y="17.0" type="qcurve"/>
      <point x="166.6" y="57.6"/>
      <point x="166.6" y="109.2" type="qcurve"/>
      <point x="166.6" y="159.4"/>
      <point x="204.8" y="197.2" type="qcurve"/>
      <point x="242.6" y="233.8"/>
      <point x="297.2" y="233.8" type="qcurve"/>
      <point x="350.0" y="233.8"/>
      <point x="384.6" y="197.2" type="qcurve"/>
      <point x="424.8" y="160.0"/>
      <point x="424.8" y="109.8" type="qcurve"/>
      <point x="425.2" y="57.6"/>
      <point x="386.0" y="16.4" type="qcurve"/>
      <point x="349.4" y="-20.8"/>
    </contour>
  </outline>
</glyph>
<glyph name="numbersign" format="2">
  <advance width="1432.4"/>
  <unicode hex="0023"/>
  <outline>
    <contour>
      <point x="1072.2" y="922.8" type="line"/>
      <point x="976.2" y="537.4" type="line"/>
      <point x="1218.2" y="537.4" type="line"/>
      <point x="1176.6" y="369.2" type="line"/>
      <point x="933.0" y="369.2" type="line"/>
      <point x="839.0" y="0.0" type="line"/>
      <point x="662.2" y="0.0" type="line"/>
      <point x="754.6" y="369.2" type="line"/>
      <point x="487.8" y="369.2" type="line"/>
      <point x="392.8" y="0.0" type="line"/>
      <point x="216.4" y="0.0" type="line"/>
      <point x="307.4" y="369.2" type="line"/>
      <point x="78.0" y="369.2" type="line"/>
      <point x="115.4" y="537.4" type="line"/>
      <point x="350.0" y="537.4" type="line"/>
      <point x="447.0" y="922.8" type="line"/>
      <point x="213.0" y="922.8" type="line"/>
      <point x="255.2" y="1089.0" type="line"/>
      <point x="491.2" y="1089.0" type="line"/>
      <point x="583.0" y="1460.2" type="line"/>
      <point x="764.0" y="1460.2" type="line"/>
      <point x="668.6" y="1089.0" type="line"/>
      <point x="936.4" y="1089.0" type="line"/>
      <point x="1028.2" y="1460.2" type="line"/>
      <point x="1207.2" y="1460.2" type="line"/>
      <point x="1114.8" y="1089.0" type="line"/>
      <point x="1359.4" y="1089.0" type="line"/>
      <point x="1314.0" y="922.8" type="line"/>
    </contour>
    <contour>
      <point x="892.2" y="922.8" type="line"/>
      <point x="625.4" y="922.8" type="line"/>
      <point x="529.0" y="537.4" type="line"/>
      <point x="795.8" y="537.4" type="line"/>
    </contour>
  </outline>
</glyph>
<glyph name="dollar" format="2">
  <advance width="1212.0"/>
  <unicode hex="0024"/>
  <outline>
    <contour>
      <point x="629.6" y="-19.4" type="qcurve"/>
      <point x="320.4" y="-19.4"/>
      <point x="90.0" y="228.2" type="qcurve"/>
      <point x="213.2" y="389.4" type="line"/>
      <point x="323.0" y="276.6"/>
      <point x="419.2" y="223.4" type="qcurve"/>
      <point x="517.0" y="174.2"/>
      <point x="635.6" y="173.2" type="qcurve"/>
      <point x="724.4" y="173.2"/>
      <point x="784.4" y="201.4" type="qcurve"/>
      <point x="844.8" y="234.0"/>
      <point x="872.4" y="282.2" type="qcurve"/>
      <point x="905.0" y="333.2"/>
      <point x="904.0" y="388.0" type="qcurve"/>
      <point x="905.0" y="435.8"/>
      <point x="888.0" y="476.6" type="qcurve"/>
      <point x="872.2" y="516.4"/>
      <point x="837.0" y="541.0" type="qcurve"/>
      <point x="759.2" y="596.2"/>
      <point x="581.2" y="641.2" type="qcurve"/>
      <point x="437.0" y="678.6"/>
      <point x="348.2" y="724.0" type="qcurve"/>
      <point x="252.6" y="769.8"/>
      <point x="197.2" y="852.4" type="qcurve"/>
      <point x="170.0" y="895.8"/>
      <point x="156.4" y="942.6" type="qcurve"/>
      <point x="143.8" y="990.0"/>
      <point x="142.8" y="1053.8" type="qcurve"/>
      <point x="143.8" y="1171.4"/>
      <point x="202.6" y="1268.0" type="qcurve"/>
      <point x="261.4" y="1366.0"/>
      <point x="365.4" y="1424.8" type="qcurve"/>
      <point x="471.4" y="1479.0"/>
      <point x="597.2" y="1479.0" type="qcurve"/>
      <point x="741.0" y="1482.0"/>
      <point x="854.8" y="1427.4" type="qcurve"/>
      <point x="971.4" y="1370.8"/>
      <point x="1082.6" y="1253.4" type="qcurve"/>
      <point x="960.0" y="1091.6" type="line"/>
      <point x="857.8" y="1198.4"/>
      <point x="769.0" y="1242.4" type="qcurve"/>
      <point x="684.0" y="1289.4"/>
      <point x="589.8" y="1287.0" type="qcurve"/>
      <point x="521.4" y="1289.4"/>
      <point x="464.4" y="1258.2" type="qcurve"/>
      <point x="409.4" y="1232.4"/>
      <point x="378.0" y="1180.6" type="qcurve"/>
      <point x="350.2" y="1131.0"/>
      <point x="347.2" y="1070.6" type="qcurve"/>
      <point x="347.2" y="1028.0"/>
      <point x="362.8" y="990.2" type="qcurve"/>
      <point x="378.6" y="955.2"/>
      <point x="412.2" y="931.2" type="qcurve"/>
      <point x="491.4" y="881.4"/>
      <point x="668.6" y="834.4" type="qcurve"/>
      <point x="881.4" y="780.4"/>
      <point x="990.0" y="686.4" type="qcurve"/>
      <point x="1108.0" y="591.0"/>
      <point x="1106.0" y="409.8" type="qcurve"/>
      <point x="1108.0" y="291.4"/>
      <point x="1055.2" y="190.4" type="qcurve"/>
      <point x="1001.4" y="93.6"/>
      <point x="889.2" y="35.4" type="qcurve"/>
      <point x="781.8" y="-19.4"/>
    </contour>
    <contour>
      <point x="498.0" y="1627.6" type="line"/>
      <point x="699.0" y="1627.6" type="line"/>
      <point x="699.0" y="-156.0" type="line"/>
      <point x="498.0" y="-156.0" type="line"/>
    </contour>
  </outline>
</glyph>
<glyph name="ampersand" format="2">
  <advance width="1467.2"/>
  <unicode hex="0026"/>
  <outline>
    <contour>
      <point x="1182.6" y="-17.4" type="line"/>
      <point x="1003.4" y="167.2" type="line"/>
      <point x="824.0" y="-24.8"/>
      <point x="570.0" y="-22.4" type="qcurve"/>
      <point x="442.2" y="-24.8"/>
      <point x="334.8" y="26.8" type="qcurve"/>
      <point x="229.8" y="79.6"/>
      <point x="165.4" y="175.2" type="qcurve"/>
      <point x="106.0" y="272.2"/>
      <point x="103.0" y="398.8" type="qcurve"/>
      <point x="101.0" y="545.6"/>
      <point x="186.6" y="653.8" type="qcurve"/>
      <point x="271.8" y="762.6"/>
      <point x="415.0" y="826.8" type="qcurve"/>
      <point x="368.4" y="891.4"/>
      <point x="336.4" y="966.0" type="qcurve"/>
      <point x="305.2" y="1043.0"/>
      <point x="309.2" y="1129.4" type="qcurve"/>
      <point x="309.2" y="1227.6"/>
      <point x="356.6" y="1307.2" type="qcurve"/>
      <point x="406.0" y="1389.4"/>
      <point x="496.2" y="1434.2" type="qcurve"/>
      <point x="585.2" y="1484.6"/>
      <point x="690.2" y="1481.0" type="qcurve"/>
      <point x="787.4" y="1481.0"/>
      <point x="869.0" y="1436.2" type="qcurve"/>
      <point x="950.6" y="1390.8"/>
      <point x="998.0" y="1309.2" type="qcurve"/>
      <point x="1045.4" y="1229.0"/>
      <point x="1045.4" y="1130.8" type="qcurve"/>
      <point x="1046.4" y="995.0"/>
      <point x="953.4" y="908.6" type="qcurve"/>
      <point x="861.8" y="825.0"/>
      <point x="714.8" y="766.2" type="qcurve"/>
      <point x="819.0" y="643.2"/>
      <point x="997.2" y="454.8" type="qcurve"/>
      <point x="1083.4" y="579.0"/>
      <point x="1150.0" y="768.2" type="qcurve"/>
      <point x="1327.8" y="688.0" type="line"/>
      <point x="1218.2" y="447.6"/>
      <point x="1128.8" y="321.4" type="qcurve"/>
      <point x="1375.2" y="72.4" type="line"/>
    </contour>
    <contour>
      <point x="689.6" y="1302.4" type="qcurve"/>
      <point x="609.2" y="1302.4"/>
      <point x="557.8" y="1254.4" type="qcurve"/>
      <point x="506.2" y="1210.0"/>
      <point x="503.8" y="1128.8" type="qcurve"/>
      <point x="503.8" y="1026.2"/>
      <point x="602.8" y="901.0" type="qcurve"/>
      <point x="735.4" y="950.8"/>
      <point x="789.8" y="1001.2" type="qcurve"/>
      <point x="849.0" y="1053.6"/>
      <point x="850.4" y="1129.4" type="qcurve"/>
      <point x="850.8" y="1201.4"/>
      <point x="803.8" y="1250.4" type="qcurve"/>
      <point x="764.8" y="1302.0"/>
    </contour>
    <contour>
      <point x="576.4" y="159.8" type="qcurve"/>
      <point x="743.2" y="162.2"/>
      <point x="874.8" y="299.0" type="qcurve"/>
      <point x="652.8" y="531.8"/>
      <point x="523.8" y="689.0" type="qcurve"/>
      <point x="429.0" y="646.4"/>
      <point x="363.6" y="567.2" type="qcurve"/>
      <point x="302.0" y="496.0"/>
      <point x="302.0" y="404.4" type="qcurve"/>
      <point x="300.0" y="291.2"/>
      <point x="376.8" y="225.8" type="qcurve"/>
      <point x="458.8" y="159.8"/>
    </contour>
  </outline>
</glyph>
<glyph name="quotesingle" format="2">
  <advance width="473.8"/>
  <unicode hex="0027"/>
  <outline>
    <contour>
      <point x="142.8" y="960.0" type="line"/>
      <point x="142.8" y="1390.6" type="line"/>
      <point x="338.8" y="1390.6" type="line"/>
      <point x="338.8" y="960.0" type="line"/>
    </contour>
  </outline>
</glyph>
<glyph name="parenleft" format="2">
  <advance width="815.8"/>
  <unicode hex="0028"/>
  <outline>
    <contour>
      <point x="704.4" y="1383.8" type="line"/>
      <point x="603.6" y="1277.4"/>
      <point x="541.2" y="1187.2" type="qcurve"/>
      <point x="480.2" y="1097.6"/>
      <point x="435.2" y="1004.6" type="qcurve"/>
      <point x="349.2" y="815.2"/>
      <point x="349.2" y="575.8" type="qcurve"/>
      <point x="349.2" y="336.4"/>
      <point x="435.2" y="149.0" type="qcurve"/>
      <point x="521.0" y="-37.6"/>
      <point x="705.8" y="-235.2" type="qcurve"/>
      <point x="594.2" y="-352.6" type="line"/>
      <point x="366.8" y="-160.6"/>
      <point x="254.0" y="70.8" type="qcurve"/>
      <point x="141.8" y="304.8"/>
      <point x="142.8" y="575.8" type="qcurve"/>
      <point x="141.8" y="842.8"/>
      <point x="254.0" y="1073.8" type="qcurve"/>
      <point x="366.8" y="1306.8"/>
      <point x="594.2" y="1501.8" type="qcurve"/>
    </contour>
  </outline>
</glyph>
<glyph name="parenright" format="2">
  <advance width="806.2"/>
  <unicode hex="0029"/>
  <outline>
    <contour>
      <point x="108.6" y="-235.2" type="line"/>
      <point x="210.4" y="-127.80000000000001"/>
      <point x="270.8" y="-38.2" type="qcurve"/>
      <point x="333.8" y="52.0"/>
      <point x="376.8" y="145.0" type="qcurve"/>
      <point x="463.8" y="335.4"/>
      <point x="462.8" y="573.8" type="qcurve"/>
      <point x="463.8" y="814.2"/>
      <point x="376.8" y="1001.2" type="qcurve"/>
      <point x="294.6" y="1188.2"/>
      <point x="106.6" y="1383.2" type="qcurve"/>
      <point x="218.8" y="1501.2" type="line"/>
      <point x="448.2" y="1310.2"/>
      <point x="557.4" y="1077.2" type="qcurve"/>
      <point x="672.2" y="844.2"/>
      <point x="669.2" y="573.8" type="qcurve"/>
      <point x="672.2" y="307.4"/>
      <point x="557.4" y="75.8" type="qcurve"/>
      <point x="447.6" y="-157.2"/>
      <point x="218.2" y="-353.2" type="qcurve"/>
    </contour>
  </outline>
</glyph>
<glyph name="asterisk" format="2">
  <advance width="768.2"/>
  <unicode hex="002A"/>
  <outline>
    <contour>
      <point x="294.2" y="795.6" type="line"/>
      <point x="419.4" y="990.2" type="line"/>
      <point x="545.6" y="795.6" type="line"/>
      <point x="578.6" y="816.8" type="line"/>
      <point x="449.8" y="1015.6" type="line"/>
      <point x="655.2" y="1090.0" type="line"/>
      <point x="641.6" y="1127.6" type="line"/>
      <point x="439.4" y="1054.4" type="line"/>
      <point x="439.4" y="1298.4" type="line"/>
      <point x="400.4" y="1298.4" type="line"/>
      <point x="400.4" y="1054.4" type="line"/>
      <point x="198.2" y="1127.6" type="line"/>
      <point x="184.6" y="1090.0" type="line"/>
      <point x="390.0" y="1015.0" type="line"/>
      <point x="261.2" y="816.8" type="line"/>
    </contour>
  </outline>
</glyph>
<glyph name="plus" format="2">
  <advance width="1175.4"/>
  <unicode hex="002B"/>
  <outline>
    <contour>
      <point x="1047.4" y="551.6" type="line"/>
      <point x="689.6" y="551.6" type="line"/>
      <point x="689.6" y="195.8" type="line"/>
      <point x="492.6" y="195.8" type="line"/>
      <point x="492.6" y="551.6" type="line"/>
      <point x="136.8" y="551.6" type="line"/>
      <point x="136.8" y="745.6" type="line"/>
      <point x="492.6" y="745.6" type="line"/>
      <point x="492.6" y="1103.4" type="line"/>
      <point x="689.6" y="1103.4" type="line"/>
      <point x="689.6" y="745.6" type="line"/>
      <point x="1047.4" y="745.6" type="line"/>
    </contour>
  </outline>
</glyph>
<glyph name="comma" format="2">
  <advance width="563.2"/>
  <unicode hex="002C"/>
  <outline>
    <contour>
      <point x="145.0" y="-171.8" type="line"/>
      <point x="235.6" y="-67.4"/>
      <point x="248.2" y="-21.2" type="qcurve"/>
      <point x="233.2" y="-21.4"/>
      <point x="191.4" y="16.4" type="qcurve"/>
      <point x="154.2" y="58.2"/>
      <point x="154.2" y="109.2" type="qcurve"/>
      <point x="154.2" y="162.0"/>
      <point x="192.0" y="197.8" type="qcurve"/>
      <point x="230.6" y="233.8"/>
      <point x="284.2" y="233.8" type="qcurve"/>
      <point x="351.4" y="233.8"/>
      <point x="388.0" y="181.2" type="qcurve"/>
      <point x="425.2" y="133.2"/>
      <point x="425.2" y="58.0" type="qcurve"/>
      <point x="426.2" y="-2.1999999999999993"/>
      <point x="393.0" y="-69.4" type="qcurve"/>
      <point x="363.0" y="-130.0"/>
      <point x="259.8" y="-257.2" type="qcurve"/>
    </contour>
  </outline>
</glyph>
<glyph name="hyphen" format="2">
  <advance width="761.8"/>
  <unicode hex="002D"/>
  <outline>
    <contour>
      <point x="114.4" y="628.8" type="line"/>
      <point x="652.8" y="628.8" type="line"/>
      <point x="652.8" y="436.8" type="line"/>
      <point x="114.4" y="436.8" type="line"/>
    </contour>
  </outline>
</glyph>
<glyph name="period" format="2">
  <advance width="543.4"/>
  <unicode hex="002E"/>
  <outline>
    <contour>
      <point x="279.8" y="-22.4" type="qcurve"/>
      <point x="228.2" y="-21.4"/>
      <point x="187.0" y="15.8" type="qcurve"/>
      <point x="146.2" y="57.6"/>
      <point x="146.2" y="109.2" type="qcurve"/>
      <point x="146.2" y="160.0"/>
      <point x="187.0" y="197.8" type="qcurve"/>
      <point x="228.2" y="233.8"/>
      <point x="279.8" y="233.8" type="qcurve"/>
      <point x="332.6" y="233.8"/>
      <point x="367.2" y="196.6" type="qcurve"/>
      <point x="404.4" y="158.8"/>
      <point x="404.4" y="109.2" type="qcurve"/>
      <point x="404.4" y="58.8"/>
      <point x="370.4" y="17.6" type="qcurve"/>
      <point x="335.2" y="-20.8"/>
    </contour>
  </outline>
</glyph>
<glyph name="slash" format="2">
  <advance width="922.0"/>
  <unicode hex="002F"/>
  <outline>
    <contour>
      <point x="227.6" y="28.2" type="line"/>
      <point x="69.6" y="28.2" type="line"/>
    </contour>
    <contour>
      <point x="26.4" y="0.0" type="line"/>
      <point x="653.2" y="1460.2" type="line"/>
      <point x="873.0" y="1460.2" type="line"/>
      <point x="246.2" y="0.0" type="line"/>
    </contour>
  </outline>
</glyph>
<glyph name="zero" format="2">
  <advance width="1547.0"/>
  <unicode hex="0030"/>
  <outline>
    <contour>
      <point x="734.4" y="1481.0" type="qcurve"/>
      <point x="907.8" y="1483.0"/>
      <point x="1048.8" y="1385.2" type="qcurve"/>
      <point x="1189.0" y="1288.6"/>
      <point x="1263.6" y="1119.0" type="qcurve"/>
      <point x="1343.0" y="949.0"/>
      <point x="1343.0" y="731.8" type="qcurve"/>
      <point x="1346.0" y="513.6"/>
      <point x="1265.0" y="342.2" type="qcurve"/>
      <point x="1190.0" y="176.6"/>
      <point x="1050.8" y="76.4" type="qcurve"/>
      <point x="911.4" y="-19.4"/>
      <point x="734.4" y="-22.4" type="qcurve"/>
      <point x="558.6" y="-21.4"/>
      <point x="413.6" y="74.4" type="qcurve"/>
      <point x="280.4" y="175.6"/>
      <point x="199.4" y="342.2" type="qcurve"/>
      <point x="121.4" y="513.6"/>
      <point x="121.4" y="731.8" type="qcurve"/>
      <point x="119.4" y="948.0"/>
      <point x="197.4" y="1117.6" type="qcurve"/>
      <point x="280.4" y="1286.6"/>
      <point x="413.6" y="1383.2" type="qcurve"/>
      <point x="558.0" y="1484.0"/>
    </contour>
    <contour>
      <point x="734.4" y="1293.0" type="qcurve"/>
      <point x="616.8" y="1293.0"/>
      <point x="524.2" y="1223.4" type="qcurve"/>
      <point x="435.2" y="1155.6"/>
      <point x="378.6" y="1027.6" type="qcurve"/>
      <point x="325.4" y="896.8"/>
      <point x="325.4" y="731.8" type="qcurve"/>
      <point x="325.4" y="571.2"/>
      <point x="377.8" y="438.0" type="qcurve"/>
      <point x="431.8" y="312.0"/>
      <point x="524.8" y="238.2" type="qcurve"/>
      <point x="616.8" y="167.2"/>
      <point x="734.4" y="167.2" type="qcurve"/>
      <point x="849.6" y="167.2"/>
      <point x="940.2" y="236.8" type="qcurve"/>
      <point x="1035.0" y="310.6"/>
      <point x="1085.8" y="434.0" type="qcurve"/>
      <point x="1141.0" y="571.8"/>
      <point x="1138.6" y="731.8" type="qcurve"/>
      <point x="1141.0" y="895.8"/>
      <point x="1085.8" y="1025.6" type="qcurve"/>
      <point x="1035.0" y="1154.2"/>
      <point x="940.2" y="1223.4" type="qcurve"/>
      <point x="849.6" y="1293.0"/>
    </contour>
  </outline>
</glyph>
<glyph name="one" format="2">
  <advance width="758.8"/>
  <unicode hex="0031"/>
  <outline>
    <contour>
      <point x="373.8" y="1201.4" type="line"/>
      <point x="142.0" y="1051.4" type="line"/>
      <point x="52.8" y="1206.8" type="line"/>
      <point x="423.4" y="1460.2" type="line"/>
      <point x="574.8" y="1460.2" type="line"/>
      <point x="574.8" y="0.0" type="line"/>
      <point x="373.8" y="0.0" type="line"/>
    </contour>
  </outline>
</glyph>
<glyph name="two" format="2">
  <advance width="1252.4"/>
  <unicode hex="0032"/>
  <outline>
    <contour>
      <point x="105.0" y="161.6" type="line"/>
      <point x="628.4" y="612.8" type="line"/>
      <point x="664.2" y="644.0"/>
      <point x="714.4" y="690.2" type="qcurve"/>
      <point x="764.2" y="734.2"/>
      <point x="806.6" y="789.4" type="qcurve"/>
      <point x="851.0" y="845.2"/>
      <point x="881.2" y="909.8" type="qcurve"/>
      <point x="910.0" y="971.4"/>
      <point x="910.0" y="1039.0" type="qcurve"/>
      <point x="911.0" y="1065.6"/>
      <point x="896.8" y="1109.6" type="qcurve"/>
      <point x="883.6" y="1154.0"/>
      <point x="849.8" y="1196.0" type="qcurve"/>
      <point x="819.2" y="1238.4"/>
      <point x="766.4" y="1267.2" type="qcurve"/>
      <point x="714.2" y="1296.4"/>
      <point x="637.6" y="1296.4" type="qcurve"/>
      <point x="527.8" y="1297.4"/>
      <point x="431.6" y="1231.2" type="qcurve"/>
      <point x="331.8" y="1164.0"/>
      <point x="250.2" y="1061.4" type="qcurve"/>
      <point x="103.2" y="1179.2" type="line"/>
      <point x="319.0" y="1481.0"/>
      <point x="637.6" y="1481.0" type="qcurve"/>
      <point x="788.0" y="1481.0"/>
      <point x="881.0" y="1426.2" type="qcurve"/>
      <point x="972.4" y="1371.4"/>
      <point x="1023.6" y="1297.6" type="qcurve"/>
      <point x="1074.8" y="1224.4"/>
      <point x="1093.4" y="1150.4" type="qcurve"/>
      <point x="1112.0" y="1078.2"/>
      <point x="1112.0" y="1040.4" type="qcurve"/>
      <point x="1113.0" y="858.8"/>
      <point x="1006.6" y="728.2" type="qcurve"/>
      <point x="906.0" y="606.2"/>
      <point x="765.0" y="481.8" type="qcurve"/>
      <point x="437.2" y="192.6" type="line"/>
      <point x="1126.4" y="192.6" type="line"/>
      <point x="1126.4" y="0.0" type="line"/>
      <point x="105.0" y="0.0" type="line"/>
    </contour>
  </outline>
</glyph>
<glyph name="three" format="2">
  <advance width="1275.8"/>
  <unicode hex="0033"/>
  <outline>
    <contour>
      <point x="633.6" y="-15.4" type="qcurve"/>
      <point x="470.0" y="-17.4"/>
      <point x="330.2" y="50.2" type="qcurve"/>
      <point x="197.6" y="121.8"/>
      <point x="94.8" y="248.2" type="qcurve"/>
      <point x="233.6" y="379.6" type="line"/>
      <point x="320.6" y="274.0"/>
      <point x="415.2" y="222.8" type="qcurve"/>
      <point x="515.6" y="172.2"/>
      <point x="633.6" y="169.2" type="qcurve"/>
      <point x="775.8" y="172.2"/>
      <point x="857.2" y="239.6" type="qcurve"/>
      <point x="941.8" y="307.8"/>
      <point x="941.8" y="419.8" type="qcurve"/>
      <point x="941.8" y="530.8"/>
      <point x="853.6" y="585.0" type="qcurve"/>
      <point x="762.8" y="646.0"/>
      <point x="597.8" y="646.0" type="qcurve"/>
      <point x="427.0" y="646.0" type="line"/>
      <point x="427.0" y="835.6" type="line"/>
      <point x="599.8" y="835.6" type="line"/>
      <point x="743.8" y="835.6"/>
      <point x="826.0" y="894.8" type="qcurve"/>
      <point x="910.0" y="955.4"/>
      <point x="910.0" y="1060.4" type="qcurve"/>
      <point x="912.4" y="1161.8"/>
      <point x="828.2" y="1228.0" type="qcurve"/>
      <point x="745.6" y="1297.4"/>
      <point x="620.2" y="1294.4" type="qcurve"/>
      <point x="517.2" y="1295.4"/>
      <point x="430.8" y="1244.4" type="qcurve"/>
      <point x="351.0" y="1200.0"/>
      <point x="254.4" y="1087.8" type="qcurve"/>
      <point x="114.6" y="1208.2" type="line"/>
      <point x="324.6" y="1483.0"/>
      <point x="627.0" y="1481.0" type="qcurve"/>
      <point x="767.8" y="1484.0"/>
      <point x="874.6" y="1432.8" type="qcurve"/>
      <point x="980.6" y="1382.6"/>
      <point x="1046.0" y="1290.2" type="qcurve"/>
      <point x="1112.0" y="1196.0"/>
      <point x="1112.0" y="1080.2" type="qcurve"/>
      <point x="1112.0" y="1012.8"/>
      <point x="1094.4" y="958.0" type="qcurve"/>
      <point x="1076.6" y="900.6"/>
      <point x="1028.6" y="853.6" type="qcurve"/>
      <point x="985.4" y="807.0"/>
      <point x="915.2" y="767.8" type="qcurve"/>
      <point x="845.6" y="731.8"/>
      <point x="917.2" y="752.8" type="qcurve"/>
      <point x="847.8" y="768.8"/>
      <point x="921.8" y="733.2" type="qcurve"/>
      <point x="998.6" y="698.6"/>
      <point x="1048.4" y="648.8" type="qcurve"/>
      <point x="1143.8" y="557.0"/>
      <point x="1143.8" y="409.8" type="qcurve"/>
      <point x="1143.8" y="287.6"/>
      <point x="1078.4" y="190.0" type="qcurve"/>
      <point x="1013.0" y="95.0"/>
      <point x="896.6" y="36.8" type="qcurve"/>
      <point x="787.2" y="-17.4"/>
    </contour>
  </outline>
</glyph>
<glyph name="four" format="2">
  <advance width="1352.2"/>
  <unicode hex="0034"/>
  <outline>
    <contour>
      <point x="822.0" y="347.8" type="line"/>
      <point x="127.6" y="347.8" type="line"/>
      <point x="99.2" y="509.4" type="line"/>
      <point x="809.0" y="1460.2" type="line"/>
      <point x="1025.0" y="1460.2" type="line"/>
      <point x="1025.0" y="536.4" type="line"/>
      <point x="1237.2" y="534.4" type="line"/>
      <point x="1234.6" y="347.8" type="line"/>
      <point x="1025.0" y="347.8" type="line"/>
      <point x="1025.0" y="0.0" type="line"/>
      <point x="825.0" y="0.0" type="line"/>
    </contour>
    <contour>
      <point x="822.0" y="534.4" type="line"/>
      <point x="822.0" y="1237.6" type="line"/>
      <point x="855.8" y="1221.0" type="line"/>
      <point x="302.6" y="497.8" type="line"/>
      <point x="291.2" y="520.6" type="line"/>
    </contour>
  </outline>
</glyph>
<glyph name="five" format="2">
  <advance width="1301.6"/>
  <unicode hex="0035"/>
  <outline>
    <contour>
      <point x="643.0" y="-22.4" type="qcurve"/>
      <point x="483.4" y="-24.4"/>
      <point x="354.2" y="38.2" type="qcurve"/>
      <point x="229.6" y="98.8"/>
      <point x="119.2" y="220.0" type="qcurve"/>
      <point x="253.4" y="366.8" type="line"/>
      <point x="444.4" y="159.8"/>
      <point x="648.4" y="161.2" type="qcurve"/>
      <point x="741.2" y="164.2"/>
      <point x="812.2" y="200.0" type="qcurve"/>
      <point x="883.4" y="238.0"/>
      <point x="921.0" y="304.8" type="qcurve"/>
      <point x="961.2" y="373.8"/>
      <point x="959.2" y="455.0" type="qcurve"/>
      <point x="961.2" y="578.6"/>
      <point x="871.8" y="657.8" type="qcurve"/>
      <point x="789.2" y="736.4"/>
      <point x="645.0" y="733.4" type="qcurve"/>
      <point x="492.0" y="736.4"/>
      <point x="337.4" y="624.4" type="qcurve"/>
      <point x="193.2" y="690.6" type="line"/>
      <point x="224.4" y="1460.2" type="line"/>
      <point x="1096.6" y="1460.2" type="line"/>
      <point x="1096.6" y="1264.6" type="line"/>
      <point x="421.6" y="1264.6" type="line"/>
      <point x="402.8" y="845.0" type="line"/>
      <point x="422.6" y="858.4"/>
      <point x="507.2" y="888.4" type="qcurve"/>
      <point x="593.0" y="920.0"/>
      <point x="678.2" y="920.0" type="qcurve"/>
      <point x="814.6" y="923.0"/>
      <point x="921.0" y="866.4" type="qcurve"/>
      <point x="1034.0" y="813.6"/>
      <point x="1097.8" y="707.6" type="qcurve"/>
      <point x="1168.6" y="603.6"/>
      <point x="1165.6" y="459.0" type="qcurve"/>
      <point x="1168.6" y="318.0"/>
      <point x="1098.4" y="207.6" type="qcurve"/>
      <point x="1034.6" y="98.6"/>
      <point x="911.6" y="35.4" type="qcurve"/>
      <point x="794.6" y="-23.4"/>
    </contour>
  </outline>
</glyph>
<glyph name="six" format="2">
  <advance width="1318.4"/>
  <unicode hex="0036"/>
  <outline>
    <contour>
      <point x="710.0" y="933.4" type="qcurve"/>
      <point x="798.2" y="934.4"/>
      <point x="885.0" y="908.4" type="qcurve"/>
      <point x="973.8" y="882.8"/>
      <point x="1043.2" y="824.4" type="qcurve"/>
      <point x="1114.0" y="767.2"/>
      <point x="1158.2" y="680.4" type="qcurve"/>
      <point x="1204.4" y="592.4"/>
      <point x="1203.4" y="467.6" type="qcurve"/>
      <point x="1204.4" y="408.2"/>
      <point x="1180.8" y="324.6" type="qcurve"/>
      <point x="1158.2" y="238.6"/>
      <point x="1100.6" y="162.4" type="qcurve"/>
      <point x="1042.8" y="86.0"/>
      <point x="942.0" y="32.4" type="qcurve"/>
      <point x="840.0" y="-21.4"/>
      <point x="684.8" y="-22.4" type="qcurve"/>
      <point x="591.6" y="-21.4"/>
      <point x="493.6" y="7.2" type="qcurve"/>
      <point x="392.0" y="37.8"/>
      <point x="309.2" y="118.6" type="qcurve"/>
      <point x="226.8" y="202.0"/>
      <point x="174.8" y="343.6" type="qcurve"/>
      <point x="124.4" y="487.0"/>
      <point x="123.4" y="710.0" type="qcurve"/>
      <point x="123.4" y="876.2"/>
      <point x="171.4" y="1016.6" type="qcurve"/>
      <point x="219.4" y="1158.0"/>
      <point x="300.4" y="1260.6" type="qcurve"/>
      <point x="382.0" y="1365.2"/>
      <point x="489.2" y="1421.8" type="qcurve"/>
      <point x="598.0" y="1481.0"/>
      <point x="718.0" y="1481.0" type="qcurve"/>
      <point x="876.4" y="1482.0"/>
      <point x="985.4" y="1415.8" type="qcurve"/>
      <point x="1091.2" y="1352.4"/>
      <point x="1154.8" y="1290.4" type="qcurve"/>
      <point x="1038.8" y="1127.4" type="line"/>
      <point x="979.4" y="1184.2"/>
      <point x="895.2" y="1241.2" type="qcurve"/>
      <point x="817.4" y="1295.4"/>
      <point x="710.6" y="1294.4" type="qcurve"/>
      <point x="617.8" y="1295.4"/>
      <point x="547.6" y="1240.8" type="qcurve"/>
      <point x="475.4" y="1184.2"/>
      <point x="426.2" y="1096.2" type="qcurve"/>
      <point x="376.8" y="1007.4"/>
      <point x="352.6" y="899.2" type="qcurve"/>
      <point x="328.4" y="792.4"/>
      <point x="328.4" y="795.4" type="qcurve"/>
      <point x="314.4" y="772.4"/>
      <point x="421.0" y="851.0" type="qcurve"/>
      <point x="532.6" y="932.0"/>
    </contour>
    <contour>
      <point x="678.8" y="157.8" type="qcurve"/>
      <point x="766.0" y="157.8"/>
      <point x="825.4" y="192.0" type="qcurve"/>
      <point x="887.2" y="227.2"/>
      <point x="925.4" y="276.6" type="qcurve"/>
      <point x="963.6" y="327.6"/>
      <point x="981.8" y="381.6" type="qcurve"/>
      <point x="1000.4" y="436.4"/>
      <point x="1000.4" y="467.0" type="qcurve"/>
      <point x="1000.4" y="547.0"/>
      <point x="967.4" y="599.6" type="qcurve"/>
      <point x="933.6" y="654.8"/>
      <point x="885.4" y="686.0" type="qcurve"/>
      <point x="834.8" y="719.4"/>
      <point x="779.4" y="734.6" type="qcurve"/>
      <point x="722.8" y="750.8"/>
      <point x="678.8" y="750.8" type="qcurve"/>
      <point x="564.6" y="751.8"/>
      <point x="468.4" y="684.6" type="qcurve"/>
      <point x="375.0" y="620.6"/>
      <point x="348.4" y="509.6" type="qcurve"/>
      <point x="370.8" y="400.6"/>
      <point x="411.6" y="328.8" type="qcurve"/>
      <point x="453.4" y="259.6"/>
      <point x="501.8" y="220.4" type="qcurve"/>
      <point x="552.8" y="182.6"/>
      <point x="598.6" y="170.0" type="qcurve"/>
      <point x="647.6" y="157.8"/>
    </contour>
  </outline>
</glyph>
<glyph name="seven" format="2">
  <advance width="1297.4"/>
  <unicode hex="0037"/>
  <outline>
    <contour>
      <point x="891.8" y="1264.6" type="line"/>
      <point x="140.8" y="1264.6" type="line"/>
      <point x="140.8" y="1460.2" type="line"/>
      <point x="1130.4" y="1460.2" type="line"/>
      <point x="1130.4" y="1286.8" type="line"/>
      <point x="516.8" y="0.0" type="line"/>
      <point x="286.0" y="0.0" type="line"/>
    </contour>
  </outline>
</glyph>
<glyph name="eight" format="2">
  <advance width="1316.4"/>
  <unicode hex="0038"/>
  <outline>
    <contour>
      <point x="665.4" y="-22.4" type="qcurve"/>
      <point x="513.4" y="-24.4"/>
      <point x="391.2" y="26.2" type="qcurve"/>
      <point x="271.2" y="78.4"/>
      <point x="200.4" y="171.4" type="qcurve"/>
      <point x="126.4" y="268.0"/>
      <point x="123.4" y="393.4" type="qcurve"/>
      <point x="123.4" y="533.6"/>
      <point x="219.6" y="631.4" type="qcurve"/>
      <point x="271.4" y="682.0"/>
      <point x="344.0" y="723.2" type="qcurve"/>
      <point x="418.6" y="764.2"/>
      <point x="392.8" y="756.0" type="qcurve"/>
      <point x="423.2" y="743.4"/>
      <point x="356.4" y="780.2" type="qcurve"/>
      <point x="288.6" y="822.0"/>
      <point x="245.4" y="869.2" type="qcurve"/>
      <point x="162.6" y="962.0"/>
      <point x="162.6" y="1083.6" type="qcurve"/>
      <point x="162.6" y="1205.6"/>
      <point x="236.2" y="1296.2" type="qcurve"/>
      <point x="304.6" y="1389.8"/>
      <point x="419.6" y="1434.0" type="qcurve"/>
      <point x="538.2" y="1484.0"/>
      <point x="665.4" y="1481.0" type="qcurve"/>
      <point x="733.4" y="1481.0"/>
      <point x="790.4" y="1470.0" type="qcurve"/>
      <point x="850.6" y="1460.0"/>
      <point x="911.2" y="1433.4" type="qcurve"/>
      <point x="1026.8" y="1387.2"/>
      <point x="1096.6" y="1297.4" type="qcurve"/>
      <point x="1171.6" y="1204.6"/>
      <point x="1171.6" y="1081.6" type="qcurve"/>
      <point x="1171.6" y="954.0"/>
      <point x="1086.8" y="865.2" type="qcurve"/>
      <point x="1043.6" y="819.0"/>
      <point x="978.0" y="777.8" type="qcurve"/>
      <point x="914.0" y="738.8"/>
      <point x="948.6" y="752.2" type="qcurve"/>
      <point x="915.8" y="761.6"/>
      <point x="986.8" y="720.6" type="qcurve"/>
      <point x="1059.4" y="680.6"/>
      <point x="1110.0" y="629.4" type="qcurve"/>
      <point x="1206.4" y="529.0"/>
      <point x="1203.4" y="393.4" type="qcurve"/>
      <point x="1204.4" y="270.0"/>
      <point x="1132.4" y="173.4" type="qcurve"/>
      <point x="1063.0" y="80.4"/>
      <point x="940.0" y="26.2" type="qcurve"/>
      <point x="817.4" y="-24.4"/>
    </contour>
    <contour>
      <point x="665.4" y="839.0" type="qcurve"/>
      <point x="733.8" y="843.0"/>
      <point x="805.2" y="872.4" type="qcurve"/>
      <point x="875.6" y="901.8"/>
      <point x="920.6" y="954.2" type="qcurve"/>
      <point x="962.6" y="1002.4"/>
      <point x="961.2" y="1069.2" type="qcurve"/>
      <point x="961.2" y="1133.8"/>
      <point x="926.8" y="1182.2" type="qcurve"/>
      <point x="890.4" y="1235.2"/>
      <point x="818.6" y="1261.0" type="qcurve"/>
      <point x="747.8" y="1294.0"/>
      <point x="664.8" y="1294.4" type="qcurve"/>
      <point x="537.8" y="1293.4"/>
      <point x="453.2" y="1227.4" type="qcurve"/>
      <point x="371.6" y="1165.2"/>
      <point x="373.6" y="1068.6" type="qcurve"/>
      <point x="370.2" y="998.4"/>
      <point x="411.6" y="952.2" type="qcurve"/>
      <point x="456.6" y="899.4"/>
      <point x="527.6" y="873.0" type="qcurve"/>
      <point x="600.4" y="842.4"/>
    </contour>
    <contour>
      <point x="666.0" y="165.2" type="qcurve"/>
      <point x="758.4" y="168.2"/>
      <point x="834.6" y="197.2" type="qcurve"/>
      <point x="911.8" y="226.6"/>
      <point x="957.2" y="281.2" type="qcurve"/>
      <point x="999.8" y="335.8"/>
      <point x="996.4" y="404.4" type="qcurve"/>
      <point x="997.4" y="441.2"/>
      <point x="986.8" y="468.8" type="qcurve"/>
      <point x="976.2" y="498.2"/>
      <point x="950.4" y="528.0" type="qcurve"/>
      <point x="900.0" y="588.6"/>
      <point x="816.6" y="619.0" type="qcurve"/>
      <point x="739.2" y="655.0"/>
      <point x="665.4" y="656.4" type="qcurve"/>
      <point x="594.4" y="656.4"/>
      <point x="514.2" y="620.4" type="qcurve"/>
      <point x="433.2" y="590.6"/>
      <point x="379.8" y="527.4" type="qcurve"/>
      <point x="354.6" y="498.6"/>
      <point x="344.0" y="469.8" type="qcurve"/>
      <point x="333.8" y="441.2"/>
      <point x="333.8" y="403.8" type="qcurve"/>
      <point x="331.4" y="337.8"/>
      <point x="373.6" y="282.0" type="qcurve"/>
      <point x="417.4" y="227.0"/>
      <point x="492.6" y="196.6" type="qcurve"/>
      <point x="575.4" y="168.2"/>
    </contour>
  </outline>
</glyph>
<glyph name="nine" format="2">
  <advance width="1318.4"/>
  <unicode hex="0039"/>
  <outline>
    <contour>
      <point x="616.8" y="525.2" type="qcurve"/>
      <point x="528.0" y="525.2"/>
      <point x="441.4" y="551.8" type="qcurve"/>
      <point x="354.0" y="579.4"/>
      <point x="284.2" y="634.6" type="qcurve"/>
      <point x="215.4" y="692.4"/>
      <point x="169.2" y="778.2" type="qcurve"/>
      <point x="123.4" y="867.8"/>
      <point x="123.4" y="992.2" type="qcurve"/>
      <point x="123.4" y="1052.0"/>
      <point x="145.4" y="1135.6" type="qcurve"/>
      <point x="169.6" y="1220.4"/>
      <point x="226.2" y="1297.2" type="qcurve"/>
      <point x="285.0" y="1374.6"/>
      <point x="385.4" y="1427.8" type="qcurve"/>
      <point x="486.8" y="1481.0"/>
      <point x="641.0" y="1481.0" type="qcurve"/>
      <point x="733.6" y="1482.0"/>
      <point x="832.2" y="1453.0" type="qcurve"/>
      <point x="934.8" y="1423.8"/>
      <point x="1017.2" y="1340.4" type="qcurve"/>
      <point x="1098.4" y="1260.8"/>
      <point x="1150.4" y="1116.6" type="qcurve"/>
      <point x="1204.4" y="974.2"/>
      <point x="1203.4" y="749.2" type="qcurve"/>
      <point x="1204.4" y="582.4"/>
      <point x="1155.4" y="442.6" type="qcurve"/>
      <point x="1106.4" y="302.2"/>
      <point x="1025.4" y="198.6" type="qcurve"/>
      <point x="945.4" y="96.0"/>
      <point x="837.2" y="37.4" type="qcurve"/>
      <point x="728.8" y="-21.4"/>
      <point x="607.2" y="-22.4" type="qcurve"/>
      <point x="450.8" y="-21.4"/>
      <point x="341.0" y="44.4" type="qcurve"/>
      <point x="235.6" y="109.8"/>
      <point x="170.4" y="168.6" type="qcurve"/>
      <point x="287.0" y="331.6" type="line"/>
      <point x="345.4" y="278.0"/>
      <point x="430.6" y="219.0" type="qcurve"/>
      <point x="510.4" y="166.2"/>
      <point x="616.2" y="165.2" type="qcurve"/>
      <point x="708.4" y="164.2"/>
      <point x="778.2" y="218.8" type="qcurve"/>
      <point x="851.4" y="276.4"/>
      <point x="899.6" y="364.0" type="qcurve"/>
      <point x="951.0" y="452.8"/>
      <point x="974.2" y="560.0" type="qcurve"/>
      <point x="999.4" y="667.2"/>
      <point x="999.6" y="660.0" type="qcurve"/>
      <point x="1015.0" y="686.2"/>
      <point x="905.2" y="607.6" type="qcurve"/>
      <point x="795.6" y="528.8"/>
    </contour>
    <contour>
      <point x="647.0" y="1302.4" type="qcurve"/>
      <point x="560.8" y="1302.4"/>
      <point x="500.8" y="1267.8" type="qcurve"/>
      <point x="439.6" y="1232.4"/>
      <point x="401.4" y="1182.6" type="qcurve"/>
      <point x="363.2" y="1132.0"/>
      <point x="344.0" y="1077.6" type="qcurve"/>
      <point x="325.4" y="1023.6"/>
      <point x="325.4" y="992.2" type="qcurve"/>
      <point x="325.4" y="912.6"/>
      <point x="358.4" y="860.2" type="qcurve"/>
      <point x="393.2" y="805.8"/>
      <point x="440.4" y="772.6" type="qcurve"/>
      <point x="491.0" y="740.8"/>
      <point x="547.0" y="724.0" type="qcurve"/>
      <point x="603.4" y="707.8"/>
      <point x="647.0" y="707.8" type="qcurve"/>
      <point x="762.2" y="707.8"/>
      <point x="858.4" y="774.6" type="qcurve"/>
      <point x="952.2" y="840.6"/>
      <point x="978.0" y="949.6" type="qcurve"/>
      <point x="957.0" y="1059.0"/>
      <point x="914.6" y="1130.4" type="qcurve"/>
      <point x="874.8" y="1200.6"/>
      <point x="825.0" y="1238.8" type="qcurve"/>
      <point x="776.0" y="1277.0"/>
      <point x="728.2" y="1289.2" type="qcurve"/>
      <point x="680.2" y="1302.4"/>
    </contour>
  </outline>
</glyph>
<glyph name="colon" format="2">
  <advance width="543.4"/>
  <unicode hex="003A"/>
  <outline>
    <contour>
      <point x="279.8" y="748.8" type="qcurve"/>
      <point x="228.2" y="749.8"/>
      <point x="187.6" y="786.4" type="qcurve"/>
      <point x="146.2" y="823.6"/>
      <point x="146.2" y="878.4" type="qcurve"/>
      <point x="146.2" y="928.6"/>
      <point x="187.0" y="969.4" type="qcurve"/>
      <point x="228.2" y="1007.0"/>
      <point x="279.8" y="1007.0" type="qcurve"/>
      <point x="332.6" y="1007.0"/>
      <point x="367.8" y="968.2" type="qcurve"/>
      <point x="404.4" y="928.0"/>
      <point x="404.4" y="878.4" type="qcurve"/>
      <point x="404.4" y="824.8"/>
      <point x="369.8" y="788.2" type="qcurve"/>
      <point x="335.2" y="750.4"/>
    </contour>
    <contour>
      <point x="279.8" y="-22.4" type="qcurve"/>
      <point x="228.2" y="-21.4"/>
      <point x="187.0" y="15.8" type="qcurve"/>
      <point x="146.2" y="57.6"/>
      <point x="146.2" y="109.2" type="qcurve"/>
      <point x="146.2" y="160.0"/>
      <point x="187.0" y="197.8" type="qcurve"/>
      <point x="228.2" y="233.8"/>
      <point x="279.8" y="233.8" type="qcurve"/>
      <point x="332.6" y="233.8"/>
      <point x="367.2" y="196.6" type="qcurve"/>
      <point x="404.4" y="158.8"/>
      <point x="404.4" y="109.2" type="qcurve"/>
      <point x="404.4" y="58.8"/>
      <point x="370.4" y="17.6" type="qcurve"/>
      <point x="335.2" y="-20.8"/>
    </contour>
  </outline>
</glyph>
<glyph name="semicolon" format="2">
  <advance width="563.2"/>
  <unicode hex="003B"/>
  <outline>
    <contour>
      <point x="145.0" y="-171.8" type="line"/>
      <point x="235.6" y="-67.4"/>
      <point x="248.2" y="-21.2" type="qcurve"/>
      <point x="233.2" y="-21.4"/>
      <point x="191.4" y="16.4" type="qcurve"/>
      <point x="154.2" y="58.2"/>
      <point x="154.2" y="109.2" type="qcurve"/>
      <point x="154.2" y="162.0"/>
      <point x="192.0" y="197.8" type="qcurve"/>
      <point x="230.6" y="233.8"/>
      <point x="284.2" y="233.8" type="qcurve"/>
      <point x="351.4" y="233.8"/>
      <point x="388.0" y="181.2" type="qcurve"/>
      <point x="425.2" y="133.2"/>
      <point x="425.2" y="58.0" type="qcurve"/>
      <point x="426.2" y="-2.1999999999999993"/>
      <point x="393.0" y="-69.4" type="qcurve"/>
      <point x="363.0" y="-130.0"/>
      <point x="259.8" y="-257.2" type="qcurve"/>
    </contour>
    <contour>
      <point x="284.2" y="748.8" type="qcurve"/>
      <point x="230.6" y="749.8"/>
      <point x="191.4" y="787.6" type="qcurve"/>
      <point x="154.2" y="824.8"/>
      <point x="154.2" y="878.4" type="qcurve"/>
      <point x="154.2" y="928.0"/>
      <point x="190.8" y="968.8" type="qcurve"/>
      <point x="230.6" y="1007.0"/>
      <point x="284.2" y="1007.0" type="qcurve"/>
      <point x="337.0" y="1007.0"/>
      <point x="374.2" y="968.8" type="qcurve"/>
      <point x="413.4" y="928.0"/>
      <point x="411.8" y="878.4" type="qcurve"/>
      <point x="412.8" y="824.8"/>
      <point x="375.6" y="787.6" type="qcurve"/>
      <point x="339.0" y="750.4"/>
    </contour>
  </outline>
</glyph>
<glyph name="less" format="2">
  <advance width="1161.6"/>
  <unicode hex="003C"/>
  <outline>
    <contour>
      <point x="112.4" y="594.2" type="line"/>
      <point x="112.4" y="739.8" type="line"/>
      <point x="1016.6" y="1186.4" type="line"/>
      <point x="1016.6" y="995.2" type="line"/>
      <point x="345.0" y="668.2" type="line"/>
      <point x="1016.6" y="339.8" type="line"/>
      <point x="1016.6" y="146.6" type="line"/>
    </contour>
  </outline>
</glyph>
<glyph name="equal" format="2">
  <advance width="1175.4"/>
  <unicode hex="003D"/>
  <outline>
    <contour>
      <point x="136.8" y="949.8" type="line"/>
      <point x="1047.4" y="949.8" type="line"/>
      <point x="1047.4" y="756.8" type="line"/>
      <point x="136.8" y="756.8" type="line"/>
    </contour>
    <contour>
      <point x="136.8" y="540.4" type="line"/>
      <point x="1047.4" y="540.4" type="line"/>
      <point x="1047.4" y="347.8" type="line"/>
      <point x="136.8" y="347.8" type="line"/>
    </contour>
  </outline>
</glyph>
<glyph name="greater" format="2">
  <advance width="1159.8"/>
  <unicode hex="003E"/>
  <outline>
    <contour>
      <point x="152.2" y="339.8" type="line"/>
      <point x="822.8" y="668.2" type="line"/>
      <point x="152.2" y="995.2" type="line"/>
      <point x="152.2" y="1185.8" type="line"/>
      <point x="1055.8" y="739.8" type="line"/>
      <point x="1055.8" y="594.2" type="line"/>
      <point x="152.2" y="146.6" type="line"/>
    </contour>
  </outline>
</glyph>
<glyph name="question" format="2">
  <advance width="1116.0"/>
  <unicode hex="003F"/>
  <outline>
    <contour>
      <point x="413.6" y="809.2" type="line"/>
      <point x="607.6" y="809.2"/>
      <point x="719.6" y="894.2" type="qcurve"/>
      <point x="830.0" y="978.2"/>
      <point x="829.0" y="1080.2" type="qcurve"/>
      <point x="830.0" y="1181.2"/>
      <point x="757.8" y="1239.4" type="qcurve"/>
      <point x="682.0" y="1300.4"/>
      <point x="556.6" y="1300.4" type="qcurve"/>
      <point x="490.8" y="1301.4"/>
      <point x="437.6" y="1279.4" type="qcurve"/>
      <point x="383.0" y="1257.8"/>
      <point x="337.2" y="1226.6" type="qcurve"/>
      <point x="292.2" y="1197.0"/>
      <point x="257.2" y="1165.0" type="qcurve"/>
      <point x="222.6" y="1133.0"/>
      <point x="187.2" y="1088.8" type="qcurve"/>
      <point x="55.6" y="1219.4" type="line"/>
      <point x="272.0" y="1491.0"/>
      <point x="566.0" y="1491.0" type="qcurve"/>
      <point x="703.8" y="1491.0"/>
      <point x="807.6" y="1438.8" type="qcurve"/>
      <point x="914.2" y="1386.0"/>
      <point x="974.2" y="1290.4" type="qcurve"/>
      <point x="1033.6" y="1194.2"/>
      <point x="1031.0" y="1080.2" type="qcurve"/>
      <point x="1034.0" y="985.0"/>
      <point x="977.6" y="890.8" type="qcurve"/>
      <point x="924.4" y="802.4"/>
      <point x="818.6" y="735.2" type="qcurve"/>
      <point x="721.4" y="671.6"/>
      <point x="614.6" y="648.8" type="qcurve"/>
      <point x="614.6" y="376.2" type="line"/>
      <point x="413.6" y="376.2" type="line"/>
    </contour>
    <contour>
      <point x="514.8" y="0.0" type="qcurve"/>
      <point x="460.6" y="0.0"/>
      <point x="423.4" y="38.2" type="qcurve"/>
      <point x="386.8" y="77.4"/>
      <point x="385.2" y="129.6" type="qcurve"/>
      <point x="386.8" y="178.8"/>
      <point x="423.4" y="215.4" type="qcurve"/>
      <point x="460.6" y="255.2"/>
      <point x="514.8" y="254.2" type="qcurve"/>
      <point x="567.6" y="255.8"/>
      <point x="603.4" y="215.4" type="qcurve"/>
      <point x="639.4" y="178.2"/>
      <point x="639.4" y="130.2" type="qcurve"/>
      <point x="642.0" y="78.0"/>
      <point x="604.8" y="38.8" type="qcurve"/>
      <point x="567.0" y="0.0"/>
    </contour>
  </outline>
</glyph>
<glyph name="at" format="2">
  <advance width="1705.6"/>
  <unicode hex="0040"/>
  <outline>
    <contour>
      <point x="1088.4" y="194.2" type="qcurve"/>
      <point x="1040.6" y="239.4"/>
      <point x="1034.0" y="266.8" type="qcurve"/>
      <point x="1012.4" y="238.6"/>
      <point x="929.6" y="193.4" type="qcurve"/>
      <point x="844.0" y="146.6"/>
      <point x="746.4" y="144.6" type="qcurve"/>
      <point x="598.6" y="146.6"/>
      <point x="504.4" y="243.4" type="qcurve"/>
      <point x="409.6" y="341.8"/>
      <point x="409.6" y="494.8" type="qcurve"/>
      <point x="409.6" y="629.8"/>
      <point x="477.4" y="740.8" type="qcurve"/>
      <point x="544.0" y="854.0"/>
      <point x="648.4" y="919.2" type="qcurve"/>
      <point x="756.4" y="991.2"/>
      <point x="872.6" y="987.6" type="qcurve"/>
      <point x="973.4" y="989.6"/>
      <point x="1044.8" y="940.6" type="qcurve"/>
      <point x="1119.0" y="896.2"/>
      <point x="1114.8" y="904.2" type="qcurve"/>
      <point x="1126.6" y="962.2" type="line"/>
      <point x="1307.2" y="948.0" type="line"/>
      <point x="1272.0" y="764.2"/>
      <point x="1272.0" y="761.2" type="qcurve"/>
      <point x="1205.4" y="424.2"/>
      <point x="1205.4" y="384.0" type="qcurve"/>
      <point x="1205.4" y="340.4"/>
      <point x="1230.0" y="318.6" type="qcurve"/>
      <point x="1256.4" y="298.8"/>
      <point x="1285.6" y="303.8" type="qcurve"/>
      <point x="1335.4" y="313.0"/>
      <point x="1378.6" y="342.8" type="qcurve"/>
      <point x="1420.6" y="372.2"/>
      <point x="1444.0" y="436.0" type="qcurve"/>
      <point x="1477.0" y="509.2"/>
      <point x="1477.0" y="621.0" type="qcurve"/>
      <point x="1479.4" y="763.8"/>
      <point x="1399.2" y="886.8" type="qcurve"/>
      <point x="1319.8" y="1015.4"/>
      <point x="1187.8" y="1088.8" type="qcurve"/>
      <point x="1055.2" y="1164.8"/>
      <point x="894.4" y="1163.8" type="qcurve"/>
      <point x="724.8" y="1166.2"/>
      <point x="574.0" y="1076.0" type="qcurve"/>
      <point x="428.0" y="988.6"/>
      <point x="334.6" y="835.6" type="qcurve"/>
      <point x="248.4" y="687.2"/>
      <point x="245.4" y="510.2" type="qcurve"/>
      <point x="248.4" y="360.0"/>
      <point x="327.2" y="225.0" type="qcurve"/>
      <point x="407.0" y="95.8"/>
      <point x="543.2" y="10.0" type="qcurve"/>
      <point x="680.6" y="-68.80000000000001"/>
      <point x="836.8" y="-69.80000000000001" type="qcurve"/>
      <point x="946.4" y="-69.80000000000001"/>
      <point x="1026.8" y="-46.2" type="qcurve"/>
      <point x="1116.6" y="-19.0"/>
      <point x="1256.4" y="62.599999999999994" type="qcurve"/>
      <point x="1342.8" y="-77.2" type="line"/>
      <point x="1186.2" y="-177.0"/>
      <point x="1078.2" y="-208.0" type="qcurve"/>
      <point x="967.2" y="-238.0"/>
      <point x="833.4" y="-240.0" type="qcurve"/>
      <point x="626.8" y="-240.0"/>
      <point x="452.8" y="-138.0" type="qcurve"/>
      <point x="280.8" y="-38.0"/>
      <point x="172.8" y="132.0" type="qcurve"/>
      <point x="70.2" y="308.2"/>
      <point x="71.2" y="508.2" type="qcurve"/>
      <point x="72.2" y="729.6"/>
      <point x="183.2" y="920.6" type="qcurve"/>
      <point x="296.2" y="1111.0"/>
      <point x="484.6" y="1222.0" type="qcurve"/>
      <point x="676.4" y="1337.4"/>
      <point x="897.8" y="1335.4" type="qcurve"/>
      <point x="1097.0" y="1338.4"/>
      <point x="1271.0" y="1240.4" type="qcurve"/>
      <point x="1445.0" y="1143.0"/>
      <point x="1546.6" y="977.4" type="qcurve"/>
      <point x="1651.6" y="816.2"/>
      <point x="1650.6" y="621.0" type="qcurve"/>
      <point x="1650.6" y="467.4"/>
      <point x="1596.0" y="353.0" type="qcurve"/>
      <point x="1543.2" y="240.6"/>
      <point x="1453.2" y="180.2" type="qcurve"/>
      <point x="1366.0" y="120.8"/>
      <point x="1261.6" y="120.8" type="qcurve"/>
      <point x="1162.2" y="123.8"/>
    </contour>
    <contour>
      <point x="779.6" y="310.8" type="qcurve"/>
      <point x="895.2" y="312.8"/>
      <point x="968.4" y="393.2" type="qcurve"/>
      <point x="1042.8" y="478.0"/>
      <point x="1055.6" y="612.4" type="qcurve"/>
      <point x="1059.6" y="625.0"/>
      <point x="1057.6" y="648.2" type="qcurve"/>
      <point x="1060.0" y="733.4"/>
      <point x="1016.2" y="777.2" type="qcurve"/>
      <point x="973.8" y="822.8"/>
      <point x="886.0" y="822.4" type="qcurve"/>
      <point x="813.4" y="822.4"/>
      <point x="748.0" y="778.0" type="qcurve"/>
      <point x="682.0" y="735.4"/>
      <point x="642.8" y="661.0" type="qcurve"/>
      <point x="602.6" y="585.4"/>
      <point x="600.2" y="500.2" type="qcurve"/>
      <point x="601.2" y="416.2"/>
      <point x="648.6" y="363.4" type="qcurve"/>
      <point x="696.8" y="308.8"/>
    </contour>
  </outline>
</glyph>
<glyph name="B" format="2">
  <advance width="1338.2"/>
  <unicode hex="0042"/>
  <outline>
    <contour>
      <point x="186.0" y="1460.2" type="line"/>
      <point x="801.0" y="1460.2" type="line"/>
      <point x="912.6" y="1460.2"/>
      <point x="997.2" y="1411.8" type="qcurve"/>
      <point x="1085.4" y="1364.0"/>
      <point x="1132.8" y="1274.2" type="qcurve"/>
      <point x="1179.6" y="1187.8"/>
      <point x="1179.6" y="1082.2" type="qcurve"/>
      <point x="1182.0" y="973.0"/>
      <point x="1132.2" y="888.2" type="qcurve"/>
      <point x="1082.8" y="813.8"/>
      <point x="1024.0" y="774.8" type="qcurve"/>
      <point x="1099.6" y="734.0"/>
      <point x="1164.8" y="636.6" type="qcurve"/>
      <point x="1230.2" y="540.0"/>
      <point x="1230.2" y="413.8" type="qcurve"/>
      <point x="1230.2" y="293.8"/>
      <point x="1178.6" y="200.8" type="qcurve"/>
      <point x="1130.2" y="105.6"/>
      <point x="1034.4" y="52.8" type="qcurve"/>
      <point x="942.4" y="0.0"/>
      <point x="823.4" y="0.0" type="qcurve"/>
      <point x="186.0" y="0.0" type="line"/>
    </contour>
    <contour>
      <point x="389.0" y="1270.6" type="line"/>
      <point x="389.0" y="860.4" type="line"/>
      <point x="763.8" y="860.4" type="line"/>
      <point x="858.6" y="860.4"/>
      <point x="916.4" y="917.6" type="qcurve"/>
      <point x="976.6" y="975.4"/>
      <point x="976.6" y="1064.4" type="qcurve"/>
      <point x="979.0" y="1157.0"/>
      <point x="918.4" y="1212.8" type="qcurve"/>
      <point x="859.6" y="1272.6"/>
      <point x="764.4" y="1270.6" type="qcurve"/>
    </contour>
    <contour>
      <point x="389.0" y="669.8" type="line"/>
      <point x="389.0" y="182.6" type="line"/>
      <point x="785.6" y="182.6" type="line"/>
      <point x="895.4" y="182.6"/>
      <point x="959.0" y="249.2" type="qcurve"/>
      <point x="1028.2" y="320.8"/>
      <point x="1028.2" y="425.8" type="qcurve"/>
      <point x="1030.6" y="535.0"/>
      <point x="961.6" y="601.2" type="qcurve"/>
      <point x="894.4" y="672.8"/>
      <point x="785.6" y="669.8" type="qcurve"/>
    </contour>
  </outline>
</glyph>
<glyph name="E" format="2">
  <advance width="1237.4"/>
  <unicode hex="0045"/>
  <outline>
    <contour>
      <point x="361.2" y="1264.6" type="line"/>
      <point x="361.2" y="839.0" type="line"/>
      <point x="1056.8" y="839.0" type="line"/>
      <point x="1056.8" y="646.0" type="line"/>
      <point x="361.2" y="646.0" type="line"/>
      <point x="361.2" y="192.6" type="line"/>
      <point x="1132.4" y="192.6" type="line"/>
      <point x="1132.4" y="0.0" type="line"/>
      <point x="159.2" y="0.0" type="line"/>
      <point x="159.2" y="1460.2" type="line"/>
      <point x="1132.4" y="1460.2" type="line"/>
      <point x="1132.4" y="1264.6" type="line"/>
    </contour>
  </outline>
</glyph>
<glyph name="F" format="2">
  <advance width="1203.4"/>
  <unicode hex="0046"/>
  <outline>
    <contour>
      <point x="361.2" y="1264.6" type="line"/>
      <point x="361.2" y="901.6" type="line"/>
      <point x="1056.8" y="901.6" type="line"/>
      <point x="1056.8" y="707.6" type="line"/>
      <point x="361.2" y="707.6" type="line"/>
      <point x="361.2" y="0.0" type="line"/>
      <point x="159.2" y="0.0" type="line"/>
      <point x="159.2" y="1460.2" type="line"/>
      <point x="1132.4" y="1460.2" type="line"/>
      <point x="1132.4" y="1264.6" type="line"/>
    </contour>
  </outline>
</glyph>
<glyph name="G" format="2">
  <advance width="1647.2"/>
  <unicode hex="0047"/>
  <outline>
    <contour>
      <point x="107.0" y="727.8" type="qcurve"/>
      <point x="107.0" y="899.8"/>
      <point x="173.6" y="1039.6" type="qcurve"/>
      <point x="239.0" y="1179.0"/>
      <point x="345.6" y="1276.0" type="qcurve"/>
      <point x="453.6" y="1374.0"/>
      <point x="587.6" y="1427.0" type="qcurve"/>
      <point x="722.0" y="1481.0"/>
      <point x="863.2" y="1481.0" type="qcurve"/>
      <point x="990.2" y="1481.0"/>
      <point x="1093.0" y="1442.0" type="qcurve"/>
      <point x="1192.2" y="1403.0"/>
      <point x="1264.2" y="1358.0" type="qcurve"/>
      <point x="1335.6" y="1313.0"/>
      <point x="1432.2" y="1222.2" type="qcurve"/>
      <point x="1323.0" y="1086.6" type="line"/>
      <point x="1233.0" y="1163.6"/>
      <point x="1172.8" y="1196.6" type="qcurve"/>
      <point x="1114.0" y="1232.2"/>
      <point x="1032.4" y="1260.4" type="qcurve"/>
      <point x="955.2" y="1290.0"/>
      <point x="865.2" y="1289.0" type="qcurve"/>
      <point x="751.4" y="1290.0"/>
      <point x="649.4" y="1245.6" type="qcurve"/>
      <point x="548.4" y="1201.8"/>
      <point x="474.0" y="1127.4" type="qcurve"/>
      <point x="399.6" y="1053.6"/>
      <point x="356.8" y="951.6" type="qcurve"/>
      <point x="313.4" y="849.6"/>
      <point x="313.4" y="727.8" type="qcurve"/>
      <point x="313.4" y="632.2"/>
      <point x="347.4" y="531.6" type="qcurve"/>
      <point x="381.4" y="432.6"/>
      <point x="449.4" y="352.8" type="qcurve"/>
      <point x="517.4" y="275.6"/>
      <point x="614.4" y="224.8" type="qcurve"/>
      <point x="712.8" y="176.2"/>
      <point x="834.8" y="175.2" type="qcurve"/>
      <point x="982.2" y="175.2"/>
      <point x="1082.0" y="226.8" type="qcurve"/>
      <point x="1184.6" y="280.0"/>
      <point x="1247.2" y="350.4" type="qcurve"/>
      <point x="1310.2" y="420.8"/>
      <point x="1335.6" y="490.6" type="qcurve"/>
      <point x="1364.2" y="561.8"/>
      <point x="1364.2" y="563.0" type="qcurve"/>
      <point x="836.4" y="563.0" type="line"/>
      <point x="836.4" y="756.0" type="line"/>
      <point x="1557.2" y="756.0" type="line"/>
      <point x="1557.2" y="629.0" type="line"/>
      <point x="1557.2" y="549.6"/>
      <point x="1518.2" y="438.0" type="qcurve"/>
      <point x="1478.6" y="325.8"/>
      <point x="1392.6" y="225.4" type="qcurve"/>
      <point x="1307.0" y="122.2"/>
      <point x="1170.0" y="50.8" type="qcurve"/>
      <point x="1032.8" y="-22.4"/>
      <point x="834.8" y="-22.4" type="qcurve"/>
      <point x="699.6" y="-23.4"/>
      <point x="567.0" y="34.2" type="qcurve"/>
      <point x="436.6" y="91.2"/>
      <point x="333.0" y="190.2" type="qcurve"/>
      <point x="231.0" y="290.2"/>
      <point x="169.0" y="428.8" type="qcurve"/>
      <point x="107.0" y="569.4"/>
    </contour>
  </outline>
</glyph>
<glyph name="H" format="2">
  <advance width="1481.6"/>
  <unicode hex="0048"/>
  <outline>
    <contour>
      <point x="1331.6" y="1460.2" type="line"/>
      <point x="1331.6" y="0.0" type="line"/>
      <point x="1130.6" y="0.0" type="line"/>
      <point x="1130.6" y="651.4" type="line"/>
      <point x="359.2" y="651.4" type="line"/>
      <point x="359.2" y="0.0" type="line"/>
      <point x="159.2" y="0.0" type="line"/>
      <point x="159.2" y="1460.2" type="line"/>
      <point x="359.2" y="1460.2" type="line"/>
      <point x="359.2" y="847.0" type="line"/>
      <point x="1130.6" y="847.0" type="line"/>
      <point x="1130.6" y="1460.2" type="line"/>
    </contour>
  </outline>
</glyph>
<glyph name="K" format="2">
  <advance width="1333.6"/>
  <unicode hex="004B"/>
  <outline>
    <contour>
      <point x="182.0" y="1460.2" type="line"/>
      <point x="385.0" y="1460.2" type="line"/>
      <point x="385.0" y="835.4" type="line"/>
      <point x="1011.8" y="1460.2" type="line"/>
      <point x="1280.8" y="1460.2" type="line"/>
      <point x="566.4" y="749.2" type="line"/>
      <point x="1318.6" y="0.0" type="line"/>
      <point x="1048.4" y="0.0" type="line"/>
      <point x="385.0" y="662.6" type="line"/>
      <point x="385.0" y="0.0" type="line"/>
      <point x="182.0" y="0.0" type="line"/>
    </contour>
  </outline>
</glyph>
<glyph name="L" format="2">
  <advance width="1101.4"/>
  <unicode hex="004C"/>
  <outline>
    <contour>
      <point x="1036.4" y="192.6" type="line"/>
      <point x="1036.4" y="0.0" type="line"/>
      <point x="138.8" y="0.0" type="line"/>
      <point x="138.8" y="1460.2" type="line"/>
      <point x="341.8" y="1460.2" type="line"/>
      <point x="341.8" y="192.6" type="line"/>
    </contour>
  </outline>
</glyph>
<glyph name="M" format="2">
  <advance width="1735.2"/>
  <unicode hex="004D"/>
  <outline>
    <contour>
      <point x="186.0" y="1460.2" type="line"/>
      <point x="385.0" y="1460.2" type="line"/>
      <point x="872.6" y="597.6" type="line"/>
      <point x="1356.2" y="1460.2" type="line"/>
      <point x="1555.2" y="1460.2" type="line"/>
      <point x="1555.2" y="0.0" type="line"/>
      <point x="1354.2" y="0.0" type="line"/>
      <point x="1354.2" y="1025.2" type="line"/>
      <point x="872.6" y="182.4" type="line"/>
      <point x="389.0" y="1025.2" type="line"/>
      <point x="389.0" y="0.0" type="line"/>
      <point x="186.0" y="0.0" type="line"/>
    </contour>
  </outline>
</glyph>
<glyph name="N" format="2">
  <advance width="1584.2"/>
  <unicode hex="004E"/>
  <outline>
    <contour>
      <point x="186.0" y="1460.2" type="line"/>
      <point x="374.6" y="1460.2" type="line"/>
      <point x="1202.2" y="352.4" type="line"/>
      <point x="1202.2" y="1460.2" type="line"/>
      <point x="1403.2" y="1460.2" type="line"/>
      <point x="1403.2" y="0.0" type="line"/>
      <point x="1216.0" y="0.0" type="line"/>
      <point x="389.0" y="1109.2" type="line"/>
      <point x="389.0" y="0.0" type="line"/>
      <point x="186.0" y="0.0" type="line"/>
    </contour>
  </outline>
</glyph>
<glyph name="O" format="2">
  <advance width="1714.0"/>
  <unicode hex="004F"/>
  <outline>
    <contour>
      <point x="855.2" y="-22.4" type="qcurve"/>
      <point x="658.6" y="-21.4"/>
      <point x="487.0" y="81.2" type="qcurve"/>
      <point x="315.0" y="184.6"/>
      <point x="212.0" y="355.6" type="qcurve"/>
      <point x="107.0" y="528.2"/>
      <point x="107.0" y="729.8" type="qcurve"/>
      <point x="107.0" y="934.4"/>
      <point x="212.6" y="1104.0" type="qcurve"/>
      <point x="316.4" y="1276.4"/>
      <point x="485.0" y="1379.0" type="qcurve"/>
      <point x="657.6" y="1484.6"/>
      <point x="855.2" y="1481.0" type="qcurve"/>
      <point x="1056.8" y="1483.0"/>
      <point x="1223.4" y="1381.0" type="qcurve"/>
      <point x="1392.0" y="1279.0"/>
      <point x="1495.4" y="1106.0" type="qcurve"/>
      <point x="1600.0" y="936.4"/>
      <point x="1597.0" y="729.8" type="qcurve"/>
      <point x="1599.4" y="528.8"/>
      <point x="1495.4" y="355.6" type="qcurve"/>
      <point x="1396.4" y="188.2"/>
      <point x="1225.4" y="83.2" type="qcurve"/>
      <point x="1056.8" y="-19.4"/>
    </contour>
    <contour>
      <point x="854.6" y="180.6" type="qcurve"/>
      <point x="993.0" y="183.6"/>
      <point x="1121.6" y="258.0" type="qcurve"/>
      <point x="1249.6" y="332.8"/>
      <point x="1320.0" y="460.0" type="qcurve"/>
      <point x="1397.0" y="589.0"/>
      <point x="1394.0" y="729.8" type="qcurve"/>
      <point x="1395.0" y="871.2"/>
      <point x="1320.0" y="1002.2" type="qcurve"/>
      <point x="1249.6" y="1129.8"/>
      <point x="1123.6" y="1203.2" type="qcurve"/>
      <point x="995.6" y="1278.0"/>
      <point x="855.2" y="1278.0" type="qcurve"/>
      <point x="714.8" y="1280.0"/>
      <point x="585.8" y="1205.2" type="qcurve"/>
      <point x="522.8" y="1166.2"/>
      <point x="474.0" y="1118.4" type="qcurve"/>
      <point x="425.8" y="1072.2"/>
      <point x="386.8" y="1006.2" type="qcurve"/>
      <point x="313.4" y="875.6"/>
      <point x="313.4" y="729.8" type="qcurve"/>
      <point x="311.0" y="589.0"/>
      <point x="384.2" y="460.0" type="qcurve"/>
      <point x="425.2" y="396.4"/>
      <point x="472.6" y="346.0" type="qcurve"/>
      <point x="521.4" y="296.8"/>
      <point x="584.4" y="257.4" type="qcurve"/>
      <point x="713.4" y="178.6"/>
    </contour>
  </outline>
</glyph>
<glyph name="P" format="2">
  <advance width="1267.4"/>
  <unicode hex="0050"/>
  <outline>
    <contour>
      <point x="159.2" y="1460.2" type="line"/>
      <point x="704.6" y="1460.2" type="line"/>
      <point x="846.4" y="1460.2"/>
      <point x="955.6" y="1405.0" type="qcurve"/>
      <point x="1073.8" y="1351.8"/>
      <point x="1135.6" y="1251.2" type="qcurve"/>
      <point x="1206.4" y="1151.8"/>
      <point x="1205.4" y="1024.6" type="qcurve"/>
      <point x="1208.4" y="896.2"/>
      <point x="1137.0" y="797.2" type="qcurve"/>
      <point x="1072.8" y="698.8"/>
      <point x="956.2" y="641.0" type="qcurve"/>
      <point x="846.4" y="586.4"/>
      <point x="704.6" y="585.4" type="qcurve"/>
      <point x="359.2" y="585.4" type="line"/>
      <point x="359.2" y="0.0" type="line"/>
      <point x="159.2" y="0.0" type="line"/>
    </contour>
    <contour>
      <point x="680.8" y="779.4" type="line"/>
      <point x="830.2" y="779.4"/>
      <point x="915.4" y="846.4" type="qcurve"/>
      <point x="1002.4" y="911.6"/>
      <point x="1002.4" y="1024.6" type="qcurve"/>
      <point x="1004.8" y="1136.4"/>
      <point x="917.4" y="1198.4" type="qcurve"/>
      <point x="829.8" y="1266.0"/>
      <point x="681.4" y="1264.6" type="qcurve"/>
      <point x="359.2" y="1264.6" type="line"/>
      <point x="359.2" y="779.4" type="line"/>
    </contour>
  </outline>
</glyph>
<glyph name="Q" format="2">
  <advance width="1695.0"/>
  <unicode hex="0051"/>
  <outline>
    <contour>
      <point x="855.2" y="1481.0" type="qcurve"/>
      <point x="1056.8" y="1483.0"/>
      <point x="1223.4" y="1381.0" type="qcurve"/>
      <point x="1394.0" y="1278.4"/>
      <point x="1495.4" y="1105.4" type="qcurve"/>
      <point x="1600.0" y="936.4"/>
      <point x="1597.0" y="729.8" type="qcurve"/>
      <point x="1599.4" y="528.8"/>
      <point x="1495.4" y="355.6" type="qcurve"/>
      <point x="1459.4" y="297.2"/>
      <point x="1431.4" y="262.2" type="qcurve"/>
      <point x="1574.0" y="135.4" type="line"/>
      <point x="1444.0" y="-13.4" type="line"/>
      <point x="1286.2" y="122.4" type="line"/>
      <point x="1269.4" y="108.6"/>
      <point x="1224.8" y="83.2" type="qcurve"/>
      <point x="1056.8" y="-19.4"/>
      <point x="855.2" y="-22.4" type="qcurve"/>
      <point x="658.6" y="-21.4"/>
      <point x="487.0" y="81.2" type="qcurve"/>
      <point x="317.0" y="184.6"/>
      <point x="212.0" y="355.6" type="qcurve"/>
      <point x="107.0" y="528.2"/>
      <point x="107.0" y="729.8" type="qcurve"/>
      <point x="107.0" y="934.4"/>
      <point x="212.6" y="1104.0" type="qcurve"/>
      <point x="316.4" y="1276.4"/>
      <point x="485.0" y="1379.0" type="qcurve"/>
      <point x="657.6" y="1484.6"/>
    </contour>
    <contour>
      <point x="855.2" y="1278.0" type="qcurve"/>
      <point x="714.8" y="1280.0"/>
      <point x="586.4" y="1205.2" type="qcurve"/>
      <point x="523.8" y="1166.2"/>
      <point x="475.0" y="1118.0" type="qcurve"/>
      <point x="427.2" y="1070.6"/>
      <point x="387.4" y="1006.2" type="qcurve"/>
      <point x="313.4" y="875.6"/>
      <point x="313.4" y="729.8" type="qcurve"/>
      <point x="311.0" y="589.0"/>
      <point x="384.8" y="460.0" type="qcurve"/>
      <point x="460.8" y="333.4"/>
      <point x="584.4" y="258.0" type="qcurve"/>
      <point x="713.4" y="178.6"/>
      <point x="855.2" y="180.6" type="qcurve"/>
      <point x="995.0" y="178.6"/>
      <point x="1121.6" y="258.0" type="qcurve"/>
      <point x="1143.2" y="269.8"/>
      <point x="1131.4" y="260.4" type="qcurve"/>
      <point x="949.8" y="418.2" type="line"/>
      <point x="1076.8" y="568.8" type="line"/>
      <point x="1277.4" y="394.4" type="line"/>
      <point x="1290.0" y="410.6"/>
      <point x="1321.2" y="460.0" type="qcurve"/>
      <point x="1397.0" y="589.0"/>
      <point x="1394.0" y="729.8" type="qcurve"/>
      <point x="1397.0" y="873.2"/>
      <point x="1320.6" y="1002.8" type="qcurve"/>
      <point x="1249.6" y="1129.8"/>
      <point x="1123.6" y="1203.2" type="qcurve"/>
      <point x="997.0" y="1280.0"/>
    </contour>
  </outline>
</glyph>
<glyph name="T" format="2">
  <advance width="1242.2"/>
  <unicode hex="0054"/>
  <outline>
    <contour>
      <point x="524.4" y="1264.6" type="line"/>
      <point x="97.0" y="1264.6" type="line"/>
      <point x="97.0" y="1460.2" type="line"/>
      <point x="1156.2" y="1460.2" type="line"/>
      <point x="1156.2" y="1264.6" type="line"/>
      <point x="725.4" y="1264.6" type="line"/>
      <point x="725.4" y="0.0" type="line"/>
      <point x="524.4" y="0.0" type="line"/>
    </contour>
  </outline>
</glyph>
<glyph name="V" format="2">
  <advance width="1380.2"/>
  <unicode hex="0056"/>
  <outline>
    <contour>
      <point x="1100.8" y="1460.2" type="line"/>
      <point x="1316.2" y="1460.2" type="line"/>
      <point x="788.0" y="0.0" type="line"/>
      <point x="590.4" y="0.0" type="line"/>
      <point x="61.2" y="1460.2" type="line"/>
      <point x="277.2" y="1460.2" type="line"/>
      <point x="689.2" y="324.2" type="line"/>
    </contour>
  </outline>
</glyph>
<glyph name="W" format="2">
  <advance width="1898.8"/>
  <unicode hex="0057"/>
  <outline>
    <contour>
      <point x="4.2" y="1460.2" type="line"/>
      <point x="206.4" y="1460.2" type="line"/>
      <point x="499.2" y="377.4" type="line"/>
      <point x="840.2" y="1460.2" type="line"/>
      <point x="1023.8" y="1460.2" type="line"/>
      <point x="1366.6" y="377.4" type="line"/>
      <point x="1655.0" y="1460.2" type="line"/>
      <point x="1859.8" y="1460.2" type="line"/>
      <point x="1469.6" y="0.0" type="line"/>
      <point x="1280.4" y="0.0" type="line"/>
      <point x="929.2" y="1110.8" type="line"/>
      <point x="581.0" y="0.0" type="line"/>
      <point x="395.4" y="0.0" type="line"/>
    </contour>
  </outline>
</glyph>
<glyph name="X" format="2">
  <advance width="1490.8"/>
  <unicode hex="0058"/>
  <outline>
    <contour>
      <point x="877.6" y="729.8" type="line"/>
      <point x="1414.4" y="0.0" type="line"/>
      <point x="1170.8" y="0.0" type="line"/>
      <point x="743.8" y="558.0" type="line"/>
      <point x="303.0" y="0.0" type="line"/>
      <point x="54.8" y="0.0" type="line"/>
      <point x="613.6" y="727.8" type="line"/>
      <point x="54.8" y="1460.2" type="line"/>
      <point x="301.0" y="1460.2" type="line"/>
      <point x="745.8" y="903.6" type="line"/>
      <point x="1172.8" y="1460.2" type="line"/>
      <point x="1417.8" y="1460.2" type="line"/>
    </contour>
  </outline>
</glyph>
<glyph name="Y" format="2">
  <advance width="1439.4"/>
  <unicode hex="0059"/>
  <outline>
    <contour>
      <point x="610.8" y="592.2" type="line"/>
      <point x="21.200000000000003" y="1460.2" type="line"/>
      <point x="268.4" y="1460.2" type="line"/>
      <point x="719.4" y="801.6" type="line"/>
      <point x="1164.2" y="1460.2" type="line"/>
      <point x="1405.4" y="1460.2" type="line"/>
      <point x="819.8" y="592.2" type="line"/>
      <point x="819.8" y="0.0" type="line"/>
      <point x="610.8" y="0.0" type="line"/>
    </contour>
  </outline>
</glyph>
<glyph name="Z" format="2">
  <advance width="1340.2"/>
  <unicode hex="005A"/>
  <outline>
    <contour>
      <point x="119.4" y="152.6" type="line"/>
      <point x="958.8" y="1264.6" type="line"/>
      <point x="134.8" y="1264.6" type="line"/>
      <point x="134.8" y="1460.2" type="line"/>
      <point x="1235.2" y="1460.2" type="line"/>
      <point x="1235.2" y="1295.2" type="line"/>
      <point x="402.4" y="192.6" type="line"/>
      <point x="1235.2" y="192.6" type="line"/>
      <point x="1235.2" y="0.0" type="line"/>
      <point x="119.4" y="0.0" type="line"/>
    </contour>
  </outline>
</glyph>
<glyph name="bracketleft" format="2">
  <advance width="751.2"/>
  <unicode hex="005B"/>
  <outline>
    <contour>
      <point x="162.6" y="1460.2" type="line"/>
      <point x="672.2" y="1460.2" type="line"/>
      <point x="672.2" y="1294.4" type="line"/>
      <point x="343.8" y="1294.4" type="line"/>
      <point x="343.8" y="-160.8" type="line"/>
      <point x="672.2" y="-160.8" type="line"/>
      <point x="672.2" y="-323.0" type="line"/>
      <point x="162.6" y="-323.0" type="line"/>
    </contour>
  </outline>
</glyph>
<glyph name="backslash" format="2">
  <advance width="852.4"/>
  <unicode hex="005C"/>
  <outline>
    <contour>
      <point x="-11.8" y="1437.8" type="line"/>
      <point x="207.4" y="1437.8" type="line"/>
      <point x="885.4" y="-136.2" type="line"/>
      <point x="666.2" y="-136.2" type="line"/>
    </contour>
  </outline>
</glyph>
<glyph name="bracketright" format="2">
  <advance width="753.6"/>
  <unicode hex="005D"/>
  <outline>
    <contour>
      <point x="105.0" y="-160.8" type="line"/>
      <point x="433.4" y="-160.8" type="line"/>
      <point x="433.4" y="1294.4" type="line"/>
      <point x="105.0" y="1294.4" type="line"/>
      <point x="105.0" y="1460.2" type="line"/>
      <point x="612.6" y="1460.2" type="line"/>
      <point x="612.6" y="-323.0" type="line"/>
      <point x="105.0" y="-323.0" type="line"/>
    </contour>
  </outline>
</glyph>
<glyph name="asciicircum" format="2">
  <advance width="1004.0"/>
  <unicode hex="005E"/>
  <outline>
    <contour>
      <point x="425.6" y="1333.0" type="line"/>
      <point x="566.8" y="1333.0" type="line"/>
      <point x="900.0" y="768.2" type="line"/>
      <point x="713.8" y="768.2" type="line"/>
      <point x="497.4" y="1148.0" type="line"/>
      <point x="276.6" y="768.2" type="line"/>
      <point x="89.4" y="768.2" type="line"/>
    </contour>
  </outline>
</glyph>
<glyph name="underscore" format="2">
  <advance width="1168.6"/>
  <unicode hex="005F"/>
  <outline>
    <contour>
      <point x="8.6" y="-82.2" type="line"/>
      <point x="1173.6" y="-82.2" type="line"/>
      <point x="1173.6" y="-264.8" type="line"/>
      <point x="8.6" y="-264.8" type="line"/>
    </contour>
  </outline>
</glyph>
<glyph name="grave" format="2">
  <advance width="711.2"/>
  <unicode hex="0060"/>
  <unicode hex="0300"/>
  <outline>
    <contour>
      <point x="97.6" y="1347.6" type="line"/>
      <point x="316.4" y="1397.6" type="line"/>
      <point x="588.2" y="1070.8" type="line"/>
      <point x="411.6" y="1070.8" type="line"/>
    </contour>
  </outline>
</glyph>
<glyph name="b" format="2">
  <advance width="1257.8"/>
  <unicode hex="0062"/>
  <outline>
    <contour>
      <point x="642.0" y="859.6" type="qcurve"/>
      <point x="558.0" y="858.2"/>
      <point x="491.0" y="814.2" type="qcurve"/>
      <point x="423.6" y="772.8"/>
      <point x="387.0" y="694.0" type="qcurve"/>
      <point x="349.2" y="612.0"/>
      <point x="348.2" y="508.2" type="qcurve"/>
      <point x="349.2" y="402.4"/>
      <point x="387.0" y="325.0" type="qcurve"/>
      <point x="424.2" y="246.2"/>
      <point x="491.6" y="202.2" type="qcurve"/>
      <point x="558.0" y="158.4"/>
      <point x="642.0" y="159.8" type="qcurve"/>
      <point x="726.0" y="157.8"/>
      <point x="792.4" y="202.2" type="qcurve"/>
      <point x="861.8" y="246.2"/>
      <point x="899.0" y="324.4" type="qcurve"/>
      <point x="936.8" y="402.4"/>
      <point x="935.8" y="508.2" type="qcurve"/>
      <point x="936.8" y="612.0"/>
      <point x="899.0" y="692.0" type="qcurve"/>
      <point x="861.8" y="769.8"/>
      <point x="795.4" y="814.2" type="qcurve"/>
      <point x="725.6" y="858.8"/>
    </contour>
    <contour>
      <point x="152.2" y="0.0" type="line"/>
      <point x="152.2" y="1460.2" type="line"/>
      <point x="348.2" y="1460.2" type="line"/>
      <point x="348.2" y="915.0" type="line"/>
      <point x="352.2" y="921.6"/>
      <point x="448.2" y="980.0" type="qcurve"/>
      <point x="546.2" y="1038.8"/>
      <point x="667.8" y="1038.8" type="qcurve"/>
      <point x="801.0" y="1041.8"/>
      <point x="909.0" y="970.4" type="qcurve"/>
      <point x="1015.4" y="903.2"/>
      <point x="1078.6" y="780.2" type="qcurve"/>
      <point x="1139.8" y="656.0"/>
      <point x="1140.8" y="508.2" type="qcurve"/>
      <point x="1139.8" y="357.0"/>
      <point x="1079.2" y="237.2" type="qcurve"/>
      <point x="1015.4" y="114.8"/>
      <point x="911.0" y="46.0" type="qcurve"/>
      <point x="802.0" y="-24.4"/>
      <point x="668.4" y="-24.4" type="qcurve"/>
      <point x="548.2" y="-24.8"/>
      <point x="451.2" y="33.0" type="qcurve"/>
      <point x="354.2" y="91.8"/>
      <point x="348.2" y="101.8" type="qcurve"/>
      <point x="348.2" y="0.0" type="line"/>
    </contour>
  </outline>
</glyph>
<glyph name="d" format="2">
  <advance width="1259.0"/>
  <unicode hex="0064"/>
  <outline>
    <contour>
      <point x="609.2" y="157.8" type="qcurve"/>
      <point x="694.6" y="160.8"/>
      <point x="761.2" y="202.2" type="qcurve"/>
      <point x="828.6" y="246.2"/>
      <point x="865.2" y="323.0" type="qcurve"/>
      <point x="905.0" y="406.4"/>
      <point x="904.0" y="508.2" type="qcurve"/>
      <point x="905.0" y="614.4"/>
      <point x="865.2" y="691.4" type="qcurve"/>
      <point x="828.6" y="772.2"/>
      <point x="761.2" y="814.8" type="qcurve"/>
      <point x="695.2" y="859.6"/>
      <point x="609.2" y="858.2" type="qcurve"/>
      <point x="527.2" y="859.6"/>
      <point x="458.8" y="813.6" type="qcurve"/>
      <point x="390.4" y="772.2"/>
      <point x="352.2" y="692.0" type="qcurve"/>
      <point x="315.4" y="614.4"/>
      <point x="315.4" y="508.2" type="qcurve"/>
      <point x="315.4" y="406.4"/>
      <point x="352.8" y="325.0" type="qcurve"/>
      <point x="391.4" y="247.6"/>
      <point x="456.8" y="202.2" type="qcurve"/>
      <point x="527.6" y="160.8"/>
    </contour>
    <contour>
      <point x="1100.0" y="1460.2" type="line"/>
      <point x="1100.0" y="0.0" type="line"/>
      <point x="904.0" y="0.0" type="line"/>
      <point x="904.0" y="104.2" type="line"/>
      <point x="899.0" y="95.8"/>
      <point x="803.6" y="37.0" type="qcurve"/>
      <point x="708.0" y="-22.4"/>
      <point x="584.4" y="-22.4" type="qcurve"/>
      <point x="451.8" y="-24.4"/>
      <point x="343.2" y="46.0" type="qcurve"/>
      <point x="236.2" y="116.2"/>
      <point x="173.6" y="237.8" type="qcurve"/>
      <point x="115.0" y="362.4"/>
      <point x="111.0" y="508.2" type="qcurve"/>
      <point x="114.4" y="659.4"/>
      <point x="173.6" y="780.2" type="qcurve"/>
      <point x="236.2" y="905.2"/>
      <point x="341.8" y="970.4" type="qcurve"/>
      <point x="452.2" y="1041.8"/>
      <point x="584.4" y="1040.8" type="qcurve"/>
      <point x="705.0" y="1041.8"/>
      <point x="801.6" y="983.4" type="qcurve"/>
      <point x="898.0" y="925.6"/>
      <point x="904.0" y="915.6" type="qcurve"/>
      <point x="904.0" y="1460.2" type="line"/>
    </contour>
  </outline>
</glyph>
<glyph name="f" format="2">
  <advance width="782.0"/>
  <unicode hex="0066"/>
  <outline>
    <contour>
      <point x="231.2" y="1016.4" type="line"/>
      <point x="231.2" y="1156.2" type="line"/>
      <point x="230.2" y="1241.2"/>
      <point x="264.0" y="1311.4" type="qcurve"/>
      <point x="298.4" y="1383.0"/>
      <point x="360.0" y="1427.0" type="qcurve"/>
      <point x="423.0" y="1471.4"/>
      <point x="508.8" y="1481.0" type="qcurve"/>
      <point x="595.4" y="1491.6"/>
      <point x="723.0" y="1447.0" type="qcurve"/>
      <point x="668.4" y="1253.0" type="line"/>
      <point x="600.0" y="1289.0"/>
      <point x="560.4" y="1289.0" type="qcurve"/>
      <point x="523.4" y="1290.0"/>
      <point x="493.2" y="1273.2" type="qcurve"/>
      <point x="463.6" y="1257.8"/>
      <point x="445.4" y="1227.8" type="qcurve"/>
      <point x="427.2" y="1197.6"/>
      <point x="427.2" y="1156.2" type="qcurve"/>
      <point x="427.2" y="1016.4" type="line"/>
      <point x="666.2" y="1016.4" type="line"/>
      <point x="666.2" y="836.8" type="line"/>
      <point x="427.2" y="836.8" type="line"/>
      <point x="427.2" y="0.0" type="line"/>
      <point x="231.2" y="0.0" type="line"/>
      <point x="231.2" y="836.8" type="line"/>
      <point x="79.6" y="836.8" type="line"/>
      <point x="79.6" y="1016.4" type="line"/>
    </contour>
  </outline>
</glyph>
<glyph name="i" format="2">
  <advance width="492.2"/>
  <unicode hex="0069"/>
  <outline>
    <contour>
      <point x="250.0" y="1136.4" type="qcurve"/>
      <point x="200.8" y="1133.8"/>
      <point x="164.4" y="1172.8" type="qcurve"/>
      <point x="127.8" y="1212.0"/>
      <point x="128.8" y="1255.6" type="qcurve"/>
      <point x="127.8" y="1304.2"/>
      <point x="163.0" y="1340.4" type="qcurve"/>
      <point x="198.8" y="1376.2"/>
      <point x="248.8" y="1376.2" type="qcurve"/>
      <point x="298.0" y="1380.4"/>
      <point x="334.8" y="1342.4" type="qcurve"/>
      <point x="373.8" y="1303.6"/>
      <point x="369.6" y="1256.2" type="qcurve"/>
      <point x="375.4" y="1213.2"/>
      <point x="338.0" y="1172.8" type="qcurve"/>
      <point x="302.2" y="1133.8"/>
    </contour>
    <contour>
      <point x="151.2" y="1016.4" type="line"/>
      <point x="347.2" y="1016.4" type="line"/>
      <point x="347.2" y="0.0" type="line"/>
      <point x="151.2" y="0.0" type="line"/>
    </contour>
  </outline>
</glyph>
<glyph name="k" format="2">
  <advance width="1099.2"/>
  <unicode hex="006B"/>
  <outline>
    <contour>
      <point x="148.2" y="1460.2" type="line"/>
      <point x="347.2" y="1460.2" type="line"/>
      <point x="347.2" y="608.4" type="line"/>
      <point x="754.4" y="1016.4" type="line"/>
      <point x="1029.4" y="1016.4" type="line"/>
      <point x="535.0" y="521.6" type="line"/>
      <point x="1059.2" y="0.0" type="line"/>
      <point x="783.6" y="0.0" type="line"/>
      <point x="347.2" y="435.0" type="line"/>
      <point x="347.2" y="0.0" type="line"/>
      <point x="148.2" y="0.0" type="line"/>
    </contour>
  </outline>
</glyph>
<glyph name="l" format="2">
  <advance width="496.2"/>
  <unicode hex="006C"/>
  <outline>
    <contour>
      <point x="152.2" y="1460.2" type="line"/>
      <point x="348.2" y="1460.2" type="line"/>
      <point x="348.2" y="0.0" type="line"/>
      <point x="152.2" y="0.0" type="line"/>
    </contour>
  </outline>
</glyph>
<glyph name="m" format="2">
  <advance width="1736.0"/>
  <unicode hex="006D"/>
  <outline>
    <contour>
      <point x="1220.8" y="1040.8" type="qcurve"/>
      <point x="1328.2" y="1043.8"/>
      <point x="1411.8" y="989.4" type="qcurve"/>
      <point x="1495.4" y="940.4"/>
      <point x="1542.8" y="846.8" type="qcurve"/>
      <point x="1589.0" y="757.8"/>
      <point x="1589.0" y="641.4" type="qcurve"/>
      <point x="1589.0" y="0.0" type="line"/>
      <point x="1395.0" y="0.0" type="line"/>
      <point x="1395.0" y="621.6" type="line"/>
      <point x="1397.4" y="729.0"/>
      <point x="1339.4" y="794.8" type="qcurve"/>
      <point x="1287.2" y="859.6"/>
      <point x="1201.0" y="858.2" type="qcurve"/>
      <point x="1097.0" y="861.0"/>
      <point x="1034.0" y="798.4" type="qcurve"/>
      <point x="970.4" y="737.2"/>
      <point x="969.4" y="641.4" type="qcurve"/>
      <point x="969.4" y="0.0" type="line"/>
      <point x="773.8" y="0.0" type="line"/>
      <point x="773.8" y="621.0" type="line"/>
      <point x="774.8" y="729.0"/>
      <point x="717.8" y="794.8" type="qcurve"/>
      <point x="664.0" y="859.6"/>
      <point x="581.4" y="858.2" type="qcurve"/>
      <point x="478.4" y="861.0"/>
      <point x="413.4" y="798.4" type="qcurve"/>
      <point x="349.2" y="737.2"/>
      <point x="348.2" y="641.4" type="qcurve"/>
      <point x="348.2" y="0.0" type="line"/>
      <point x="152.2" y="0.0" type="line"/>
      <point x="152.2" y="1016.4" type="line"/>
      <point x="348.2" y="1016.4" type="line"/>
      <point x="348.2" y="972.2" type="line"/>
      <point x="336.2" y="947.0"/>
      <point x="417.0" y="991.4" type="qcurve"/>
      <point x="498.0" y="1042.4"/>
      <point x="599.4" y="1040.8" type="qcurve"/>
      <point x="717.6" y="1040.8"/>
      <point x="804.2" y="980.8" type="qcurve"/>
      <point x="893.4" y="921.4"/>
      <point x="907.0" y="887.8" type="qcurve"/>
      <point x="918.8" y="921.4"/>
      <point x="1010.6" y="978.4" type="qcurve"/>
      <point x="1103.2" y="1040.8"/>
    </contour>
  </outline>
</glyph>
<glyph name="r" format="2">
  <advance width="786.8"/>
  <unicode hex="0072"/>
  <outline>
    <contour>
      <point x="361.2" y="932.8" type="line"/>
      <point x="354.0" y="918.2"/>
      <point x="461.2" y="977.0" type="qcurve"/>
      <point x="566.6" y="1041.8"/>
      <point x="732.8" y="1040.8" type="qcurve"/>
      <point x="732.8" y="858.2" type="line"/>
      <point x="603.8" y="858.2"/>
      <point x="524.8" y="821.4" type="qcurve"/>
      <point x="451.0" y="785.2"/>
      <point x="406.6" y="716.8" type="qcurve"/>
      <point x="361.6" y="649.8"/>
      <point x="361.2" y="565.8" type="qcurve"/>
      <point x="361.2" y="0.0" type="line"/>
      <point x="166.6" y="0.0" type="line"/>
      <point x="166.6" y="1016.4" type="line"/>
      <point x="361.2" y="1016.4" type="line"/>
    </contour>
  </outline>
</glyph>
<glyph name="s" format="2">
  <advance width="1020.2"/>
  <unicode hex="0073"/>
  <outline>
    <contour>
      <point x="899.2" y="866.0" type="qcurve"/>
      <point x="760.8" y="724.8" type="line"/>
      <point x="640.4" y="852.8"/>
      <point x="504.4" y="858.2" type="qcurve"/>
      <point x="358.2" y="852.8"/>
      <point x="344.2" y="745.4" type="qcurve"/>
      <point x="344.2" y="684.2"/>
      <point x="388.6" y="663.6" type="qcurve"/>
      <point x="449.6" y="637.0"/>
      <point x="557.4" y="600.8" type="qcurve"/>
      <point x="746.0" y="556.0"/>
      <point x="828.2" y="495.2" type="qcurve"/>
      <point x="918.2" y="431.2"/>
      <point x="918.2" y="292.4" type="qcurve"/>
      <point x="895.0" y="-6.8"/>
      <point x="557.6" y="-22.4" type="qcurve"/>
      <point x="275.2" y="-21.4"/>
      <point x="102.2" y="169.4" type="qcurve"/>
      <point x="242.8" y="312.6" type="line"/>
      <point x="372.4" y="157.8"/>
      <point x="557.6" y="159.8" type="qcurve"/>
      <point x="703.8" y="155.0"/>
      <point x="721.2" y="294.8" type="qcurve"/>
      <point x="721.2" y="380.4"/>
      <point x="506.4" y="420.0" type="qcurve"/>
      <point x="313.8" y="465.0"/>
      <point x="232.4" y="533.8" type="qcurve"/>
      <point x="147.2" y="609.4"/>
      <point x="147.2" y="747.2" type="qcurve"/>
      <point x="147.2" y="869.4"/>
      <point x="259.4" y="955.8" type="qcurve"/>
      <point x="368.6" y="1040.8"/>
      <point x="520.4" y="1040.8" type="qcurve"/>
      <point x="644.8" y="1033.2"/>
      <point x="723.0" y="996.6" type="qcurve"/>
      <point x="803.8" y="962.0"/>
    </contour>
  </outline>
</glyph>
<glyph name="t" format="2">
  <advance width="759.8"/>
  <unicode hex="0074"/>
  <outline>
    <contour>
      <point x="276.4" y="0.0" type="line"/>
      <point x="276.4" y="837.8" type="line"/>
      <point x="81.6" y="837.8" type="line"/>
      <point x="81.6" y="1016.4" type="line"/>
      <point x="276.4" y="1016.4" type="line"/>
      <point x="276.4" y="1277.8" type="line"/>
      <point x="471.0" y="1277.8" type="line"/>
      <point x="471.0" y="1016.4" type="line"/>
      <point x="665.8" y="1016.4" type="line"/>
      <point x="665.8" y="837.8" type="line"/>
      <point x="471.0" y="837.8" type="line"/>
      <point x="471.0" y="0.0" type="line"/>
    </contour>
  </outline>
</glyph>
<glyph name="u" format="2">
  <advance width="1174.0"/>
  <unicode hex="0075"/>
  <outline>
    <contour>
      <point x="537.2" y="-24.4" type="qcurve"/>
      <point x="424.0" y="-24.8"/>
      <point x="337.0" y="27.4" type="qcurve"/>
      <point x="245.4" y="77.8"/>
      <point x="198.6" y="169.0" type="qcurve"/>
      <point x="146.2" y="259.0"/>
      <point x="148.2" y="376.6" type="qcurve"/>
      <point x="148.2" y="1016.4" type="line"/>
      <point x="343.8" y="1016.4" type="line"/>
      <point x="343.8" y="395.4" type="line"/>
      <point x="344.8" y="287.4"/>
      <point x="403.6" y="222.8" type="qcurve"/>
      <point x="460.4" y="158.8"/>
      <point x="554.6" y="159.8" type="qcurve"/>
      <point x="627.0" y="159.8"/>
      <point x="691.8" y="188.2" type="qcurve"/>
      <point x="752.6" y="215.8"/>
      <point x="791.2" y="272.0" type="qcurve"/>
      <point x="826.0" y="319.0"/>
      <point x="825.0" y="375.4" type="qcurve"/>
      <point x="825.0" y="1016.4" type="line"/>
      <point x="1021.0" y="1016.4" type="line"/>
      <point x="1021.0" y="0.0" type="line"/>
      <point x="825.0" y="0.0" type="line"/>
      <point x="825.0" y="68.2" type="line"/>
      <point x="833.4" y="84.8"/>
      <point x="738.4" y="31.4" type="qcurve"/>
      <point x="646.4" y="-24.4"/>
    </contour>
  </outline>
</glyph>
<glyph name="v" format="2">
  <advance width="1128.6"/>
  <unicode hex="0076"/>
  <outline>
    <contour>
      <point x="48.8" y="1016.4" type="line"/>
      <point x="265.2" y="1016.4" type="line"/>
      <point x="565.4" y="268.4" type="line"/>
      <point x="860.8" y="1016.4" type="line"/>
      <point x="1078.6" y="1016.4" type="line"/>
      <point x="652.2" y="0.0" type="line"/>
      <point x="482.8" y="0.0" type="line"/>
    </contour>
  </outline>
</glyph>
<glyph name="x" format="2">
  <advance width="1122.2"/>
  <unicode hex="0078"/>
  <outline>
    <contour>
      <point x="827.4" y="0.0" type="line"/>
      <point x="551.6" y="365.0" type="line"/>
      <point x="277.2" y="0.0" type="line"/>
      <point x="42.400000000000006" y="0.0" type="line"/>
      <point x="435.2" y="518.2" type="line"/>
      <point x="57.8" y="1016.4" type="line"/>
      <point x="292.6" y="1016.4" type="line"/>
      <point x="551.6" y="673.8" type="line"/>
      <point x="812.0" y="1016.4" type="line"/>
      <point x="1046.8" y="1016.4" type="line"/>
      <point x="670.0" y="518.2" type="line"/>
      <point x="1060.2" y="0.0" type="line"/>
    </contour>
  </outline>
</glyph>
<glyph name="y" format="2">
  <advance width="1187.4"/>
  <unicode hex="0079"/>
  <outline>
    <contour>
      <point x="337.8" y="-365.2" type="line"/>
      <point x="489.6" y="27.599999999999998" type="line"/>
      <point x="52.2" y="1016.4" type="line"/>
      <point x="268.6" y="1016.4" type="line"/>
      <point x="589.2" y="268.6" type="line"/>
      <point x="885.8" y="1016.4" type="line"/>
      <point x="1098.4" y="1016.4" type="line"/>
      <point x="533.4" y="-365.2" type="line"/>
    </contour>
  </outline>
</glyph>
<glyph name="z" format="2">
  <advance width="1027.6"/>
  <unicode hex="007A"/>
  <outline>
    <contour>
      <point x="111.0" y="146.6" type="line"/>
      <point x="648.4" y="829.8" type="line"/>
      <point x="123.4" y="829.8" type="line"/>
      <point x="123.4" y="1016.4" type="line"/>
      <point x="923.2" y="1016.4" type="line"/>
      <point x="923.2" y="868.8" type="line"/>
      <point x="383.2" y="186.6" type="line"/>
      <point x="926.6" y="186.6" type="line"/>
      <point x="926.6" y="0.0" type="line"/>
      <point x="111.0" y="0.0" type="line"/>
    </contour>
  </outline>
</glyph>
<glyph name="braceleft" format="2">
  <advance width="806.0"/>
  <unicode hex="007B"/>
  <outline>
    <contour>
      <point x="362.6" y="587.6" type="qcurve"/>
      <point x="379.4" y="581.8"/>
      <point x="416.0" y="523.2" type="qcurve"/>
      <point x="452.6" y="464.4"/>
      <point x="454.6" y="374.0" type="qcurve"/>
      <point x="452.6" y="41.599999999999994" type="line"/>
      <point x="452.6" y="-28.800000000000004"/>
      <point x="468.4" y="-62.0" type="qcurve"/>
      <point x="487.0" y="-94.2"/>
      <point x="530.2" y="-113.4" type="qcurve"/>
      <point x="582.2" y="-137.0"/>
      <point x="719.4" y="-154.4" type="qcurve"/>
      <point x="701.4" y="-311.6" type="line"/>
      <point x="528.0" y="-290.6"/>
      <point x="440.4" y="-252.0" type="qcurve"/>
      <point x="348.4" y="-215.6"/>
      <point x="309.8" y="-141.0" type="qcurve"/>
      <point x="275.4" y="-72.2"/>
      <point x="275.4" y="34.2" type="qcurve"/>
      <point x="275.4" y="357.6" type="line"/>
      <point x="275.4" y="440.6"/>
      <point x="240.0" y="475.0" type="qcurve"/>
      <point x="210.2" y="506.8"/>
      <point x="93.6" y="506.4" type="qcurve"/>
      <point x="93.6" y="664.6" type="line"/>
      <point x="210.8" y="665.6"/>
      <point x="240.6" y="696.0" type="qcurve"/>
      <point x="275.4" y="731.8"/>
      <point x="275.4" y="812.8" type="qcurve"/>
      <point x="275.4" y="1136.8" type="line"/>
      <point x="275.4" y="1244.8"/>
      <point x="309.2" y="1312.0" type="qcurve"/>
      <point x="347.8" y="1387.6"/>
      <point x="440.4" y="1424.0" type="qcurve"/>
      <point x="528.0" y="1463.0"/>
      <point x="701.4" y="1482.0" type="qcurve"/>
      <point x="720.0" y="1328.4" type="line"/>
      <point x="583.4" y="1309.4"/>
      <point x="530.8" y="1285.0" type="qcurve"/>
      <point x="486.4" y="1265.2"/>
      <point x="469.0" y="1233.0" type="qcurve"/>
      <point x="452.6" y="1200.8"/>
      <point x="452.6" y="1128.8" type="qcurve"/>
      <point x="454.6" y="795.8" type="line"/>
      <point x="452.6" y="708.6"/>
      <point x="416.0" y="647.2" type="qcurve"/>
      <point x="375.8" y="593.2"/>
    </contour>
  </outline>
</glyph>
<glyph name="bar" format="2">
  <advance width="592.0"/>
  <unicode hex="007C"/>
  <outline>
    <contour>
      <point x="215.8" y="1459.2" type="line"/>
      <point x="383.0" y="1459.2" type="line"/>
      <point x="383.0" y="-136.2" type="line"/>
      <point x="215.8" y="-136.2" type="line"/>
    </contour>
  </outline>
</glyph>
<glyph name="braceright" format="2">
  <advance width="802.4"/>
  <unicode hex="007D"/>
  <outline>
    <contour>
      <point x="450.0" y="584.0" type="qcurve"/>
      <point x="432.6" y="591.2"/>
      <point x="396.4" y="647.8" type="qcurve"/>
      <point x="362.0" y="708.6"/>
      <point x="358.4" y="795.8" type="qcurve"/>
      <point x="360.4" y="1128.8" type="line"/>
      <point x="360.4" y="1200.2"/>
      <point x="343.6" y="1233.6" type="qcurve"/>
      <point x="327.4" y="1265.2"/>
      <point x="281.8" y="1284.4" type="qcurve"/>
      <point x="231.2" y="1309.0"/>
      <point x="92.0" y="1324.8" type="qcurve"/>
      <point x="110.0" y="1482.0" type="line"/>
      <point x="285.0" y="1463.0"/>
      <point x="372.2" y="1424.6" type="qcurve"/>
      <point x="464.6" y="1387.6"/>
      <point x="502.8" y="1312.0" type="qcurve"/>
      <point x="537.6" y="1244.8"/>
      <point x="537.6" y="1136.8" type="qcurve"/>
      <point x="537.6" y="812.8" type="line"/>
      <point x="537.6" y="731.8"/>
      <point x="573.0" y="696.0" type="qcurve"/>
      <point x="603.8" y="665.6"/>
      <point x="718.4" y="664.6" type="qcurve"/>
      <point x="718.4" y="506.4" type="line"/>
      <point x="603.8" y="506.8"/>
      <point x="573.0" y="475.0" type="qcurve"/>
      <point x="537.6" y="440.6"/>
      <point x="537.6" y="357.6" type="qcurve"/>
      <point x="537.6" y="34.2" type="line"/>
      <point x="537.6" y="-72.8"/>
      <point x="502.2" y="-141.0" type="qcurve"/>
      <point x="464.6" y="-215.6"/>
      <point x="371.6" y="-252.6" type="qcurve"/>
      <point x="285.0" y="-290.6"/>
      <point x="110.0" y="-311.6" type="qcurve"/>
      <point x="92.0" y="-157.0" type="line"/>
      <point x="230.6" y="-138.0"/>
      <point x="281.2" y="-113.4" type="qcurve"/>
      <point x="328.0" y="-94.2"/>
      <point x="343.0" y="-62.6" type="qcurve"/>
      <point x="360.4" y="-28.800000000000004"/>
      <point x="360.4" y="41.599999999999994" type="qcurve"/>
      <point x="358.4" y="374.6" type="line"/>
      <point x="361.4" y="464.4"/>
      <point x="397.0" y="523.2" type="qcurve"/>
      <point x="436.6" y="579.8"/>
    </contour>
  </outline>
</glyph>
<glyph name="asciitilde" format="2">
  <advance width="903.6"/>
  <unicode hex="007E"/>
  <outline>
    <contour>
      <point x="574.4" y="557.0" type="qcurve"/>
      <point x="525.8" y="557.0"/>
      <point x="491.2" y="580.8" type="qcurve"/>
      <point x="464.4" y="599.2"/>
      <point x="413.2" y="633.2" type="qcurve"/>
      <point x="387.4" y="661.6"/>
      <point x="364.8" y="669.4" type="qcurve"/>
      <point x="352.2" y="680.8"/>
      <point x="332.4" y="679.8" type="qcurve"/>
      <point x="311.6" y="680.2"/>
      <point x="299.2" y="661.4" type="qcurve"/>
      <point x="281.4" y="637.4"/>
      <point x="264.8" y="549.4" type="qcurve"/>
      <point x="123.2" y="571.8" type="line"/>
      <point x="162.8" y="845.0"/>
      <point x="332.4" y="845.0" type="qcurve"/>
      <point x="381.6" y="845.0"/>
      <point x="413.8" y="824.0" type="qcurve"/>
      <point x="447.4" y="807.4"/>
      <point x="495.0" y="769.4" type="qcurve"/>
      <point x="526.8" y="742.6"/>
      <point x="544.4" y="729.4" type="qcurve"/>
      <point x="558.8" y="720.8"/>
      <point x="574.4" y="720.8" type="qcurve"/>
      <point x="597.2" y="720.8"/>
      <point x="610.8" y="741.8" type="qcurve"/>
      <point x="631.4" y="765.8"/>
      <point x="642.8" y="852.6" type="qcurve"/>
      <point x="783.6" y="830.2" type="line"/>
      <point x="748.2" y="557.0"/>
    </contour>
  </outline>
</glyph>
<glyph name="exclamdown" format="2">
  <advance width="579.8"/>
  <unicode hex="00A1"/>
  <outline>
    <contour>
      <point x="291.2" y="1040.8" type="qcurve"/>
      <point x="345.4" y="1042.4"/>
      <point x="382.6" y="1002.0" type="qcurve"/>
      <point x="421.2" y="966.0"/>
      <point x="422.8" y="909.2" type="qcurve"/>
      <point x="421.2" y="859.0"/>
      <point x="382.6" y="821.4" type="qcurve"/>
      <point x="345.4" y="782.6"/>
      <point x="291.2" y="782.6" type="qcurve"/>
      <point x="241.0" y="782.6"/>
      <point x="202.8" y="821.4" type="qcurve"/>
      <point x="164.6" y="859.6"/>
      <point x="164.6" y="908.6" type="qcurve"/>
      <point x="162.0" y="964.8"/>
      <point x="200.8" y="1002.0" type="qcurve"/>
      <point x="239.0" y="1042.4"/>
    </contour>
    <contour>
      <point x="403.6" y="-316.0" type="line"/>
      <point x="175.4" y="-316.0" type="line"/>
      <point x="215.0" y="659.2" type="line"/>
      <point x="366.4" y="659.2" type="line"/>
    </contour>
  </outline>
</glyph>
<glyph name="cent" format="2">
  <advance width="1089.6"/>
  <unicode hex="00A2"/>
  <outline>
    <contour>
      <point x="1015.6" y="151.8" type="qcurve"/>
      <point x="930.6" y="68.4"/>
      <point x="850.8" y="28.8" type="qcurve"/>
      <point x="771.0" y="-7.4"/>
      <point x="705.0" y="-15.8" type="qcurve"/>
      <point x="705.0" y="-136.2" type="line"/>
      <point x="502.0" y="-136.2" type="line"/>
      <point x="502.0" y="-8.0" type="line"/>
      <point x="407.8" y="13.2"/>
      <point x="309.6" y="88.4" type="qcurve"/>
      <point x="215.8" y="164.6"/>
      <point x="158.2" y="275.0" type="qcurve"/>
      <point x="103.0" y="385.8"/>
      <point x="103.0" y="508.2" type="qcurve"/>
      <point x="101.0" y="632.0"/>
      <point x="156.2" y="742.4" type="qcurve"/>
      <point x="213.4" y="852.2"/>
      <point x="307.6" y="929.4" type="qcurve"/>
      <point x="408.4" y="1007.2"/>
      <point x="502.0" y="1026.0" type="qcurve"/>
      <point x="502.0" y="1151.6" type="line"/>
      <point x="705.0" y="1151.6" type="line"/>
      <point x="705.0" y="1037.0" type="line"/>
      <point x="767.6" y="1033.2"/>
      <point x="848.0" y="990.6" type="qcurve"/>
      <point x="926.6" y="953.4"/>
      <point x="1010.2" y="869.4" type="qcurve"/>
      <point x="872.8" y="734.2" type="line"/>
      <point x="779.6" y="840.6"/>
      <point x="705.0" y="850.0" type="qcurve"/>
      <point x="705.0" y="167.8" type="line"/>
      <point x="780.6" y="183.2"/>
      <point x="877.4" y="288.6" type="qcurve"/>
      <point x="928.8" y="238.8"/>
      <point x="945.6" y="220.4" type="qcurve"/>
      <point x="963.8" y="203.6"/>
    </contour>
    <contour>
      <point x="306.0" y="508.2" type="qcurve"/>
      <point x="304.0" y="393.0"/>
      <point x="372.2" y="298.8" type="qcurve"/>
      <point x="439.8" y="206.8"/>
      <point x="502.0" y="184.6" type="qcurve"/>
      <point x="502.0" y="833.6" type="line"/>
      <point x="439.8" y="813.6"/>
      <point x="372.2" y="719.6" type="qcurve"/>
      <point x="304.0" y="626.4"/>
    </contour>
  </outline>
</glyph>
<glyph name="sterling" format="2">
  <advance width="1311.8"/>
  <unicode hex="00A3"/>
  <outline>
    <contour>
      <point x="1223.8" y="192.6" type="line"/>
      <point x="1223.8" y="0.0" type="line"/>
      <point x="112.4" y="0.0" type="line"/>
      <point x="112.4" y="111.6" type="line"/>
      <point x="248.6" y="184.2" type="line"/>
      <point x="248.6" y="537.2" type="line"/>
      <point x="118.4" y="537.2" type="line"/>
      <point x="118.4" y="718.8" type="line"/>
      <point x="248.6" y="718.8" type="line"/>
      <point x="248.6" y="974.8" type="line"/>
      <point x="248.6" y="1123.6"/>
      <point x="306.8" y="1236.4" type="qcurve"/>
      <point x="368.0" y="1353.4"/>
      <point x="473.0" y="1417.2" type="qcurve"/>
      <point x="581.0" y="1482.0"/>
      <point x="716.0" y="1482.0" type="qcurve"/>
      <point x="864.4" y="1485.0"/>
      <point x="989.2" y="1413.4" type="qcurve"/>
      <point x="1118.8" y="1348.6"/>
      <point x="1177.0" y="1222.6" type="qcurve"/>
      <point x="1022.2" y="1074.6" type="line"/>
      <point x="989.2" y="1189.8"/>
      <point x="905.2" y="1240.6" type="qcurve"/>
      <point x="823.4" y="1296.4"/>
      <point x="716.6" y="1296.4" type="qcurve"/>
      <point x="600.6" y="1297.4"/>
      <point x="525.0" y="1206.2" type="qcurve"/>
      <point x="448.6" y="1120.0"/>
      <point x="448.6" y="974.8" type="qcurve"/>
      <point x="448.6" y="718.8" type="line"/>
      <point x="866.0" y="718.8" type="line"/>
      <point x="866.0" y="537.2" type="line"/>
      <point x="448.6" y="537.2" type="line"/>
      <point x="448.6" y="192.6" type="line"/>
    </contour>
  </outline>
</glyph>
<glyph name="yen" format="2">
  <advance width="1439.4"/>
  <unicode hex="00A5"/>
  <outline>
    <contour>
      <point x="906.0" y="721.8" type="line"/>
      <point x="1245.6" y="721.8" type="line"/>
      <point x="1245.6" y="538.6" type="line"/>
      <point x="818.8" y="538.6" type="line"/>
      <point x="818.8" y="417.2" type="line"/>
      <point x="1245.6" y="417.2" type="line"/>
      <point x="1245.6" y="236.0" type="line"/>
      <point x="818.8" y="236.0" type="line"/>
      <point x="818.8" y="0.0" type="line"/>
      <point x="608.4" y="0.0" type="line"/>
      <point x="608.4" y="236.0" type="line"/>
      <point x="183.0" y="236.0" type="line"/>
      <point x="183.0" y="417.2" type="line"/>
      <point x="608.4" y="417.2" type="line"/>
      <point x="608.4" y="538.6" type="line"/>
      <point x="183.0" y="538.6" type="line"/>
      <point x="183.0" y="721.8" type="line"/>
      <point x="521.6" y="721.8" type="line"/>
      <point x="19.200000000000003" y="1460.2" type="line"/>
      <point x="267.0" y="1460.2" type="line"/>
      <point x="714.6" y="786.8" type="line"/>
      <point x="1163.6" y="1460.2" type="line"/>
      <point x="1408.4" y="1460.2" type="line"/>
    </contour>
  </outline>
</glyph>
<glyph name="dieresis" format="2">
  <advance width="836.0"/>
  <unicode hex="00A8"/>
  <unicode hex="0308"/>
  <outline>
    <contour>
      <point x="240.0" y="1336.4" type="qcurve"/>
      <point x="287.8" y="1336.4"/>
      <point x="320.4" y="1303.2" type="qcurve"/>
      <point x="355.2" y="1270.0"/>
      <point x="355.2" y="1222.4" type="qcurve"/>
      <point x="356.8" y="1175.0"/>
      <point x="321.4" y="1141.8" type="qcurve"/>
      <point x="287.2" y="1108.6"/>
      <point x="240.0" y="1108.6" type="qcurve"/>
      <point x="195.4" y="1108.6"/>
      <point x="160.6" y="1140.8" type="qcurve"/>
      <point x="127.4" y="1175.6"/>
      <point x="127.4" y="1221.2" type="qcurve"/>
      <point x="125.8" y="1268.4"/>
      <point x="159.6" y="1302.2" type="qcurve"/>
      <point x="194.4" y="1336.4"/>
    </contour>
    <contour>
      <point x="597.8" y="1336.4" type="qcurve"/>
      <point x="645.6" y="1336.4"/>
      <point x="678.2" y="1303.2" type="qcurve"/>
      <point x="713.0" y="1270.0"/>
      <point x="713.0" y="1223.8" type="qcurve"/>
      <point x="713.0" y="1177.6"/>
      <point x="679.8" y="1142.8" type="qcurve"/>
      <point x="646.0" y="1108.6"/>
      <point x="597.8" y="1108.6" type="qcurve"/>
      <point x="551.0" y="1108.6"/>
      <point x="518.2" y="1142.4" type="qcurve"/>
      <point x="486.6" y="1178.2"/>
      <point x="486.6" y="1223.8" type="qcurve"/>
      <point x="486.6" y="1268.4"/>
      <point x="517.2" y="1301.6" type="qcurve"/>
      <point x="551.0" y="1336.4"/>
    </contour>
  </outline>
</glyph>
<glyph name="guillemotleft" format="2">
  <advance width="1064.2"/>
  <unicode hex="00AB"/>
  <outline>
    <contour>
      <point x="87.2" y="495.4" type="line"/>
      <point x="411.6" y="893.8" type="line"/>
      <point x="597.0" y="849.0" type="line"/>
      <point x="309.8" y="496.2" type="line"/>
      <point x="595.8" y="140.2" type="line"/>
      <point x="411.6" y="90.8" type="line"/>
    </contour>
    <contour>
      <point x="454.4" y="495.4" type="line"/>
      <point x="778.8" y="893.8" type="line"/>
      <point x="964.2" y="849.0" type="line"/>
      <point x="677.0" y="496.2" type="line"/>
      <point x="963.0" y="140.2" type="line"/>
      <point x="778.8" y="90.8" type="line"/>
    </contour>
  </outline>
</glyph>
<glyph name="macron" format="2">
  <advance width="882.6"/>
  <unicode hex="00AF"/>
  <outline>
    <contour>
      <point x="128.8" y="1264.4" type="line"/>
      <point x="762.6" y="1264.4" type="line"/>
      <point x="762.6" y="1104.6" type="line"/>
      <point x="128.8" y="1104.6" type="line"/>
    </contour>
  </outline>
</glyph>
<glyph name="paragraph" format="2">
  <advance width="1306.6"/>
  <unicode hex="00B6"/>
  <outline>
    <contour>
      <point x="558.2" y="614.8" type="line"/>
      <point x="435.2" y="617.2"/>
      <point x="322.0" y="665.8" type="qcurve"/>
      <point x="211.0" y="721.6"/>
      <point x="144.6" y="816.0" type="qcurve"/>
      <point x="81.6" y="910.2"/>
      <point x="81.6" y="1035.4" type="qcurve"/>
      <point x="81.6" y="1160.0"/>
      <point x="142.0" y="1256.2" type="qcurve"/>
      <point x="204.4" y="1355.2"/>
      <point x="310.4" y="1405.0" type="qcurve"/>
      <point x="415.8" y="1460.2"/>
      <point x="549.6" y="1460.2" type="qcurve"/>
      <point x="1096.6" y="1460.2" type="line"/>
      <point x="1096.6" y="-104.8" type="line"/>
      <point x="928.4" y="-104.8" type="line"/>
      <point x="928.4" y="1301.4" type="line"/>
      <point x="729.4" y="1301.4" type="line"/>
      <point x="729.4" y="-104.8" type="line"/>
      <point x="558.2" y="-104.8" type="line"/>
    </contour>
  </outline>
</glyph>
<glyph name="periodcentered" format="2">
  <advance width="516.0"/>
  <unicode hex="00B7"/>
  <outline>
    <contour>
      <point x="264.4" y="410.4" type="qcurve"/>
      <point x="214.8" y="410.4"/>
      <point x="174.4" y="446.6" type="qcurve"/>
      <point x="139.8" y="484.4"/>
      <point x="138.8" y="534.0" type="qcurve"/>
      <point x="139.8" y="586.2"/>
      <point x="174.4" y="623.4" type="qcurve"/>
      <point x="214.8" y="662.8"/>
      <point x="264.4" y="659.2" type="qcurve"/>
      <point x="314.0" y="662.8"/>
      <point x="349.4" y="625.4" type="qcurve"/>
      <point x="387.0" y="588.8"/>
      <point x="387.0" y="534.0" type="qcurve"/>
      <point x="387.0" y="483.8"/>
      <point x="349.4" y="447.2" type="qcurve"/>
      <point x="315.2" y="410.4"/>
    </contour>
  </outline>
</glyph>
<glyph name="cedilla" format="2">
  <advance width="653.6"/>
  <unicode hex="00B8"/>
  <unicode hex="0327"/>
  <outline>
    <contour>
      <point x="376.0" y="-28.6" type="qcurve"/>
      <point x="443.2" y="-25.0"/>
      <point x="486.8" y="-67.6" type="qcurve"/>
      <point x="537.2" y="-109.80000000000001"/>
      <point x="533.6" y="-178.2" type="qcurve"/>
      <point x="533.6" y="-257.4"/>
      <point x="468.6" y="-308.0" type="qcurve"/>
      <point x="411.2" y="-354.8"/>
      <point x="321.6" y="-355.8" type="qcurve"/>
      <point x="273.6" y="-355.8"/>
      <point x="223.6" y="-340.6" type="qcurve"/>
      <point x="175.2" y="-322.0"/>
      <point x="121.6" y="-286.6" type="qcurve"/>
      <point x="182.0" y="-156.2" type="line"/>
      <point x="258.6" y="-212.0"/>
      <point x="316.2" y="-214.4" type="qcurve"/>
      <point x="345.2" y="-214.4"/>
      <point x="363.2" y="-200.6" type="qcurve"/>
      <point x="379.6" y="-188.2"/>
      <point x="377.8" y="-171.6" type="qcurve"/>
      <point x="379.0" y="-154.0"/>
      <point x="370.6" y="-148.0" type="qcurve"/>
      <point x="356.8" y="-134.2"/>
      <point x="332.4" y="-134.2" type="qcurve"/>
      <point x="310.2" y="-133.8"/>
      <point x="269.4" y="-166.2" type="qcurve"/>
      <point x="209.6" y="-102.0" type="line"/>
      <point x="285.0" y="75.8" type="line"/>
      <point x="440.0" y="75.8" type="line"/>
      <point x="408.8" y="0.0" type="line"/>
      <point x="358.6" y="-25.400000000000006"/>
    </contour>
  </outline>
</glyph>
<glyph name="guillemotright" format="2">
  <advance width="1049.8"/>
  <unicode hex="00BB"/>
  <outline>
    <contour>
      <point x="85.4" y="140.8" type="line"/>
      <point x="373.4" y="496.2" type="line"/>
      <point x="84.2" y="849.0" type="line"/>
      <point x="273.8" y="893.8" type="line"/>
      <point x="596.0" y="494.8" type="line"/>
      <point x="273.2" y="90.8" type="line"/>
    </contour>
    <contour>
      <point x="458.8" y="140.8" type="line"/>
      <point x="742.2" y="496.8" type="line"/>
      <point x="457.6" y="849.0" type="line"/>
      <point x="640.4" y="894.4" type="line"/>
      <point x="963.8" y="494.8" type="line"/>
      <point x="639.8" y="90.8" type="line"/>
    </contour>
  </outline>
</glyph>
<glyph name="questiondown" format="2">
  <advance width="1022.0"/>
  <unicode hex="00BF"/>
  <outline>
    <contour>
      <point x="566.0" y="1040.8" type="qcurve"/>
      <point x="621.2" y="1041.8"/>
      <point x="658.8" y="1002.6" type="qcurve"/>
      <point x="697.6" y="965.4"/>
      <point x="697.6" y="909.2" type="qcurve"/>
      <point x="697.6" y="859.0"/>
      <point x="658.8" y="821.4" type="qcurve"/>
      <point x="620.6" y="782.6"/>
      <point x="566.0" y="782.6" type="qcurve"/>
      <point x="514.2" y="782.6"/>
      <point x="479.0" y="821.4" type="qcurve"/>
      <point x="442.4" y="859.0"/>
      <point x="441.4" y="908.6" type="qcurve"/>
      <point x="440.4" y="964.8"/>
      <point x="477.0" y="1002.0" type="qcurve"/>
      <point x="514.8" y="1041.8"/>
    </contour>
    <contour>
      <point x="669.2" y="256.8" type="line"/>
      <point x="540.8" y="246.6"/>
      <point x="459.4" y="213.6" type="qcurve"/>
      <point x="385.0" y="185.0"/>
      <point x="339.4" y="135.2" type="qcurve"/>
      <point x="298.0" y="93.8"/>
      <point x="298.0" y="43.599999999999994" type="qcurve"/>
      <point x="298.0" y="-3.8000000000000043"/>
      <point x="324.2" y="-51.800000000000004" type="qcurve"/>
      <point x="352.6" y="-94.80000000000001"/>
      <point x="401.8" y="-120.6" type="qcurve"/>
      <point x="454.0" y="-148.8"/>
      <point x="518.8" y="-148.8" type="qcurve"/>
      <point x="611.4" y="-147.8"/>
      <point x="677.8" y="-107.80000000000001" type="qcurve"/>
      <point x="752.6" y="-61.4"/>
      <point x="836.4" y="40.39999999999999" type="qcurve"/>
      <point x="970.0" y="-94.2" type="line"/>
      <point x="777.0" y="-335.4"/>
      <point x="510.8" y="-338.4" type="qcurve"/>
      <point x="390.4" y="-335.4"/>
      <point x="297.0" y="-289.2" type="qcurve"/>
      <point x="203.4" y="-242.4"/>
      <point x="146.4" y="-156.2" type="qcurve"/>
      <point x="95.6" y="-70.6"/>
      <point x="95.6" y="30.2" type="qcurve"/>
      <point x="95.6" y="119.0"/>
      <point x="144.4" y="201.8" type="qcurve"/>
      <point x="197.8" y="281.6"/>
      <point x="286.6" y="337.0" type="qcurve"/>
      <point x="377.8" y="395.0"/>
      <point x="467.2" y="414.2" type="qcurve"/>
      <point x="467.2" y="659.2" type="line"/>
      <point x="669.2" y="659.2" type="line"/>
    </contour>
  </outline>
</glyph>
<glyph name="Aacute" format="2">
  <advance width="1386.2"/>
  <unicode hex="00C1"/>
  <outline>
    <contour>
      <point x="595.4" y="1460.2" type="line"/>
      <point x="793.0" y="1460.2" type="line"/>
      <point x="1322.2" y="0.0" type="line"/>
      <point x="1107.2" y="0.0" type="line"/>
      <point x="962.6" y="403.0" type="line"/>
      <point x="424.8" y="403.0" type="line"/>
      <point x="277.2" y="0.0" type="line"/>
      <point x="60.6" y="0.0" type="line"/>
    </contour>
    <contour>
      <point x="694.2" y="1136.2" type="line"/>
      <point x="495.0" y="594.6" type="line"/>
      <point x="892.4" y="594.6" type="line"/>
    </contour>
    <contour>
      <point x="718.8" y="1828.4" type="line"/>
      <point x="935.0" y="1778.4" type="line"/>
      <point x="623.0" y="1502.2" type="line"/>
      <point x="443.8" y="1502.2" type="line"/>
    </contour>
  </outline>
</glyph>
<glyph name="Atilde" format="2">
  <advance width="1386.2"/>
  <unicode hex="00C3"/>
  <outline>
    <contour>
      <point x="595.4" y="1460.2" type="line"/>
      <point x="793.0" y="1460.2" type="line"/>
      <point x="1322.2" y="0.0" type="line"/>
      <point x="1107.2" y="0.0" type="line"/>
      <point x="962.6" y="403.0" type="line"/>
      <point x="424.8" y="403.0" type="line"/>
      <point x="277.2" y="0.0" type="line"/>
      <point x="60.6" y="0.0" type="line"/>
    </contour>
    <contour>
      <point x="694.2" y="1136.2" type="line"/>
      <point x="495.0" y="594.6" type="line"/>
      <point x="892.4" y="594.6" type="line"/>
    </contour>
    <contour>
      <point x="812.2" y="1505.6" type="qcurve"/>
      <point x="763.0" y="1503.0"/>
      <point x="725.2" y="1526.4" type="qcurve"/>
      <point x="697.2" y="1547.8"/>
      <point x="647.8" y="1582.4" type="qcurve"/>
      <point x="621.6" y="1610.8"/>
      <point x="600.8" y="1620.0" type="qcurve"/>
      <point x="587.6" y="1630.2"/>
      <point x="570.2" y="1628.4" type="qcurve"/>
      <point x="549.8" y="1628.8"/>
      <point x="534.0" y="1608.2" type="qcurve"/>
      <point x="515.4" y="1586.0"/>
      <point x="498.8" y="1498.6" type="qcurve"/>
      <point x="359.8" y="1517.2" type="line"/>
      <point x="396.8" y="1791.6"/>
      <point x="568.4" y="1791.6" type="qcurve"/>
      <point x="613.4" y="1794.2"/>
      <point x="649.8" y="1772.0" type="qcurve"/>
      <point x="684.0" y="1754.6"/>
      <point x="731.0" y="1716.0" type="qcurve"/>
      <point x="762.2" y="1689.8"/>
      <point x="778.0" y="1679.2" type="qcurve"/>
      <point x="795.6" y="1670.8"/>
      <point x="810.4" y="1670.8" type="qcurve"/>
      <point x="833.8" y="1671.2"/>
      <point x="846.8" y="1689.8" type="qcurve"/>
      <point x="865.0" y="1713.2"/>
      <point x="880.0" y="1798.6" type="qcurve"/>
      <point x="1019.6" y="1780.0" type="line"/>
      <point x="984.2" y="1507.6"/>
    </contour>
  </outline>
</glyph>
<glyph name="Adieresis" format="2">
  <advance width="1386.2"/>
  <unicode hex="00C4"/>
  <outline>
    <contour>
      <point x="595.4" y="1460.2" type="line"/>
      <point x="793.0" y="1460.2" type="line"/>
      <point x="1322.2" y="0.0" type="line"/>
      <point x="1107.2" y="0.0" type="line"/>
      <point x="962.6" y="403.0" type="line"/>
      <point x="424.8" y="403.0" type="line"/>
      <point x="277.2" y="0.0" type="line"/>
      <point x="60.6" y="0.0" type="line"/>
    </contour>
    <contour>
      <point x="694.2" y="1136.2" type="line"/>
      <point x="495.0" y="594.6" type="line"/>
      <point x="892.4" y="594.6" type="line"/>
    </contour>
    <contour>
      <point x="509.8" y="1730.0" type="qcurve"/>
      <point x="557.6" y="1730.0"/>
      <point x="590.8" y="1696.2" type="qcurve"/>
      <point x="625.0" y="1663.6"/>
      <point x="625.0" y="1614.8" type="qcurve"/>
      <point x="625.0" y="1568.6"/>
      <point x="591.2" y="1535.4" type="qcurve"/>
      <point x="558.0" y="1502.2"/>
      <point x="509.8" y="1502.2" type="qcurve"/>
      <point x="464.2" y="1502.2"/>
      <point x="429.8" y="1534.4" type="qcurve"/>
      <point x="397.2" y="1569.2"/>
      <point x="397.2" y="1614.8" type="qcurve"/>
      <point x="397.2" y="1662.0"/>
      <point x="428.8" y="1695.2" type="qcurve"/>
      <point x="464.2" y="1730.0"/>
    </contour>
    <contour>
      <point x="867.6" y="1730.0" type="qcurve"/>
      <point x="915.4" y="1730.0"/>
      <point x="948.0" y="1696.2" type="qcurve"/>
      <point x="982.8" y="1663.6"/>
      <point x="982.8" y="1617.4" type="qcurve"/>
      <point x="984.4" y="1570.6"/>
      <point x="949.0" y="1536.4" type="qcurve"/>
      <point x="914.8" y="1502.2"/>
      <point x="867.6" y="1502.2" type="qcurve"/>
      <point x="821.8" y="1502.2"/>
      <point x="788.6" y="1536.0" type="qcurve"/>
      <point x="757.4" y="1570.6"/>
      <point x="756.4" y="1616.8" type="qcurve"/>
      <point x="756.4" y="1662.0"/>
      <point x="787.0" y="1694.6" type="qcurve"/>
      <point x="821.4" y="1730.0"/>
    </contour>
  </outline>
</glyph>
<glyph name="Aring" format="2">
  <advance width="1386.2"/>
  <unicode hex="00C5"/>
  <outline>
    <contour>
      <point x="595.4" y="1460.2" type="line"/>
      <point x="793.0" y="1460.2" type="line"/>
      <point x="1322.2" y="0.0" type="line"/>
      <point x="1107.2" y="0.0" type="line"/>
      <point x="962.6" y="403.0" type="line"/>
      <point x="424.8" y="403.0" type="line"/>
      <point x="277.2" y="0.0" type="line"/>
      <point x="60.6" y="0.0" type="line"/>
    </contour>
    <contour>
      <point x="694.2" y="1136.2" type="line"/>
      <point x="495.0" y="594.6" type="line"/>
      <point x="892.4" y="594.6" type="line"/>
    </contour>
    <contour>
      <point x="689.2" y="1502.2" type="qcurve"/>
      <point x="599.8" y="1502.2"/>
      <point x="533.8" y="1565.2" type="qcurve"/>
      <point x="470.2" y="1629.8"/>
      <point x="470.2" y="1722.2" type="qcurve"/>
      <point x="470.2" y="1816.2"/>
      <point x="534.4" y="1876.2" type="qcurve"/>
      <point x="599.8" y="1942.2"/>
      <point x="689.2" y="1942.2" type="qcurve"/>
      <point x="786.8" y="1942.2"/>
      <point x="846.8" y="1875.0" type="qcurve"/>
      <point x="909.2" y="1815.6"/>
      <point x="909.2" y="1722.2" type="qcurve"/>
      <point x="909.2" y="1629.8"/>
      <point x="846.8" y="1565.2" type="qcurve"/>
      <point x="786.2" y="1502.2"/>
    </contour>
    <contour>
      <point x="689.2" y="1641.0" type="qcurve"/>
      <point x="722.6" y="1641.0"/>
      <point x="747.0" y="1665.0" type="qcurve"/>
      <point x="772.2" y="1689.0"/>
      <point x="771.8" y="1722.2" type="qcurve"/>
      <point x="771.8" y="1755.4"/>
      <point x="748.4" y="1779.4" type="qcurve"/>
      <point x="724.6" y="1802.8"/>
      <point x="689.2" y="1802.8" type="qcurve"/>
      <point x="658.4" y="1802.8"/>
      <point x="635.0" y="1781.4" type="qcurve"/>
      <point x="611.0" y="1756.4"/>
      <point x="609.6" y="1721.6" type="qcurve"/>
      <point x="609.6" y="1687.8"/>
      <point x="632.0" y="1665.0" type="qcurve"/>
      <point x="658.4" y="1641.0"/>
    </contour>
  </outline>
</glyph>
<glyph name="AE" format="2">
  <advance width="2176.2"/>
  <unicode hex="00C6"/>
  <outline>
    <contour>
      <point x="1205.4" y="1268.6" type="line"/>
      <point x="1207.4" y="843.0" type="line"/>
      <point x="1975.0" y="843.0" type="line"/>
      <point x="1978.2" y="648.0" type="line"/>
      <point x="1205.4" y="648.0" type="line"/>
      <point x="1207.4" y="199.0" type="line"/>
      <point x="2059.2" y="199.0" type="line"/>
      <point x="2056.0" y="2.0" type="line"/>
      <point x="998.4" y="0.0" type="line"/>
      <point x="1000.4" y="324.0" type="line"/>
      <point x="491.8" y="324.0" type="line"/>
      <point x="305.4" y="0.0" type="line"/>
      <point x="69.2" y="0.0" type="line"/>
      <point x="909.0" y="1460.2" type="line"/>
      <point x="2059.2" y="1460.2" type="line"/>
      <point x="2056.0" y="1266.6" type="line"/>
    </contour>
    <contour>
      <point x="998.4" y="523.0" type="line"/>
      <point x="1000.4" y="1209.6" type="line"/>
      <point x="601.8" y="523.0" type="line"/>
    </contour>
  </outline>
</glyph>
<glyph name="Ccedilla" format="2">
  <advance width="1451.6"/>
  <unicode hex="00C7"/>
  <outline>
    <contour>
      <point x="855.2" y="1481.0" type="qcurve"/>
      <point x="1056.8" y="1483.0"/>
      <point x="1223.4" y="1381.0" type="qcurve"/>
      <point x="1310.0" y="1326.4"/>
      <point x="1397.6" y="1238.2" type="qcurve"/>
      <point x="1256.8" y="1095.2" type="line"/>
      <point x="1185.6" y="1164.2"/>
      <point x="1123.0" y="1203.2" type="qcurve"/>
      <point x="997.0" y="1280.0"/>
      <point x="855.2" y="1278.0" type="qcurve"/>
      <point x="714.8" y="1280.0"/>
      <point x="585.8" y="1205.2" type="qcurve"/>
      <point x="522.8" y="1166.2"/>
      <point x="474.0" y="1118.4" type="qcurve"/>
      <point x="425.8" y="1072.2"/>
      <point x="386.8" y="1006.2" type="qcurve"/>
      <point x="313.4" y="875.6"/>
      <point x="313.4" y="729.8" type="qcurve"/>
      <point x="311.0" y="589.0"/>
      <point x="384.2" y="460.0" type="qcurve"/>
      <point x="425.2" y="396.4"/>
      <point x="472.6" y="346.0" type="qcurve"/>
      <point x="521.4" y="296.8"/>
      <point x="584.4" y="257.4" type="qcurve"/>
      <point x="713.4" y="178.6"/>
      <point x="855.2" y="180.6" type="qcurve"/>
      <point x="995.0" y="178.6"/>
      <point x="1121.0" y="257.4" type="qcurve"/>
      <point x="1184.6" y="295.4"/>
      <point x="1254.8" y="365.0" type="qcurve"/>
      <point x="1396.8" y="222.0" type="line"/>
      <point x="1313.0" y="137.2"/>
      <point x="1225.4" y="83.8" type="qcurve"/>
      <point x="1056.8" y="-19.4"/>
      <point x="855.2" y="-22.4" type="qcurve"/>
      <point x="658.6" y="-21.4"/>
      <point x="487.0" y="81.2" type="qcurve"/>
      <point x="315.0" y="184.6"/>
      <point x="212.0" y="355.6" type="qcurve"/>
      <point x="107.0" y="528.2"/>
      <point x="107.0" y="729.8" type="qcurve"/>
      <point x="107.0" y="934.4"/>
      <point x="212.6" y="1104.0" type="qcurve"/>
      <point x="316.4" y="1276.4"/>
      <point x="485.0" y="1379.0" type="qcurve"/>
      <point x="657.6" y="1484.6"/>
    </contour>
    <contour>
      <point x="793.4" y="-169.2" type="qcurve"/>
      <point x="860.0" y="-166.60000000000002"/>
      <point x="902.6" y="-207.2" type="qcurve"/>
      <point x="953.6" y="-247.8"/>
      <point x="950.0" y="-318.8" type="qcurve"/>
      <point x="950.0" y="-398.0"/>
      <point x="886.0" y="-448.6" type="qcurve"/>
      <point x="827.6" y="-495.4"/>
      <point x="739.0" y="-496.4" type="qcurve"/>
      <point x="690.4" y="-496.4"/>
      <point x="640.0" y="-480.8" type="qcurve"/>
      <point x="590.0" y="-463.0"/>
      <point x="540.2" y="-425.0" type="qcurve"/>
      <point x="597.8" y="-295.8" type="line"/>
      <point x="675.0" y="-352.2"/>
      <point x="733.6" y="-354.0" type="qcurve"/>
      <point x="761.6" y="-354.0"/>
      <point x="779.6" y="-341.2" type="qcurve"/>
      <point x="797.0" y="-327.4"/>
      <point x="795.2" y="-312.8" type="qcurve"/>
      <point x="796.0" y="-294.6"/>
      <point x="785.8" y="-286.4" type="qcurve"/>
      <point x="774.6" y="-274.4"/>
      <point x="750.4" y="-274.8" type="qcurve"/>
      <point x="727.2" y="-274.4"/>
      <point x="685.2" y="-306.8" type="qcurve"/>
      <point x="627.0" y="-242.6" type="line"/>
      <point x="701.4" y="-64.4" type="line"/>
      <point x="858.0" y="-64.4" type="line"/>
      <point x="824.6" y="-144.8" type="line"/>
      <point x="776.6" y="-166.0"/>
    </contour>
  </outline>
</glyph>
<glyph name="Egrave" format="2">
  <advance width="1237.4"/>
  <unicode hex="00C8"/>
  <outline>
    <contour>
      <point x="361.2" y="1264.6" type="line"/>
      <point x="361.2" y="839.0" type="line"/>
      <point x="1056.8" y="839.0" type="line"/>
      <point x="1056.8" y="646.0" type="line"/>
      <point x="361.2" y="646.0" type="line"/>
      <point x="361.2" y="192.6" type="line"/>
      <point x="1132.4" y="192.6" type="line"/>
      <point x="1132.4" y="0.0" type="line"/>
      <point x="159.2" y="0.0" type="line"/>
      <point x="159.2" y="1460.2" type="line"/>
      <point x="1132.4" y="1460.2" type="line"/>
      <point x="1132.4" y="1264.6" type="line"/>
    </contour>
    <contour>
      <point x="400.2" y="1778.4" type="line"/>
      <point x="618.0" y="1829.0" type="line"/>
      <point x="891.4" y="1502.2" type="line"/>
      <point x="713.2" y="1502.2" type="line"/>
    </contour>
  </outline>
</glyph>
<glyph name="Eacute" format="2">
  <advance width="1237.4"/>
  <unicode hex="00C9"/>
  <outline>
    <contour>
      <point x="361.2" y="1264.6" type="line"/>
      <point x="361.2" y="839.0" type="line"/>
      <point x="1056.8" y="839.0" type="line"/>
      <point x="1056.8" y="646.0" type="line"/>
      <point x="361.2" y="646.0" type="line"/>
      <point x="361.2" y="192.6" type="line"/>
      <point x="1132.4" y="192.6" type="line"/>
      <point x="1132.4" y="0.0" type="line"/>
      <point x="159.2" y="0.0" type="line"/>
      <point x="159.2" y="1460.2" type="line"/>
      <point x="1132.4" y="1460.2" type="line"/>
      <point x="1132.4" y="1264.6" type="line"/>
    </contour>
    <contour>
      <point x="674.6" y="1828.4" type="line"/>
      <point x="890.8" y="1778.4" type="line"/>
      <point x="578.8" y="1502.2" type="line"/>
      <point x="399.6" y="1502.2" type="line"/>
    </contour>
  </outline>
</glyph>
<glyph name="Ecircumflex" format="2">
  <advance width="1237.4"/>
  <unicode hex="00CA"/>
  <outline>
    <contour>
      <point x="361.2" y="1264.6" type="line"/>
      <point x="361.2" y="839.0" type="line"/>
      <point x="1056.8" y="839.0" type="line"/>
      <point x="1056.8" y="646.0" type="line"/>
      <point x="361.2" y="646.0" type="line"/>
      <point x="361.2" y="192.6" type="line"/>
      <point x="1132.4" y="192.6" type="line"/>
      <point x="1132.4" y="0.0" type="line"/>
      <point x="159.2" y="0.0" type="line"/>
      <point x="159.2" y="1460.2" type="line"/>
      <point x="1132.4" y="1460.2" type="line"/>
      <point x="1132.4" y="1264.6" type="line"/>
    </contour>
    <contour>
      <point x="564.6" y="1813.0" type="line"/>
      <point x="723.0" y="1813.0" type="line"/>
      <point x="954.8" y="1502.2" type="line"/>
      <point x="777.0" y="1502.2" type="line"/>
      <point x="643.0" y="1646.4" type="line"/>
      <point x="512.0" y="1502.2" type="line"/>
      <point x="337.4" y="1502.2" type="line"/>
    </contour>
  </outline>
</glyph>
<glyph name="Edieresis" format="2">
  <advance width="1237.4"/>
  <unicode hex="00CB"/>
  <outline>
    <contour>
      <point x="361.2" y="1264.6" type="line"/>
      <point x="361.2" y="839.0" type="line"/>
      <point x="1056.8" y="839.0" type="line"/>
      <point x="1056.8" y="646.0" type="line"/>
      <point x="361.2" y="646.0" type="line"/>
      <point x="361.2" y="192.6" type="line"/>
      <point x="1132.4" y="192.6" type="line"/>
      <point x="1132.4" y="0.0" type="line"/>
      <point x="159.2" y="0.0" type="line"/>
      <point x="159.2" y="1460.2" type="line"/>
      <point x="1132.4" y="1460.2" type="line"/>
      <point x="1132.4" y="1264.6" type="line"/>
    </contour>
    <contour>
      <point x="465.6" y="1730.0" type="qcurve"/>
      <point x="513.4" y="1730.0"/>
      <point x="546.0" y="1696.2" type="qcurve"/>
      <point x="580.8" y="1663.6"/>
      <point x="580.8" y="1615.4" type="qcurve"/>
      <point x="582.4" y="1568.6"/>
      <point x="547.0" y="1534.8" type="qcurve"/>
      <point x="512.8" y="1502.2"/>
      <point x="465.6" y="1502.2" type="qcurve"/>
      <point x="421.0" y="1502.2"/>
      <point x="386.2" y="1533.8" type="qcurve"/>
      <point x="352.4" y="1569.2"/>
      <point x="352.4" y="1614.2" type="qcurve"/>
      <point x="351.4" y="1662.0"/>
      <point x="385.2" y="1695.2" type="qcurve"/>
      <point x="420.0" y="1730.0"/>
    </contour>
    <contour>
      <point x="823.4" y="1730.0" type="qcurve"/>
      <point x="870.6" y="1730.0"/>
      <point x="903.8" y="1696.2" type="qcurve"/>
      <point x="938.6" y="1663.6"/>
      <point x="938.6" y="1616.8" type="qcurve"/>
      <point x="938.6" y="1570.6"/>
      <point x="905.4" y="1536.4" type="qcurve"/>
      <point x="871.6" y="1502.2"/>
      <point x="823.4" y="1502.2" type="qcurve"/>
      <point x="776.6" y="1502.2"/>
      <point x="743.8" y="1536.0" type="qcurve"/>
      <point x="712.2" y="1571.2"/>
      <point x="712.2" y="1616.8" type="qcurve"/>
      <point x="712.2" y="1662.0"/>
      <point x="742.8" y="1694.6" type="qcurve"/>
      <point x="776.6" y="1730.0"/>
    </contour>
  </outline>
</glyph>
<glyph name="Igrave" format="2">
  <advance width="540.2"/>
  <unicode hex="00CC"/>
  <outline>
    <contour>
      <point x="159.2" y="1460.2" type="line"/>
      <point x="359.2" y="1460.2" type="line"/>
      <point x="359.2" y="0.0" type="line"/>
      <point x="159.2" y="0.0" type="line"/>
    </contour>
    <contour>
      <point x="12.600000000000001" y="1778.4" type="line"/>
      <point x="231.4" y="1829.0" type="line"/>
      <point x="503.2" y="1502.2" type="line"/>
      <point x="326.6" y="1502.2" type="line"/>
    </contour>
  </outline>
</glyph>
<glyph name="Iacute" format="2">
  <advance width="539.6"/>
  <unicode hex="00CD"/>
  <outline>
    <contour>
      <point x="159.2" y="1460.2" type="line"/>
      <point x="359.2" y="1460.2" type="line"/>
      <point x="359.2" y="0.0" type="line"/>
      <point x="159.2" y="0.0" type="line"/>
    </contour>
    <contour>
      <point x="287.0" y="1828.4" type="line"/>
      <point x="502.6" y="1778.4" type="line"/>
      <point x="192.2" y="1502.2" type="line"/>
      <point x="12.0" y="1502.2" type="line"/>
    </contour>
  </outline>
</glyph>
<glyph name="Icircumflex" format="2">
  <advance width="534.2"/>
  <unicode hex="00CE"/>
  <outline>
    <contour>
      <point x="159.2" y="1460.2" type="line"/>
      <point x="359.2" y="1460.2" type="line"/>
      <point x="359.2" y="0.0" type="line"/>
      <point x="159.2" y="0.0" type="line"/>
    </contour>
    <contour>
      <point x="177.0" y="1813.0" type="line"/>
      <point x="335.4" y="1813.0" type="line"/>
      <point x="567.2" y="1502.2" type="line"/>
      <point x="390.0" y="1502.2" type="line"/>
      <point x="255.4" y="1646.4" type="line"/>
      <point x="124.4" y="1502.2" type="line"/>
      <point x="-50.2" y="1502.2" type="line"/>
    </contour>
  </outline>
</glyph>
<glyph name="Idieresis" format="2">
  <advance width="506.0"/>
  <unicode hex="00CF"/>
  <outline>
    <contour>
      <point x="159.2" y="1460.2" type="line"/>
      <point x="359.2" y="1460.2" type="line"/>
      <point x="359.2" y="0.0" type="line"/>
      <point x="159.2" y="0.0" type="line"/>
    </contour>
    <contour>
      <point x="78.0" y="1730.0" type="qcurve"/>
      <point x="125.8" y="1730.0"/>
      <point x="158.4" y="1696.2" type="qcurve"/>
      <point x="193.2" y="1663.6"/>
      <point x="193.2" y="1615.4" type="qcurve"/>
      <point x="194.8" y="1568.6"/>
      <point x="159.4" y="1534.8" type="qcurve"/>
      <point x="125.19999999999999" y="1502.2"/>
      <point x="78.0" y="1502.2" type="qcurve"/>
      <point x="33.4" y="1502.2"/>
      <point x="-1.4000000000000021" y="1533.8" type="qcurve"/>
      <point x="-34.6" y="1569.2"/>
      <point x="-34.6" y="1614.2" type="qcurve"/>
      <point x="-36.2" y="1662.0"/>
      <point x="-2.400000000000002" y="1695.2" type="qcurve"/>
      <point x="32.4" y="1730.0"/>
    </contour>
    <contour>
      <point x="435.8" y="1730.0" type="qcurve"/>
      <point x="483.6" y="1730.0"/>
      <point x="516.2" y="1696.2" type="qcurve"/>
      <point x="551.0" y="1663.6"/>
      <point x="551.0" y="1616.8" type="qcurve"/>
      <point x="551.0" y="1570.6"/>
      <point x="517.8" y="1536.4" type="qcurve"/>
      <point x="484.6" y="1502.2"/>
      <point x="435.8" y="1502.2" type="qcurve"/>
      <point x="389.6" y="1502.2"/>
      <point x="356.2" y="1536.0" type="qcurve"/>
      <point x="324.6" y="1571.2"/>
      <point x="324.6" y="1616.8" type="qcurve"/>
      <point x="324.6" y="1662.0"/>
      <point x="355.2" y="1694.6" type="qcurve"/>
      <point x="389.6" y="1730.0"/>
    </contour>
  </outline>
</glyph>
<glyph name="Ntilde" format="2">
  <advance width="1584.2"/>
  <unicode hex="00D1"/>
  <outline>
    <contour>
      <point x="186.0" y="1460.2" type="line"/>
      <point x="374.6" y="1460.2" type="line"/>
      <point x="1202.2" y="352.4" type="line"/>
      <point x="1202.2" y="1460.2" type="line"/>
      <point x="1403.2" y="1460.2" type="line"/>
      <point x="1403.2" y="0.0" type="line"/>
      <point x="1216.0" y="0.0" type="line"/>
      <point x="389.0" y="1109.2" type="line"/>
      <point x="389.0" y="0.0" type="line"/>
      <point x="186.0" y="0.0" type="line"/>
    </contour>
    <contour>
      <point x="917.0" y="1505.6" type="qcurve"/>
      <point x="870.4" y="1503.0"/>
      <point x="830.0" y="1525.8" type="qcurve"/>
      <point x="803.6" y="1547.2"/>
      <point x="752.0" y="1581.8" type="qcurve"/>
      <point x="728.6" y="1610.8"/>
      <point x="706.2" y="1620.0" type="qcurve"/>
      <point x="692.8" y="1630.2"/>
      <point x="676.6" y="1628.4" type="qcurve"/>
      <point x="655.8" y="1628.8"/>
      <point x="639.8" y="1608.2" type="qcurve"/>
      <point x="620.2" y="1585.4"/>
      <point x="605.2" y="1498.6" type="qcurve"/>
      <point x="466.2" y="1517.2" type="line"/>
      <point x="501.6" y="1791.6"/>
      <point x="674.2" y="1791.6" type="qcurve"/>
      <point x="720.8" y="1794.2"/>
      <point x="756.8" y="1772.6" type="qcurve"/>
      <point x="790.8" y="1754.6"/>
      <point x="838.0" y="1716.0" type="qcurve"/>
      <point x="867.0" y="1690.4"/>
      <point x="883.8" y="1679.8" type="qcurve"/>
      <point x="902.0" y="1670.8"/>
      <point x="915.2" y="1670.8" type="qcurve"/>
      <point x="939.6" y="1671.2"/>
      <point x="953.2" y="1689.8" type="qcurve"/>
      <point x="970.4" y="1713.8"/>
      <point x="985.4" y="1798.6" type="qcurve"/>
      <point x="1126.6" y="1780.0" type="line"/>
      <point x="1089.0" y="1507.6"/>
    </contour>
  </outline>
</glyph>
<glyph name="Otilde" format="2">
  <advance width="1714.0"/>
  <unicode hex="00D5"/>
  <outline>
    <contour>
      <point x="855.2" y="-22.4" type="qcurve"/>
      <point x="658.6" y="-21.4"/>
      <point x="487.0" y="81.2" type="qcurve"/>
      <point x="315.0" y="184.6"/>
      <point x="212.0" y="355.6" type="qcurve"/>
      <point x="107.0" y="528.2"/>
      <point x="107.0" y="729.8" type="qcurve"/>
      <point x="107.0" y="934.4"/>
      <point x="212.6" y="1104.0" type="qcurve"/>
      <point x="316.4" y="1276.4"/>
      <point x="485.0" y="1379.0" type="qcurve"/>
      <point x="657.6" y="1484.6"/>
      <point x="855.2" y="1481.0" type="qcurve"/>
      <point x="1056.8" y="1483.0"/>
      <point x="1223.4" y="1381.0" type="qcurve"/>
      <point x="1392.0" y="1279.0"/>
      <point x="1495.4" y="1106.0" type="qcurve"/>
      <point x="1600.0" y="936.4"/>
      <point x="1597.0" y="729.8" type="qcurve"/>
      <point x="1599.4" y="528.8"/>
      <point x="1495.4" y="355.6" type="qcurve"/>
      <point x="1396.4" y="188.2"/>
      <point x="1225.4" y="83.2" type="qcurve"/>
      <point x="1056.8" y="-19.4"/>
    </contour>
    <contour>
      <point x="854.6" y="180.6" type="qcurve"/>
      <point x="993.0" y="183.6"/>
      <point x="1121.6" y="258.0" type="qcurve"/>
      <point x="1249.6" y="332.8"/>
      <point x="1320.0" y="460.0" type="qcurve"/>
      <point x="1397.0" y="589.0"/>
      <point x="1394.0" y="729.8" type="qcurve"/>
      <point x="1395.0" y="871.2"/>
      <point x="1320.0" y="1002.2" type="qcurve"/>
      <point x="1249.6" y="1129.8"/>
      <point x="1123.6" y="1203.2" type="qcurve"/>
      <point x="995.6" y="1278.0"/>
      <point x="855.2" y="1278.0" type="qcurve"/>
      <point x="714.8" y="1280.0"/>
      <point x="585.8" y="1205.2" type="qcurve"/>
      <point x="522.8" y="1166.2"/>
      <point x="474.0" y="1118.4" type="qcurve"/>
      <point x="425.8" y="1072.2"/>
      <point x="386.8" y="1006.2" type="qcurve"/>
      <point x="313.4" y="875.6"/>
      <point x="313.4" y="729.8" type="qcurve"/>
      <point x="311.0" y="589.0"/>
      <point x="384.2" y="460.0" type="qcurve"/>
      <point x="425.2" y="396.4"/>
      <point x="472.6" y="346.0" type="qcurve"/>
      <point x="521.4" y="296.8"/>
      <point x="584.4" y="257.4" type="qcurve"/>
      <point x="713.4" y="178.6"/>
    </contour>
    <contour>
      <point x="974.6" y="1530.0" type="qcurve"/>
      <point x="928.6" y="1527.4"/>
      <point x="888.8" y="1549.6" type="qcurve"/>
      <point x="860.8" y="1570.6"/>
      <point x="810.8" y="1605.8" type="qcurve"/>
      <point x="784.6" y="1634.2"/>
      <point x="763.2" y="1644.4" type="qcurve"/>
      <point x="750.6" y="1654.0"/>
      <point x="734.2" y="1652.2" type="qcurve"/>
      <point x="712.8" y="1652.2"/>
      <point x="697.0" y="1633.2" type="qcurve"/>
      <point x="678.4" y="1608.8"/>
      <point x="661.8" y="1522.4" type="qcurve"/>
      <point x="522.2" y="1541.6" type="line"/>
      <point x="560.2" y="1815.0"/>
      <point x="731.2" y="1815.0" type="qcurve"/>
      <point x="777.4" y="1819.6"/>
      <point x="814.0" y="1795.4" type="qcurve"/>
      <point x="847.0" y="1777.4"/>
      <point x="894.6" y="1739.8" type="qcurve"/>
      <point x="925.2" y="1713.2"/>
      <point x="941.0" y="1703.6" type="qcurve"/>
      <point x="959.2" y="1694.6"/>
      <point x="974.0" y="1694.2" type="qcurve"/>
      <point x="997.8" y="1694.6"/>
      <point x="1009.2" y="1712.0" type="qcurve"/>
      <point x="1027.4" y="1738.0"/>
      <point x="1043.6" y="1823.6" type="qcurve"/>
      <point x="1182.6" y="1802.8" type="line"/>
      <point x="1147.2" y="1533.0"/>
    </contour>
  </outline>
</glyph>
<glyph name="Odieresis" format="2">
  <advance width="1714.0"/>
  <unicode hex="00D6"/>
  <outline>
    <contour>
      <point x="855.2" y="-22.4" type="qcurve"/>
      <point x="658.6" y="-21.4"/>
      <point x="487.0" y="81.2" type="qcurve"/>
      <point x="315.0" y="184.6"/>
      <point x="212.0" y="355.6" type="qcurve"/>
      <point x="107.0" y="528.2"/>
      <point x="107.0" y="729.8" type="qcurve"/>
      <point x="107.0" y="934.4"/>
      <point x="212.6" y="1104.0" type="qcurve"/>
      <point x="316.4" y="1276.4"/>
      <point x="485.0" y="1379.0" type="qcurve"/>
      <point x="657.6" y="1484.6"/>
      <point x="855.2" y="1481.0" type="qcurve"/>
      <point x="1056.8" y="1483.0"/>
      <point x="1223.4" y="1381.0" type="qcurve"/>
      <point x="1392.0" y="1279.0"/>
      <point x="1495.4" y="1106.0" type="qcurve"/>
      <point x="1600.0" y="936.4"/>
      <point x="1597.0" y="729.8" type="qcurve"/>
      <point x="1599.4" y="528.8"/>
      <point x="1495.4" y="355.6" type="qcurve"/>
      <point x="1396.4" y="188.2"/>
      <point x="1225.4" y="83.2" type="qcurve"/>
      <point x="1056.8" y="-19.4"/>
    </contour>
    <contour>
      <point x="854.6" y="180.6" type="qcurve"/>
      <point x="993.0" y="183.6"/>
      <point x="1121.6" y="258.0" type="qcurve"/>
      <point x="1249.6" y="332.8"/>
      <point x="1320.0" y="460.0" type="qcurve"/>
      <point x="1397.0" y="589.0"/>
      <point x="1394.0" y="729.8" type="qcurve"/>
      <point x="1395.0" y="871.2"/>
      <point x="1320.0" y="1002.2" type="qcurve"/>
      <point x="1249.6" y="1129.8"/>
      <point x="1123.6" y="1203.2" type="qcurve"/>
      <point x="995.6" y="1278.0"/>
      <point x="855.2" y="1278.0" type="qcurve"/>
      <point x="714.8" y="1280.0"/>
      <point x="585.8" y="1205.2" type="qcurve"/>
      <point x="522.8" y="1166.2"/>
      <point x="474.0" y="1118.4" type="qcurve"/>
      <point x="425.8" y="1072.2"/>
      <point x="386.8" y="1006.2" type="qcurve"/>
      <point x="313.4" y="875.6"/>
      <point x="313.4" y="729.8" type="qcurve"/>
      <point x="311.0" y="589.0"/>
      <point x="384.2" y="460.0" type="qcurve"/>
      <point x="425.2" y="396.4"/>
      <point x="472.6" y="346.0" type="qcurve"/>
      <point x="521.4" y="296.8"/>
      <point x="584.4" y="257.4" type="qcurve"/>
      <point x="713.4" y="178.6"/>
    </contour>
    <contour>
      <point x="672.2" y="1753.8" type="qcurve"/>
      <point x="720.6" y="1755.4"/>
      <point x="753.8" y="1720.6" type="qcurve"/>
      <point x="788.0" y="1685.8"/>
      <point x="788.0" y="1639.2" type="qcurve"/>
      <point x="788.0" y="1594.0"/>
      <point x="754.8" y="1559.8" type="qcurve"/>
      <point x="721.0" y="1526.0"/>
      <point x="673.4" y="1526.0" type="qcurve"/>
      <point x="626.6" y="1524.4"/>
      <point x="593.4" y="1558.8" type="qcurve"/>
      <point x="560.2" y="1593.0"/>
      <point x="560.2" y="1639.2" type="qcurve"/>
      <point x="560.2" y="1685.8"/>
      <point x="591.8" y="1719.6" type="qcurve"/>
      <point x="627.2" y="1753.8"/>
    </contour>
    <contour>
      <point x="1030.0" y="1753.8" type="qcurve"/>
      <point x="1078.4" y="1755.4"/>
      <point x="1111.6" y="1720.6" type="qcurve"/>
      <point x="1145.8" y="1685.8"/>
      <point x="1145.8" y="1641.8" type="qcurve"/>
      <point x="1147.4" y="1594.4"/>
      <point x="1112.0" y="1560.8" type="qcurve"/>
      <point x="1077.8" y="1526.0"/>
      <point x="1031.2" y="1526.0" type="qcurve"/>
      <point x="984.8" y="1524.4"/>
      <point x="951.0" y="1560.4" type="qcurve"/>
      <point x="921.0" y="1594.6"/>
      <point x="919.4" y="1641.2" type="qcurve"/>
      <point x="919.4" y="1685.8"/>
      <point x="950.0" y="1719.0" type="qcurve"/>
      <point x="983.8" y="1753.8"/>
    </contour>
  </outline>
</glyph>
<glyph name="multiply" format="2">
  <advance width="1090.6"/>
  <unicode hex="00D7"/>
  <outline>
    <contour>
      <point x="682.6" y="650.8" type="line"/>
      <point x="932.6" y="396.8" type="line"/>
      <point x="795.6" y="260.8" type="line"/>
      <point x="544.6" y="512.4" type="line"/>
      <point x="291.2" y="261.4" type="line"/>
      <point x="152.6" y="394.8" type="line"/>
      <point x="406.2" y="648.8" type="line"/>
      <point x="153.2" y="901.8" type="line"/>
      <point x="290.6" y="1040.8" type="line"/>
      <point x="544.6" y="786.8" type="line"/>
      <point x="798.2" y="1040.8" type="line"/>
      <point x="932.0" y="901.8" type="line"/>
    </contour>
  </outline>
</glyph>
<glyph name="Uacute" format="2">
  <advance width="1460.8"/>
  <unicode hex="00DA"/>
  <outline>
    <contour>
      <point x="734.4" y="-22.4" type="qcurve"/>
      <point x="577.2" y="-22.4"/>
      <point x="445.2" y="53.4" type="qcurve"/>
      <point x="316.4" y="131.0"/>
      <point x="245.2" y="260.0" type="qcurve"/>
      <point x="175.6" y="395.2"/>
      <point x="172.6" y="556.8" type="qcurve"/>
      <point x="172.6" y="1460.2" type="line"/>
      <point x="373.6" y="1460.2" type="line"/>
      <point x="373.6" y="557.4" type="line"/>
      <point x="373.6" y="445.8"/>
      <point x="421.2" y="355.4" type="qcurve"/>
      <point x="466.8" y="267.6"/>
      <point x="547.2" y="216.2" type="qcurve"/>
      <point x="630.0" y="167.6"/>
      <point x="734.4" y="165.2" type="qcurve"/>
      <point x="836.4" y="168.2"/>
      <point x="917.8" y="216.2" type="qcurve"/>
      <point x="1000.6" y="266.2"/>
      <point x="1047.2" y="353.4" type="qcurve"/>
      <point x="1095.8" y="443.8"/>
      <point x="1092.8" y="557.4" type="qcurve"/>
      <point x="1092.8" y="1460.2" type="line"/>
      <point x="1293.8" y="1460.2" type="line"/>
      <point x="1293.8" y="558.0" type="line"/>
      <point x="1297.8" y="395.2"/>
      <point x="1225.2" y="259.4" type="qcurve"/>
      <point x="1156.4" y="131.6"/>
      <point x="1026.2" y="53.4" type="qcurve"/>
      <point x="894.2" y="-22.4"/>
    </contour>
    <contour>
      <point x="764.0" y="1828.4" type="line"/>
      <point x="979.2" y="1778.4" type="line"/>
      <point x="668.2" y="1502.2" type="line"/>
      <point x="488.0" y="1502.2" type="line"/>
    </contour>
  </outline>
</glyph>
<glyph name="Udieresis" format="2">
  <advance width="1460.8"/>
  <unicode hex="00DC"/>
  <outline>
    <contour>
      <point x="734.4" y="-22.4" type="qcurve"/>
      <point x="577.2" y="-22.4"/>
      <point x="445.2" y="53.4" type="qcurve"/>
      <point x="316.4" y="131.0"/>
      <point x="245.2" y="260.0" type="qcurve"/>
      <point x="175.6" y="395.2"/>
      <point x="172.6" y="556.8" type="qcurve"/>
      <point x="172.6" y="1460.2" type="line"/>
      <point x="373.6" y="1460.2" type="line"/>
      <point x="373.6" y="557.4" type="line"/>
      <point x="373.6" y="445.8"/>
      <point x="421.2" y="355.4" type="qcurve"/>
      <point x="466.8" y="267.6"/>
      <point x="547.2" y="216.2" type="qcurve"/>
      <point x="630.0" y="167.6"/>
      <point x="734.4" y="165.2" type="qcurve"/>
      <point x="836.4" y="168.2"/>
      <point x="917.8" y="216.2" type="qcurve"/>
      <point x="1000.6" y="266.2"/>
      <point x="1047.2" y="353.4" type="qcurve"/>
      <point x="1095.8" y="443.8"/>
      <point x="1092.8" y="557.4" type="qcurve"/>
      <point x="1092.8" y="1460.2" type="line"/>
      <point x="1293.8" y="1460.2" type="line"/>
      <point x="1293.8" y="558.0" type="line"/>
      <point x="1297.8" y="395.2"/>
      <point x="1225.2" y="259.4" type="qcurve"/>
      <point x="1156.4" y="131.6"/>
      <point x="1026.2" y="53.4" type="qcurve"/>
      <point x="894.2" y="-22.4"/>
    </contour>
    <contour>
      <point x="554.6" y="1730.0" type="qcurve"/>
      <point x="601.8" y="1730.0"/>
      <point x="635.0" y="1696.2" type="qcurve"/>
      <point x="669.2" y="1663.6"/>
      <point x="669.2" y="1615.4" type="qcurve"/>
      <point x="670.8" y="1568.6"/>
      <point x="636.0" y="1534.8" type="qcurve"/>
      <point x="601.2" y="1502.2"/>
      <point x="554.6" y="1502.2" type="qcurve"/>
      <point x="509.4" y="1502.2"/>
      <point x="475.2" y="1533.8" type="qcurve"/>
      <point x="441.4" y="1569.2"/>
      <point x="441.4" y="1614.2" type="qcurve"/>
      <point x="439.8" y="1662.0"/>
      <point x="474.2" y="1695.2" type="qcurve"/>
      <point x="508.4" y="1730.0"/>
    </contour>
    <contour>
      <point x="911.8" y="1730.0" type="qcurve"/>
      <point x="959.6" y="1730.0"/>
      <point x="992.8" y="1696.2" type="qcurve"/>
      <point x="1027.0" y="1663.6"/>
      <point x="1027.0" y="1616.8" type="qcurve"/>
      <point x="1027.0" y="1570.6"/>
      <point x="993.8" y="1536.4" type="qcurve"/>
      <point x="960.6" y="1502.2"/>
      <point x="911.8" y="1502.2" type="qcurve"/>
      <point x="865.6" y="1502.2"/>
      <point x="832.2" y="1536.0" type="qcurve"/>
      <point x="801.2" y="1571.2"/>
      <point x="801.2" y="1616.8" type="qcurve"/>
      <point x="801.2" y="1662.0"/>
      <point x="831.2" y="1694.6" type="qcurve"/>
      <point x="865.6" y="1730.0"/>
    </contour>
  </outline>
</glyph>
<glyph name="Thorn" format="2">
  <advance width="1267.4"/>
  <unicode hex="00DE"/>
  <outline>
    <contour>
      <point x="159.2" y="1333.0" type="line"/>
      <point x="362.6" y="1333.0" type="line"/>
      <point x="362.6" y="1108.4" type="line"/>
      <point x="704.6" y="1108.4" type="line"/>
      <point x="846.4" y="1108.4"/>
      <point x="955.6" y="1053.2" type="qcurve"/>
      <point x="1073.8" y="1000.0"/>
      <point x="1135.6" y="898.0" type="qcurve"/>
      <point x="1207.0" y="799.0"/>
      <point x="1205.4" y="672.8" type="qcurve"/>
      <point x="1208.4" y="544.4"/>
      <point x="1137.0" y="445.4" type="qcurve"/>
      <point x="1072.8" y="346.0"/>
      <point x="956.8" y="287.2" type="qcurve"/>
      <point x="845.8" y="233.0"/>
      <point x="704.0" y="235.0" type="qcurve"/>
      <point x="359.2" y="235.0" type="line"/>
      <point x="359.2" y="0.0" type="line"/>
      <point x="159.2" y="0.0" type="line"/>
    </contour>
    <contour>
      <point x="680.8" y="427.6" type="line"/>
      <point x="830.2" y="428.6"/>
      <point x="914.8" y="494.6" type="qcurve"/>
      <point x="1002.4" y="560.8"/>
      <point x="1002.4" y="672.8" type="qcurve"/>
      <point x="1004.8" y="785.0"/>
      <point x="917.4" y="847.2" type="qcurve"/>
      <point x="829.2" y="917.8"/>
      <point x="681.4" y="914.8" type="qcurve"/>
      <point x="359.2" y="914.8" type="line"/>
      <point x="359.2" y="427.6" type="line"/>
    </contour>
  </outline>
</glyph>
<glyph name="germandbls" format="2">
  <advance width="1142.4"/>
  <unicode hex="00DF"/>
  <outline>
    <contour>
      <point x="168.6" y="1006.6" type="line"/>
      <point x="166.6" y="1111.4"/>
      <point x="222.6" y="1194.2" type="qcurve"/>
      <point x="279.0" y="1280.2"/>
      <point x="373.2" y="1324.0" type="qcurve"/>
      <point x="467.4" y="1370.2"/>
      <point x="586.4" y="1370.2" type="qcurve"/>
      <point x="704.8" y="1370.2"/>
      <point x="796.2" y="1324.0" type="qcurve"/>
      <point x="890.8" y="1280.2"/>
      <point x="945.2" y="1195.6" type="qcurve"/>
      <point x="1002.2" y="1111.4"/>
      <point x="1000.2" y="1006.6" type="qcurve"/>
      <point x="1003.2" y="797.2"/>
      <point x="850.2" y="708.4" type="qcurve"/>
      <point x="919.6" y="675.0"/>
      <point x="983.8" y="585.2" type="qcurve"/>
      <point x="1053.8" y="495.0"/>
      <point x="1051.4" y="378.0" type="qcurve"/>
      <point x="1053.8" y="270.8"/>
      <point x="997.4" y="183.2" type="qcurve"/>
      <point x="947.6" y="99.2"/>
      <point x="854.0" y="48.8" type="qcurve"/>
      <point x="763.0" y="0.0"/>
      <point x="643.0" y="0.0" type="qcurve"/>
      <point x="452.8" y="0.0" type="line"/>
      <point x="452.8" y="186.6" type="line"/>
      <point x="605.8" y="186.6" type="line"/>
      <point x="713.2" y="187.6"/>
      <point x="780.4" y="246.4" type="qcurve"/>
      <point x="850.8" y="306.6"/>
      <point x="848.4" y="395.4" type="qcurve"/>
      <point x="850.8" y="487.6"/>
      <point x="782.4" y="545.4" type="qcurve"/>
      <point x="716.2" y="604.2"/>
      <point x="605.8" y="604.2" type="qcurve"/>
      <point x="452.8" y="604.2" type="line"/>
      <point x="452.8" y="791.8" type="line"/>
      <point x="584.4" y="791.8" type="line"/>
      <point x="645.6" y="791.8"/>
      <point x="690.8" y="819.6" type="qcurve"/>
      <point x="742.0" y="845.8"/>
      <point x="769.0" y="888.4" type="qcurve"/>
      <point x="797.2" y="935.8"/>
      <point x="797.2" y="986.2" type="qcurve"/>
      <point x="799.2" y="1074.0"/>
      <point x="738.6" y="1125.8" type="qcurve"/>
      <point x="679.2" y="1181.6"/>
      <point x="583.8" y="1181.6" type="qcurve"/>
      <point x="491.4" y="1184.0"/>
      <point x="429.2" y="1126.4" type="qcurve"/>
      <point x="369.6" y="1072.6"/>
      <point x="369.6" y="982.8" type="qcurve"/>
      <point x="369.6" y="0.0" type="line"/>
      <point x="168.6" y="0.0" type="line"/>
    </contour>
  </outline>
</glyph>
<glyph name="atilde" format="2">
  <advance width="1259.0"/>
  <unicode hex="00E3"/>
  <outline>
    <contour>
      <point x="609.2" y="157.8" type="qcurve"/>
      <point x="694.6" y="160.8"/>
      <point x="761.2" y="202.2" type="qcurve"/>
      <point x="828.6" y="246.2"/>
      <point x="865.2" y="323.0" type="qcurve"/>
      <point x="905.0" y="406.4"/>
      <point x="904.0" y="508.2" type="qcurve"/>
      <point x="905.0" y="614.4"/>
      <point x="865.2" y="691.4" type="qcurve"/>
      <point x="828.6" y="772.2"/>
      <point x="761.2" y="814.8" type="qcurve"/>
      <point x="695.2" y="859.6"/>
      <point x="609.2" y="858.2" type="qcurve"/>
      <point x="527.2" y="859.6"/>
      <point x="458.8" y="813.6" type="qcurve"/>
      <point x="390.4" y="772.2"/>
      <point x="352.2" y="692.0" type="qcurve"/>
      <point x="315.4" y="614.4"/>
      <point x="315.4" y="508.2" type="qcurve"/>
      <point x="315.4" y="406.4"/>
      <point x="352.8" y="325.0" type="qcurve"/>
      <point x="391.4" y="247.6"/>
      <point x="456.8" y="202.2" type="qcurve"/>
      <point x="527.6" y="160.8"/>
    </contour>
    <contour>
      <point x="1100.0" y="1016.4" type="line"/>
      <point x="1100.0" y="0.0" type="line"/>
      <point x="904.0" y="0.0" type="line"/>
      <point x="904.0" y="104.2" type="line"/>
      <point x="899.0" y="95.8"/>
      <point x="803.6" y="37.0" type="qcurve"/>
      <point x="708.0" y="-22.4"/>
      <point x="584.4" y="-22.4" type="qcurve"/>
      <point x="451.8" y="-24.4"/>
      <point x="343.2" y="46.0" type="qcurve"/>
      <point x="236.2" y="116.2"/>
      <point x="173.6" y="237.8" type="qcurve"/>
      <point x="115.0" y="362.4"/>
      <point x="111.0" y="508.2" type="qcurve"/>
      <point x="114.4" y="659.4"/>
      <point x="173.6" y="780.2" type="qcurve"/>
      <point x="236.2" y="905.2"/>
      <point x="341.8" y="970.4" type="qcurve"/>
      <point x="452.2" y="1041.8"/>
      <point x="584.4" y="1040.8" type="qcurve"/>
      <point x="705.0" y="1041.8"/>
      <point x="801.6" y="983.4" type="qcurve"/>
      <point x="898.0" y="925.6"/>
      <point x="904.0" y="915.6" type="qcurve"/>
      <point x="904.0" y="1016.4" type="line"/>
    </contour>
    <contour>
      <point x="727.2" y="1087.2" type="qcurve"/>
      <point x="679.0" y="1085.2"/>
      <point x="641.8" y="1107.4" type="qcurve"/>
      <point x="614.4" y="1128.4"/>
      <point x="563.8" y="1162.4" type="qcurve"/>
      <point x="538.2" y="1190.4"/>
      <point x="515.2" y="1201.8" type="qcurve"/>
      <point x="502.4" y="1211.8"/>
      <point x="486.8" y="1210.0" type="qcurve"/>
      <point x="465.6" y="1210.4"/>
      <point x="450.6" y="1190.4" type="qcurve"/>
      <point x="431.4" y="1167.6"/>
      <point x="414.8" y="1078.6" type="qcurve"/>
      <point x="275.8" y="1099.4" type="line"/>
      <point x="312.8" y="1373.8"/>
      <point x="483.8" y="1372.2" type="qcurve"/>
      <point x="529.4" y="1375.8"/>
      <point x="566.4" y="1352.6" type="qcurve"/>
      <point x="600.0" y="1333.6"/>
      <point x="647.0" y="1297.6" type="qcurve"/>
      <point x="678.2" y="1271.4"/>
      <point x="694.6" y="1260.8" type="qcurve"/>
      <point x="712.2" y="1252.0"/>
      <point x="726.0" y="1252.0" type="qcurve"/>
      <point x="749.4" y="1252.0"/>
      <point x="763.4" y="1270.4" type="qcurve"/>
      <point x="781.0" y="1295.8"/>
      <point x="797.2" y="1379.2" type="qcurve"/>
      <point x="936.2" y="1360.6" type="line"/>
      <point x="900.2" y="1090.2"/>
    </contour>
  </outline>
</glyph>
<glyph name="ae" format="2">
  <advance width="1868.2"/>
  <unicode hex="00E6"/>
  <outline>
    <contour>
      <point x="1307.4" y="157.8" type="qcurve"/>
      <point x="1387.0" y="160.8"/>
      <point x="1469.2" y="188.8" type="qcurve"/>
      <point x="1552.0" y="221.2"/>
      <point x="1612.0" y="287.8" type="qcurve"/>
      <point x="1735.4" y="154.4" type="line"/>
      <point x="1651.6" y="63.8"/>
      <point x="1534.6" y="21.2" type="qcurve"/>
      <point x="1421.2" y="-19.4"/>
      <point x="1310.0" y="-22.4" type="qcurve"/>
      <point x="1183.0" y="-24.4"/>
      <point x="1066.0" y="38.8" type="qcurve"/>
      <point x="954.2" y="105.6"/>
      <point x="907.0" y="175.8" type="qcurve"/>
      <point x="864.6" y="108.0"/>
      <point x="751.4" y="43.4" type="qcurve"/>
      <point x="642.4" y="-24.4"/>
      <point x="505.4" y="-22.4" type="qcurve"/>
      <point x="323.8" y="-24.4"/>
      <point x="214.6" y="63.8" type="qcurve"/>
      <point x="107.0" y="156.2"/>
      <point x="107.0" y="309.8" type="qcurve"/>
      <point x="105.0" y="413.8"/>
      <point x="160.0" y="494.0" type="qcurve"/>
      <point x="217.0" y="576.2"/>
      <point x="309.0" y="617.0" type="qcurve"/>
      <point x="404.4" y="661.6"/>
      <point x="510.8" y="660.6" type="qcurve"/>
      <point x="660.2" y="660.6"/>
      <point x="795.2" y="616.8" type="qcurve"/>
      <point x="795.2" y="613.6" type="line"/>
      <point x="797.2" y="720.8"/>
      <point x="740.4" y="794.6" type="qcurve"/>
      <point x="691.2" y="866.6"/>
      <point x="561.4" y="863.6" type="qcurve"/>
      <point x="504.2" y="866.6"/>
      <point x="440.8" y="843.0" type="qcurve"/>
      <point x="375.6" y="821.2"/>
      <point x="271.2" y="767.6" type="qcurve"/>
      <point x="188.2" y="928.6" type="line"/>
      <point x="405.8" y="1040.8"/>
      <point x="572.0" y="1040.8" type="qcurve"/>
      <point x="710.0" y="1041.8"/>
      <point x="802.0" y="985.4" type="qcurve"/>
      <point x="901.2" y="929.0"/>
      <point x="925.8" y="874.6" type="qcurve"/>
      <point x="966.2" y="931.4"/>
      <point x="1070.6" y="984.6" type="qcurve"/>
      <point x="1177.4" y="1041.8"/>
      <point x="1297.4" y="1040.8" type="qcurve"/>
      <point x="1525.4" y="1040.8"/>
      <point x="1653.0" y="879.4" type="qcurve"/>
      <point x="1783.4" y="721.6"/>
      <point x="1779.2" y="428.8" type="qcurve"/>
      <point x="996.8" y="428.8" type="line"/>
      <point x="1009.4" y="325.6"/>
      <point x="1091.6" y="242.4" type="qcurve"/>
      <point x="1177.6" y="160.2"/>
    </contour>
    <contour>
      <point x="1301.4" y="858.2" type="qcurve"/>
      <point x="1183.0" y="859.6"/>
      <point x="1096.4" y="782.4" type="qcurve"/>
      <point x="1013.8" y="706.0"/>
      <point x="999.4" y="608.0" type="qcurve"/>
      <point x="1584.8" y="608.0" type="line"/>
      <point x="1575.0" y="707.2"/>
      <point x="1500.2" y="781.6" type="qcurve"/>
      <point x="1432.0" y="858.2"/>
    </contour>
    <contour>
      <point x="526.2" y="154.8" type="qcurve"/>
      <point x="598.0" y="154.8"/>
      <point x="659.6" y="189.0" type="qcurve"/>
      <point x="724.0" y="226.0"/>
      <point x="758.2" y="283.6" type="qcurve"/>
      <point x="795.2" y="341.2"/>
      <point x="795.2" y="405.8" type="qcurve"/>
      <point x="795.2" y="454.2" type="line"/>
      <point x="676.6" y="486.0"/>
      <point x="532.2" y="486.0" type="qcurve"/>
      <point x="434.4" y="486.0"/>
      <point x="363.6" y="436.2" type="qcurve"/>
      <point x="298.0" y="389.4"/>
      <point x="298.0" y="316.4" type="qcurve"/>
      <point x="298.0" y="244.8"/>
      <point x="354.8" y="201.0" type="qcurve"/>
      <point x="416.6" y="154.8"/>
    </contour>
  </outline>
</glyph>
<glyph name="ccedilla" format="2">
  <advance width="1089.6"/>
  <unicode hex="00E7"/>
  <outline>
    <contour>
      <point x="627.0" y="-22.4" type="qcurve"/>
      <point x="488.6" y="-19.4"/>
      <point x="366.2" y="51.4" type="qcurve"/>
      <point x="247.4" y="123.0"/>
      <point x="174.2" y="244.8" type="qcurve"/>
      <point x="103.0" y="369.8"/>
      <point x="103.0" y="508.2" type="qcurve"/>
      <point x="103.0" y="652.6"/>
      <point x="172.8" y="773.0" type="qcurve"/>
      <point x="246.0" y="899.4"/>
      <point x="366.2" y="967.6" type="qcurve"/>
      <point x="488.6" y="1040.8"/>
      <point x="627.6" y="1040.8" type="qcurve"/>
      <point x="730.4" y="1040.8"/>
      <point x="822.8" y="1000.6" type="qcurve"/>
      <point x="918.0" y="961.0"/>
      <point x="1010.2" y="869.4" type="qcurve"/>
      <point x="872.8" y="733.6" type="line"/>
      <point x="811.0" y="805.8"/>
      <point x="750.4" y="832.2" type="qcurve"/>
      <point x="694.6" y="858.2"/>
      <point x="627.0" y="858.2" type="qcurve"/>
      <point x="542.0" y="859.6"/>
      <point x="468.2" y="812.2" type="qcurve"/>
      <point x="393.2" y="765.6"/>
      <point x="347.6" y="682.8" type="qcurve"/>
      <point x="306.0" y="603.0"/>
      <point x="306.0" y="508.2" type="qcurve"/>
      <point x="304.0" y="415.0"/>
      <point x="345.6" y="333.6" type="qcurve"/>
      <point x="391.2" y="254.8"/>
      <point x="466.2" y="206.2" type="qcurve"/>
      <point x="543.6" y="160.8"/>
      <point x="628.2" y="157.8" type="qcurve"/>
      <point x="695.6" y="157.8"/>
      <point x="751.8" y="183.6" type="qcurve"/>
      <point x="811.4" y="213.0"/>
      <point x="876.8" y="289.2" type="qcurve"/>
      <point x="1015.6" y="152.4" type="line"/>
      <point x="924.6" y="62.4"/>
      <point x="828.8" y="19.8" type="qcurve"/>
      <point x="735.0" y="-21.4"/>
    </contour>
    <contour>
      <point x="599.6" y="-169.2" type="qcurve"/>
      <point x="666.2" y="-166.60000000000002"/>
      <point x="708.8" y="-207.2" type="qcurve"/>
      <point x="759.8" y="-247.8"/>
      <point x="756.2" y="-318.2" type="qcurve"/>
      <point x="757.2" y="-398.0"/>
      <point x="692.2" y="-448.6" type="qcurve"/>
      <point x="634.8" y="-495.4"/>
      <point x="545.2" y="-496.4" type="qcurve"/>
      <point x="496.6" y="-496.4"/>
      <point x="446.2" y="-480.8" type="qcurve"/>
      <point x="397.8" y="-463.0"/>
      <point x="345.2" y="-425.0" type="qcurve"/>
      <point x="405.6" y="-296.4" type="line"/>
      <point x="482.2" y="-352.2"/>
      <point x="539.8" y="-354.0" type="qcurve"/>
      <point x="568.8" y="-354.0"/>
      <point x="586.4" y="-340.6" type="qcurve"/>
      <point x="603.2" y="-327.4"/>
      <point x="600.8" y="-312.2" type="qcurve"/>
      <point x="602.6" y="-294.0"/>
      <point x="592.6" y="-286.4" type="qcurve"/>
      <point x="580.4" y="-273.8"/>
      <point x="556.6" y="-274.8" type="qcurve"/>
      <point x="533.0" y="-274.4"/>
      <point x="494.2" y="-307.4" type="qcurve"/>
      <point x="433.2" y="-242.6" type="line"/>
      <point x="507.6" y="-64.4" type="line"/>
      <point x="663.6" y="-64.4" type="line"/>
      <point x="632.4" y="-140.60000000000002" type="line"/>
      <point x="582.2" y="-166.0"/>
    </contour>
  </outline>
</glyph>
<glyph name="egrave" format="2">
  <advance width="1177.6"/>
  <unicode hex="00E8"/>
  <outline>
    <contour>
      <point x="616.2" y="157.8" type="qcurve"/>
      <point x="696.2" y="160.8"/>
      <point x="775.4" y="188.8" type="qcurve"/>
      <point x="858.8" y="220.6"/>
      <point x="917.2" y="288.4" type="qcurve"/>
      <point x="1041.2" y="155.0" type="line"/>
      <point x="959.4" y="64.4"/>
      <point x="842.4" y="21.2" type="qcurve"/>
      <point x="729.0" y="-19.4"/>
      <point x="618.2" y="-22.4" type="qcurve"/>
      <point x="480.2" y="-22.4"/>
      <point x="361.8" y="47.4" type="qcurve"/>
      <point x="246.0" y="115.6"/>
      <point x="174.2" y="238.0" type="qcurve"/>
      <point x="103.0" y="362.4"/>
      <point x="103.0" y="510.2" type="qcurve"/>
      <point x="101.0" y="659.4"/>
      <point x="168.2" y="780.0" type="qcurve"/>
      <point x="237.4" y="903.8"/>
      <point x="349.8" y="971.0" type="qcurve"/>
      <point x="468.2" y="1041.8"/>
      <point x="603.8" y="1040.8" type="qcurve"/>
      <point x="833.2" y="1040.8"/>
      <point x="959.8" y="879.4" type="qcurve"/>
      <point x="1088.6" y="721.6"/>
      <point x="1088.6" y="428.8" type="qcurve"/>
      <point x="305.6" y="428.8" type="line"/>
      <point x="316.2" y="325.6"/>
      <point x="400.4" y="242.4" type="qcurve"/>
      <point x="487.4" y="160.2"/>
    </contour>
    <contour>
      <point x="609.2" y="858.2" type="qcurve"/>
      <point x="489.8" y="859.6"/>
      <point x="405.8" y="782.4" type="qcurve"/>
      <point x="322.6" y="706.0"/>
      <point x="308.2" y="608.0" type="qcurve"/>
      <point x="890.6" y="608.0" type="line"/>
      <point x="881.4" y="707.2"/>
      <point x="807.0" y="782.2" type="qcurve"/>
      <point x="737.8" y="858.2"/>
    </contour>
    <contour>
      <point x="350.0" y="1359.0" type="line"/>
      <point x="568.8" y="1409.6" type="line"/>
      <point x="842.2" y="1082.8" type="line"/>
      <point x="664.0" y="1082.8" type="line"/>
    </contour>
  </outline>
</glyph>
<glyph name="edieresis" format="2">
  <advance width="1177.6"/>
  <unicode hex="00EB"/>
  <outline>
    <contour>
      <point x="616.2" y="157.8" type="qcurve"/>
      <point x="696.2" y="160.8"/>
      <point x="775.4" y="188.8" type="qcurve"/>
      <point x="858.8" y="220.6"/>
      <point x="917.2" y="288.4" type="qcurve"/>
      <point x="1041.2" y="155.0" type="line"/>
      <point x="959.4" y="64.4"/>
      <point x="842.4" y="21.2" type="qcurve"/>
      <point x="729.0" y="-19.4"/>
      <point x="618.2" y="-22.4" type="qcurve"/>
      <point x="480.2" y="-22.4"/>
      <point x="361.8" y="47.4" type="qcurve"/>
      <point x="246.0" y="115.6"/>
      <point x="174.2" y="238.0" type="qcurve"/>
      <point x="103.0" y="362.4"/>
      <point x="103.0" y="510.2" type="qcurve"/>
      <point x="101.0" y="659.4"/>
      <point x="168.2" y="780.0" type="qcurve"/>
      <point x="237.4" y="903.8"/>
      <point x="349.8" y="971.0" type="qcurve"/>
      <point x="468.2" y="1041.8"/>
      <point x="603.8" y="1040.8" type="qcurve"/>
      <point x="833.2" y="1040.8"/>
      <point x="959.8" y="879.4" type="qcurve"/>
      <point x="1088.6" y="721.6"/>
      <point x="1088.6" y="428.8" type="qcurve"/>
      <point x="305.6" y="428.8" type="line"/>
      <point x="316.2" y="325.6"/>
      <point x="400.4" y="242.4" type="qcurve"/>
      <point x="487.4" y="160.2"/>
    </contour>
    <contour>
      <point x="609.2" y="858.2" type="qcurve"/>
      <point x="489.8" y="859.6"/>
      <point x="405.8" y="782.4" type="qcurve"/>
      <point x="322.6" y="706.0"/>
      <point x="308.2" y="608.0" type="qcurve"/>
      <point x="890.6" y="608.0" type="line"/>
      <point x="881.4" y="707.2"/>
      <point x="807.0" y="782.2" type="qcurve"/>
      <point x="737.8" y="858.2"/>
    </contour>
    <contour>
      <point x="416.4" y="1311.6" type="qcurve"/>
      <point x="463.2" y="1311.6"/>
      <point x="496.8" y="1276.8" type="qcurve"/>
      <point x="531.6" y="1242.6"/>
      <point x="531.6" y="1196.4" type="qcurve"/>
      <point x="531.6" y="1150.2"/>
      <point x="496.8" y="1116.0" type="qcurve"/>
      <point x="462.6" y="1082.8"/>
      <point x="416.4" y="1082.8" type="qcurve"/>
      <point x="370.8" y="1082.8"/>
      <point x="335.4" y="1116.0" type="qcurve"/>
      <point x="302.8" y="1150.8"/>
      <point x="302.8" y="1196.4" type="qcurve"/>
      <point x="302.8" y="1242.6"/>
      <point x="335.4" y="1276.8" type="qcurve"/>
      <point x="370.8" y="1311.6"/>
    </contour>
    <contour>
      <point x="774.2" y="1311.6" type="qcurve"/>
      <point x="821.0" y="1311.6"/>
      <point x="854.6" y="1276.8" type="qcurve"/>
      <point x="889.4" y="1242.6"/>
      <point x="889.4" y="1198.4" type="qcurve"/>
      <point x="889.4" y="1152.8"/>
      <point x="855.2" y="1117.0" type="qcurve"/>
      <point x="820.4" y="1082.8"/>
      <point x="774.2" y="1082.8" type="qcurve"/>
      <point x="727.4" y="1082.8"/>
      <point x="693.6" y="1117.6" type="qcurve"/>
      <point x="662.0" y="1152.8"/>
      <point x="662.0" y="1198.4" type="qcurve"/>
      <point x="662.0" y="1242.6"/>
      <point x="693.6" y="1276.2" type="qcurve"/>
      <point x="727.4" y="1311.6"/>
    </contour>
  </outline>
</glyph>
<glyph name="igrave" format="2">
  <advance width="519.8"/>
  <unicode hex="00EC"/>
  <outline>
    <contour>
      <point x="151.2" y="1016.4" type="line"/>
      <point x="347.2" y="1016.4" type="line"/>
      <point x="347.2" y="0.0" type="line"/>
      <point x="151.2" y="0.0" type="line"/>
    </contour>
    <contour>
      <point x="4.199999999999999" y="1335.2" type="line"/>
      <point x="223.0" y="1385.2" type="line"/>
      <point x="494.8" y="1058.4" type="line"/>
      <point x="318.2" y="1058.4" type="line"/>
    </contour>
  </outline>
</glyph>
<glyph name="iacute" format="2">
  <advance width="519.2"/>
  <unicode hex="00ED"/>
  <outline>
    <contour>
      <point x="151.2" y="1016.4" type="line"/>
      <point x="347.2" y="1016.4" type="line"/>
      <point x="347.2" y="0.0" type="line"/>
      <point x="151.2" y="0.0" type="line"/>
    </contour>
    <contour>
      <point x="279.0" y="1384.6" type="line"/>
      <point x="494.2" y="1335.2" type="line"/>
      <point x="183.2" y="1058.4" type="line"/>
      <point x="3.0" y="1058.4" type="line"/>
    </contour>
  </outline>
</glyph>
<glyph name="icircumflex" format="2">
  <advance width="513.2"/>
  <unicode hex="00EE"/>
  <outline>
    <contour>
      <point x="151.2" y="1016.4" type="line"/>
      <point x="347.2" y="1016.4" type="line"/>
      <point x="347.2" y="0.0" type="line"/>
      <point x="151.2" y="0.0" type="line"/>
    </contour>
    <contour>
      <point x="168.0" y="1370.2" type="line"/>
      <point x="326.4" y="1370.2" type="line"/>
      <point x="558.2" y="1058.4" type="line"/>
      <point x="381.0" y="1058.4" type="line"/>
      <point x="247.0" y="1203.2" type="line"/>
      <point x="115.4" y="1058.4" type="line"/>
      <point x="-59.2" y="1058.4" type="line"/>
    </contour>
  </outline>
</glyph>
<glyph name="idieresis" format="2">
  <advance width="485.0"/>
  <unicode hex="00EF"/>
  <outline>
    <contour>
      <point x="151.2" y="1016.4" type="line"/>
      <point x="347.2" y="1016.4" type="line"/>
      <point x="347.2" y="0.0" type="line"/>
      <point x="151.2" y="0.0" type="line"/>
    </contour>
    <contour>
      <point x="69.6" y="1286.2" type="qcurve"/>
      <point x="117.8" y="1286.2"/>
      <point x="150.0" y="1253.6" type="qcurve"/>
      <point x="184.2" y="1219.8"/>
      <point x="184.2" y="1172.2" type="qcurve"/>
      <point x="186.8" y="1125.4"/>
      <point x="151.0" y="1091.6" type="qcurve"/>
      <point x="117.19999999999999" y="1058.4"/>
      <point x="69.6" y="1058.4" type="qcurve"/>
      <point x="26.0" y="1058.4"/>
      <point x="-9.2" y="1090.6" type="qcurve"/>
      <point x="-43.6" y="1125.4"/>
      <point x="-43.6" y="1171.6" type="qcurve"/>
      <point x="-43.6" y="1219.8"/>
      <point x="-10.8" y="1252.0" type="qcurve"/>
      <point x="23.4" y="1286.2"/>
    </contour>
    <contour>
      <point x="427.4" y="1286.2" type="qcurve"/>
      <point x="474.6" y="1286.2"/>
      <point x="507.8" y="1253.0" type="qcurve"/>
      <point x="542.0" y="1219.8"/>
      <point x="542.0" y="1174.2" type="qcurve"/>
      <point x="543.6" y="1126.8"/>
      <point x="509.4" y="1093.8" type="qcurve"/>
      <point x="477.2" y="1058.4"/>
      <point x="427.4" y="1058.4" type="qcurve"/>
      <point x="381.6" y="1058.4"/>
      <point x="347.8" y="1092.8" type="qcurve"/>
      <point x="317.2" y="1127.4"/>
      <point x="316.2" y="1173.6" type="qcurve"/>
      <point x="316.2" y="1219.2"/>
      <point x="346.8" y="1252.0" type="qcurve"/>
      <point x="382.2" y="1286.2"/>
    </contour>
  </outline>
</glyph>
<glyph name="eth" format="2">
  <advance width="1237.4"/>
  <unicode hex="00F0"/>
  <outline>
    <contour>
      <point x="815.6" y="1150.8" type="qcurve"/>
      <point x="952.0" y="1023.6"/>
      <point x="1038.4" y="867.8" type="qcurve"/>
      <point x="1125.4" y="715.2"/>
      <point x="1122.4" y="528.6" type="qcurve"/>
      <point x="1125.4" y="375.0"/>
      <point x="1061.8" y="247.8" type="qcurve"/>
      <point x="1002.6" y="121.8"/>
      <point x="885.0" y="49.4" type="qcurve"/>
      <point x="771.6" y="-20.8"/>
      <point x="625.6" y="-22.4" type="qcurve"/>
      <point x="482.8" y="-24.4"/>
      <point x="366.8" y="43.4" type="qcurve"/>
      <point x="252.8" y="112.2"/>
      <point x="188.2" y="225.0" type="qcurve"/>
      <point x="123.4" y="343.0"/>
      <point x="123.4" y="490.8" type="qcurve"/>
      <point x="124.4" y="633.2"/>
      <point x="183.6" y="741.0" type="qcurve"/>
      <point x="240.2" y="854.6"/>
      <point x="345.8" y="918.4" type="qcurve"/>
      <point x="454.4" y="984.2"/>
      <point x="586.4" y="980.6" type="qcurve"/>
      <point x="780.4" y="981.6"/>
      <point x="764.2" y="1000.8" type="qcurve"/>
      <point x="797.2" y="936.0"/>
      <point x="640.2" y="1070.6" type="qcurve"/>
      <point x="404.6" y="967.4" type="line"/>
      <point x="328.4" y="1133.8" type="line"/>
      <point x="481.4" y="1201.0" type="line"/>
      <point x="420.2" y="1246.6"/>
      <point x="326.0" y="1305.6" type="qcurve"/>
      <point x="529.8" y="1392.8" type="line"/>
      <point x="623.8" y="1323.8"/>
      <point x="668.8" y="1282.6" type="qcurve"/>
      <point x="860.6" y="1370.4" type="line"/>
      <point x="906.0" y="1267.0" type="line"/>
      <point x="768.2" y="1129.2"/>
    </contour>
    <contour>
      <point x="626.2" y="159.8" type="qcurve"/>
      <point x="710.6" y="160.8"/>
      <point x="777.2" y="200.8" type="qcurve"/>
      <point x="846.0" y="242.8"/>
      <point x="881.2" y="316.2" type="qcurve"/>
      <point x="920.4" y="390.6"/>
      <point x="919.4" y="486.0" type="qcurve"/>
      <point x="922.4" y="574.0"/>
      <point x="882.6" y="646.2" type="qcurve"/>
      <point x="849.4" y="722.0"/>
      <point x="778.6" y="760.4" type="qcurve"/>
      <point x="712.6" y="804.0"/>
      <point x="621.6" y="804.0" type="qcurve"/>
      <point x="538.4" y="804.0"/>
      <point x="467.0" y="763.8" type="qcurve"/>
      <point x="401.2" y="726.2"/>
      <point x="362.6" y="653.6" type="qcurve"/>
      <point x="325.4" y="582.6"/>
      <point x="325.4" y="488.8" type="qcurve"/>
      <point x="325.4" y="394.6"/>
      <point x="363.2" y="319.6" type="qcurve"/>
      <point x="403.2" y="246.8"/>
      <point x="469.6" y="202.8" type="qcurve"/>
      <point x="541.0" y="161.6"/>
    </contour>
  </outline>
</glyph>
<glyph name="ntilde" format="2">
  <advance width="1174.0"/>
  <unicode hex="00F1"/>
  <outline>
    <contour>
      <point x="637.4" y="1040.8" type="qcurve"/>
      <point x="751.2" y="1043.8"/>
      <point x="837.6" y="990.0" type="qcurve"/>
      <point x="929.8" y="941.6"/>
      <point x="977.2" y="846.8" type="qcurve"/>
      <point x="1029.0" y="758.4"/>
      <point x="1026.0" y="641.4" type="qcurve"/>
      <point x="1026.0" y="0.0" type="line"/>
      <point x="832.0" y="0.0" type="line"/>
      <point x="832.0" y="621.0" type="line"/>
      <point x="832.0" y="728.4"/>
      <point x="771.0" y="794.2" type="qcurve"/>
      <point x="714.8" y="859.6"/>
      <point x="621.2" y="858.2" type="qcurve"/>
      <point x="549.2" y="858.2"/>
      <point x="484.0" y="828.2" type="qcurve"/>
      <point x="422.6" y="800.6"/>
      <point x="384.6" y="745.4" type="qcurve"/>
      <point x="351.2" y="699.0"/>
      <point x="350.2" y="640.8" type="qcurve"/>
      <point x="350.2" y="0.0" type="line"/>
      <point x="154.2" y="0.0" type="line"/>
      <point x="154.2" y="1016.4" type="line"/>
      <point x="350.2" y="1016.4" type="line"/>
      <point x="350.2" y="947.6" type="line"/>
      <point x="342.8" y="932.6"/>
      <point x="436.4" y="986.0" type="qcurve"/>
      <point x="531.4" y="1041.8"/>
    </contour>
    <contour>
      <point x="712.8" y="1089.2" type="qcurve"/>
      <point x="666.2" y="1086.6"/>
      <point x="626.4" y="1109.4" type="qcurve"/>
      <point x="599.4" y="1130.4"/>
      <point x="547.8" y="1164.4" type="qcurve"/>
      <point x="523.2" y="1193.0"/>
      <point x="500.8" y="1203.8" type="qcurve"/>
      <point x="488.0" y="1213.8"/>
      <point x="472.4" y="1212.0" type="qcurve"/>
      <point x="451.0" y="1212.4"/>
      <point x="434.6" y="1191.8" type="qcurve"/>
      <point x="416.0" y="1169.6"/>
      <point x="401.0" y="1081.2" type="qcurve"/>
      <point x="260.4" y="1101.4" type="line"/>
      <point x="298.4" y="1375.2"/>
      <point x="469.4" y="1374.2" type="qcurve"/>
      <point x="515.0" y="1377.8"/>
      <point x="552.0" y="1354.6" type="qcurve"/>
      <point x="585.6" y="1335.6"/>
      <point x="632.6" y="1299.6" type="qcurve"/>
      <point x="663.8" y="1273.4"/>
      <point x="680.2" y="1262.2" type="qcurve"/>
      <point x="696.4" y="1253.4"/>
      <point x="711.6" y="1253.4" type="qcurve"/>
      <point x="734.4" y="1253.4"/>
      <point x="747.4" y="1272.4" type="qcurve"/>
      <point x="767.2" y="1297.2"/>
      <point x="781.2" y="1381.2" type="qcurve"/>
      <point x="921.2" y="1362.6" type="line"/>
      <point x="885.8" y="1092.2"/>
    </contour>
  </outline>
</glyph>
<glyph name="otilde" format="2">
  <advance width="1245.2"/>
  <unicode hex="00F5"/>
  <outline>
    <contour>
      <point x="627.6" y="-22.4" type="qcurve"/>
      <point x="488.6" y="-19.4"/>
      <point x="366.2" y="51.4" type="qcurve"/>
      <point x="247.4" y="123.0"/>
      <point x="174.2" y="244.8" type="qcurve"/>
      <point x="103.0" y="369.8"/>
      <point x="103.0" y="508.2" type="qcurve"/>
      <point x="103.0" y="652.6"/>
      <point x="172.8" y="773.0" type="qcurve"/>
      <point x="246.0" y="899.4"/>
      <point x="366.2" y="967.6" type="qcurve"/>
      <point x="488.6" y="1040.8"/>
      <point x="627.6" y="1040.8" type="qcurve"/>
      <point x="769.6" y="1040.8"/>
      <point x="888.4" y="967.6" type="qcurve"/>
      <point x="1011.8" y="899.4"/>
      <point x="1081.0" y="773.0" type="qcurve"/>
      <point x="1154.8" y="653.2"/>
      <point x="1151.2" y="508.2" type="qcurve"/>
      <point x="1151.2" y="436.6"/>
      <point x="1136.2" y="373.4" type="qcurve"/>
      <point x="1121.6" y="310.6"/>
      <point x="1083.0" y="247.4" type="qcurve"/>
      <point x="1014.4" y="125.6"/>
      <point x="891.0" y="51.4" type="qcurve"/>
      <point x="771.6" y="-19.4"/>
    </contour>
    <contour>
      <point x="627.6" y="157.8" type="qcurve"/>
      <point x="711.6" y="160.8"/>
      <point x="786.6" y="206.8" type="qcurve"/>
      <point x="862.0" y="254.2"/>
      <point x="902.6" y="331.6" type="qcurve"/>
      <point x="949.2" y="415.6"/>
      <point x="949.2" y="508.2" type="qcurve"/>
      <point x="951.2" y="602.4"/>
      <point x="904.6" y="682.8" type="qcurve"/>
      <point x="862.8" y="763.6"/>
      <point x="788.6" y="809.6" type="qcurve"/>
      <point x="711.6" y="858.2"/>
      <point x="627.0" y="858.2" type="qcurve"/>
      <point x="542.0" y="859.6"/>
      <point x="468.2" y="812.2" type="qcurve"/>
      <point x="393.2" y="765.6"/>
      <point x="347.6" y="682.8" type="qcurve"/>
      <point x="306.0" y="603.0"/>
      <point x="306.0" y="508.2" type="qcurve"/>
      <point x="304.0" y="415.0"/>
      <point x="345.6" y="333.6" type="qcurve"/>
      <point x="391.2" y="254.8"/>
      <point x="466.2" y="206.2" type="qcurve"/>
      <point x="543.6" y="160.8"/>
    </contour>
    <contour>
      <point x="751.0" y="1087.2" type="qcurve"/>
      <point x="705.0" y="1085.2"/>
      <point x="665.2" y="1107.4" type="qcurve"/>
      <point x="637.6" y="1128.4"/>
      <point x="586.6" y="1162.4" type="qcurve"/>
      <point x="562.0" y="1191.0"/>
      <point x="539.6" y="1201.2" type="qcurve"/>
      <point x="526.4" y="1211.8"/>
      <point x="510.0" y="1210.0" type="qcurve"/>
      <point x="489.8" y="1210.4"/>
      <point x="473.4" y="1189.8" type="qcurve"/>
      <point x="454.8" y="1167.6"/>
      <point x="439.8" y="1079.2" type="qcurve"/>
      <point x="299.2" y="1099.4" type="line"/>
      <point x="336.6" y="1373.2"/>
      <point x="508.2" y="1372.2" type="qcurve"/>
      <point x="554.8" y="1375.8"/>
      <point x="591.4" y="1352.6" type="qcurve"/>
      <point x="623.4" y="1334.2"/>
      <point x="672.0" y="1297.6" type="qcurve"/>
      <point x="701.6" y="1272.0"/>
      <point x="718.4" y="1260.8" type="qcurve"/>
      <point x="735.6" y="1252.0"/>
      <point x="750.4" y="1252.0" type="qcurve"/>
      <point x="773.6" y="1252.0"/>
      <point x="785.6" y="1269.8" type="qcurve"/>
      <point x="803.8" y="1295.8"/>
      <point x="820.0" y="1379.2" type="qcurve"/>
      <point x="959.0" y="1360.6" type="line"/>
      <point x="923.6" y="1090.2"/>
    </contour>
  </outline>
</glyph>
<glyph name="odieresis" format="2">
  <advance width="1245.2"/>
  <unicode hex="00F6"/>
  <outline>
    <contour>
      <point x="627.6" y="-22.4" type="qcurve"/>
      <point x="488.6" y="-19.4"/>
      <point x="366.2" y="51.4" type="qcurve"/>
      <point x="247.4" y="123.0"/>
      <point x="174.2" y="244.8" type="qcurve"/>
      <point x="103.0" y="369.8"/>
      <point x="103.0" y="508.2" type="qcurve"/>
      <point x="103.0" y="652.6"/>
      <point x="172.8" y="773.0" type="qcurve"/>
      <point x="246.0" y="899.4"/>
      <point x="366.2" y="967.6" type="qcurve"/>
      <point x="488.6" y="1040.8"/>
      <point x="627.6" y="1040.8" type="qcurve"/>
      <point x="769.6" y="1040.8"/>
      <point x="888.4" y="967.6" type="qcurve"/>
      <point x="1011.8" y="899.4"/>
      <point x="1081.0" y="773.0" type="qcurve"/>
      <point x="1154.8" y="653.2"/>
      <point x="1151.2" y="508.2" type="qcurve"/>
      <point x="1151.2" y="436.6"/>
      <point x="1136.2" y="373.4" type="qcurve"/>
      <point x="1121.6" y="310.6"/>
      <point x="1083.0" y="247.4" type="qcurve"/>
      <point x="1014.4" y="125.6"/>
      <point x="891.0" y="51.4" type="qcurve"/>
      <point x="771.6" y="-19.4"/>
    </contour>
    <contour>
      <point x="627.6" y="157.8" type="qcurve"/>
      <point x="711.6" y="160.8"/>
      <point x="786.6" y="206.8" type="qcurve"/>
      <point x="862.0" y="254.2"/>
      <point x="902.6" y="331.6" type="qcurve"/>
      <point x="949.2" y="415.6"/>
      <point x="949.2" y="508.2" type="qcurve"/>
      <point x="951.2" y="602.4"/>
      <point x="904.6" y="682.8" type="qcurve"/>
      <point x="862.8" y="763.6"/>
      <point x="788.6" y="809.6" type="qcurve"/>
      <point x="711.6" y="858.2"/>
      <point x="627.0" y="858.2" type="qcurve"/>
      <point x="542.0" y="859.6"/>
      <point x="468.2" y="812.2" type="qcurve"/>
      <point x="393.2" y="765.6"/>
      <point x="347.6" y="682.8" type="qcurve"/>
      <point x="306.0" y="603.0"/>
      <point x="306.0" y="508.2" type="qcurve"/>
      <point x="304.0" y="415.0"/>
      <point x="345.6" y="333.6" type="qcurve"/>
      <point x="391.2" y="254.8"/>
      <point x="466.2" y="206.2" type="qcurve"/>
      <point x="543.6" y="160.8"/>
    </contour>
    <contour>
      <point x="449.2" y="1311.6" type="qcurve"/>
      <point x="498.0" y="1311.6"/>
      <point x="531.2" y="1276.8" type="qcurve"/>
      <point x="565.4" y="1242.6"/>
      <point x="565.4" y="1196.4" type="qcurve"/>
      <point x="565.4" y="1150.2"/>
      <point x="501.2" y="1086.6" type="qcurve"/>
      <point x="497.4" y="1082.8"/>
      <point x="449.2" y="1082.8" type="qcurve"/>
      <point x="403.0" y="1082.8"/>
      <point x="369.8" y="1116.0" type="qcurve"/>
      <point x="336.6" y="1150.8"/>
      <point x="336.6" y="1196.4" type="qcurve"/>
      <point x="336.6" y="1242.6"/>
      <point x="368.2" y="1276.8" type="qcurve"/>
      <point x="403.6" y="1311.6"/>
    </contour>
    <contour>
      <point x="807.0" y="1311.6" type="qcurve"/>
      <point x="854.8" y="1311.6"/>
      <point x="888.4" y="1276.8" type="qcurve"/>
      <point x="923.2" y="1242.6"/>
      <point x="923.2" y="1198.4" type="qcurve"/>
      <point x="923.2" y="1152.8"/>
      <point x="889.0" y="1117.0" type="qcurve"/>
      <point x="854.2" y="1082.8"/>
      <point x="807.0" y="1082.8" type="qcurve"/>
      <point x="761.2" y="1082.8"/>
      <point x="727.4" y="1117.6" type="qcurve"/>
      <point x="696.8" y="1152.8"/>
      <point x="695.8" y="1198.4" type="qcurve"/>
      <point x="695.8" y="1242.0"/>
      <point x="727.0" y="1276.2" type="qcurve"/>
      <point x="760.2" y="1311.6"/>
    </contour>
  </outline>
</glyph>
<glyph name="divide" format="2">
  <advance width="1175.4"/>
  <unicode hex="00F7"/>
  <outline>
    <contour>
      <point x="593.8" y="822.4" type="qcurve"/>
      <point x="540.8" y="823.4"/>
      <point x="501.0" y="858.0" type="qcurve"/>
      <point x="463.8" y="899.4"/>
      <point x="464.8" y="951.0" type="qcurve"/>
      <point x="463.8" y="1004.6"/>
      <point x="501.0" y="1041.8" type="qcurve"/>
      <point x="540.8" y="1081.6"/>
      <point x="593.8" y="1078.0" type="qcurve"/>
      <point x="646.0" y="1082.2"/>
      <point x="683.2" y="1041.8" type="qcurve"/>
      <point x="720.4" y="1004.6"/>
      <point x="720.4" y="951.0" type="qcurve"/>
      <point x="720.4" y="900.0"/>
      <point x="685.8" y="859.2" type="qcurve"/>
      <point x="647.4" y="823.4"/>
    </contour>
    <contour>
      <point x="136.8" y="745.6" type="line"/>
      <point x="1047.4" y="745.6" type="line"/>
      <point x="1047.4" y="551.6" type="line"/>
      <point x="136.8" y="551.6" type="line"/>
    </contour>
    <contour>
      <point x="593.8" y="219.6" type="qcurve"/>
      <point x="540.2" y="219.6"/>
      <point x="501.0" y="257.4" type="qcurve"/>
      <point x="463.8" y="297.2"/>
      <point x="464.8" y="348.2" type="qcurve"/>
      <point x="463.8" y="399.2"/>
      <point x="501.0" y="439.6" type="qcurve"/>
      <point x="540.2" y="478.8"/>
      <point x="593.8" y="477.8" type="qcurve"/>
      <point x="646.0" y="479.4"/>
      <point x="683.8" y="439.0" type="qcurve"/>
      <point x="720.4" y="399.8"/>
      <point x="720.4" y="348.2" type="qcurve"/>
      <point x="720.4" y="297.2"/>
      <point x="686.4" y="258.0" type="qcurve"/>
      <point x="647.4" y="219.6"/>
    </contour>
  </outline>
</glyph>
<glyph name="oslash" format="2">
  <advance width="1245.2"/>
  <unicode hex="00F8"/>
  <outline>
    <contour>
      <point x="1032.6" y="844.6" type="qcurve"/>
      <point x="1081.0" y="790.0"/>
      <point x="1113.6" y="699.4" type="qcurve"/>
      <point x="1152.2" y="612.0"/>
      <point x="1151.2" y="508.2" type="qcurve"/>
      <point x="1151.2" y="436.6"/>
      <point x="1136.2" y="373.4" type="qcurve"/>
      <point x="1121.6" y="310.6"/>
      <point x="1083.0" y="247.4" type="qcurve"/>
      <point x="1014.4" y="125.6"/>
      <point x="891.0" y="51.4" type="qcurve"/>
      <point x="771.6" y="-19.4"/>
      <point x="627.6" y="-22.4" type="qcurve"/>
      <point x="474.6" y="-19.4"/>
      <point x="358.8" y="54.6" type="qcurve"/>
      <point x="312.8" y="0.0" type="line"/>
      <point x="76.8" y="0.0" type="line"/>
      <point x="226.0" y="170.2" type="line"/>
      <point x="176.8" y="223.4"/>
      <point x="139.2" y="315.2" type="qcurve"/>
      <point x="103.0" y="409.0"/>
      <point x="103.0" y="508.2" type="qcurve"/>
      <point x="103.0" y="652.6"/>
      <point x="172.8" y="773.0" type="qcurve"/>
      <point x="246.0" y="899.4"/>
      <point x="366.2" y="967.6" type="qcurve"/>
      <point x="488.6" y="1040.8"/>
      <point x="627.6" y="1040.8" type="qcurve"/>
      <point x="784.2" y="1041.8"/>
      <point x="899.6" y="960.8" type="qcurve"/>
      <point x="948.4" y="1016.4" type="line"/>
      <point x="1117.6" y="1016.4" type="line"/>
      <point x="1182.4" y="1016.4"/>
    </contour>
    <contour>
      <point x="306.0" y="508.2" type="qcurve"/>
      <point x="306.0" y="386.6"/>
      <point x="354.0" y="322.2" type="qcurve"/>
      <point x="778.0" y="818.8" type="line"/>
      <point x="720.0" y="859.6"/>
      <point x="627.6" y="858.2" type="qcurve"/>
      <point x="542.0" y="859.6"/>
      <point x="468.2" y="812.2" type="qcurve"/>
      <point x="393.2" y="765.6"/>
      <point x="347.6" y="682.8" type="qcurve"/>
      <point x="306.0" y="603.0"/>
    </contour>
    <contour>
      <point x="627.0" y="157.8" type="qcurve"/>
      <point x="711.6" y="160.8"/>
      <point x="786.6" y="206.8" type="qcurve"/>
      <point x="862.0" y="254.2"/>
      <point x="902.6" y="331.6" type="qcurve"/>
      <point x="949.2" y="415.6"/>
      <point x="949.2" y="508.2" type="qcurve"/>
      <point x="949.2" y="624.4"/>
      <point x="902.0" y="691.6" type="qcurve"/>
      <point x="479.8" y="197.6" type="line"/>
      <point x="535.2" y="158.8"/>
    </contour>
  </outline>
</glyph>
<glyph name="ucircumflex" format="2">
  <advance width="1174.0"/>
  <unicode hex="00FB"/>
  <outline>
    <contour>
      <point x="541.6" y="-24.4" type="qcurve"/>
      <point x="429.0" y="-24.8"/>
      <point x="341.4" y="27.4" type="qcurve"/>
      <point x="249.8" y="77.8"/>
      <point x="203.0" y="169.0" type="qcurve"/>
      <point x="151.6" y="259.0"/>
      <point x="154.2" y="376.6" type="qcurve"/>
      <point x="154.2" y="1016.4" type="line"/>
      <point x="348.2" y="1016.4" type="line"/>
      <point x="348.2" y="395.4" type="line"/>
      <point x="349.2" y="287.4"/>
      <point x="408.6" y="222.8" type="qcurve"/>
      <point x="465.4" y="158.8"/>
      <point x="559.0" y="159.8" type="qcurve"/>
      <point x="632.0" y="159.8"/>
      <point x="696.2" y="188.2" type="qcurve"/>
      <point x="759.0" y="216.4"/>
      <point x="795.6" y="271.4" type="qcurve"/>
      <point x="831.0" y="319.0"/>
      <point x="830.0" y="375.4" type="qcurve"/>
      <point x="830.0" y="1016.4" type="line"/>
      <point x="1026.0" y="1016.4" type="line"/>
      <point x="1026.0" y="0.0" type="line"/>
      <point x="830.0" y="0.0" type="line"/>
      <point x="830.0" y="68.2" type="line"/>
      <point x="838.4" y="84.8"/>
      <point x="742.8" y="31.4" type="qcurve"/>
      <point x="650.8" y="-24.4"/>
    </contour>
    <contour>
      <point x="511.4" y="1370.2" type="line"/>
      <point x="670.8" y="1370.2" type="line"/>
      <point x="901.6" y="1059.4" type="line"/>
      <point x="725.4" y="1059.4" type="line"/>
      <point x="590.8" y="1204.2" type="line"/>
      <point x="458.8" y="1059.4" type="line"/>
      <point x="285.2" y="1059.4" type="line"/>
    </contour>
  </outline>
</glyph>
<glyph name="udieresis" format="2">
  <advance width="1174.0"/>
  <unicode hex="00FC"/>
  <outline>
    <contour>
      <point x="412.4" y="1287.2" type="qcurve"/>
      <point x="459.6" y="1288.8"/>
      <point x="494.4" y="1254.0" type="qcurve"/>
      <point x="528.6" y="1219.2"/>
      <point x="528.6" y="1172.6" type="qcurve"/>
      <point x="528.6" y="1126.8"/>
      <point x="494.4" y="1093.2" type="qcurve"/>
      <point x="459.6" y="1059.4"/>
      <point x="413.0" y="1059.4" type="qcurve"/>
      <point x="367.8" y="1057.8"/>
      <point x="332.4" y="1092.2" type="qcurve"/>
      <point x="299.8" y="1126.4"/>
      <point x="299.8" y="1172.6" type="qcurve"/>
      <point x="299.8" y="1219.8"/>
      <point x="333.0" y="1253.0" type="qcurve"/>
      <point x="367.8" y="1287.2"/>
    </contour>
    <contour>
      <point x="769.6" y="1287.2" type="qcurve"/>
      <point x="819.0" y="1288.8"/>
      <point x="852.2" y="1254.0" type="qcurve"/>
      <point x="886.4" y="1219.2"/>
      <point x="886.4" y="1174.6" type="qcurve"/>
      <point x="886.4" y="1127.8"/>
      <point x="851.6" y="1094.2" type="qcurve"/>
      <point x="819.0" y="1059.4"/>
      <point x="770.8" y="1059.4" type="qcurve"/>
      <point x="723.4" y="1057.8"/>
      <point x="690.6" y="1093.8" type="qcurve"/>
      <point x="659.0" y="1127.4"/>
      <point x="659.0" y="1174.6" type="qcurve"/>
      <point x="659.0" y="1219.2"/>
      <point x="691.2" y="1253.0" type="qcurve"/>
      <point x="723.4" y="1287.2"/>
    </contour>
    <contour>
      <point x="541.6" y="-24.4" type="qcurve"/>
      <point x="429.0" y="-24.8"/>
      <point x="341.4" y="27.4" type="qcurve"/>
      <point x="249.8" y="77.8"/>
      <point x="203.0" y="169.0" type="qcurve"/>
      <point x="151.6" y="259.0"/>
      <point x="154.2" y="376.6" type="qcurve"/>
      <point x="154.2" y="1016.4" type="line"/>
      <point x="348.2" y="1016.4" type="line"/>
      <point x="348.2" y="395.4" type="line"/>
      <point x="349.2" y="287.4"/>
      <point x="408.6" y="222.8" type="qcurve"/>
      <point x="465.4" y="158.8"/>
      <point x="559.0" y="159.8" type="qcurve"/>
      <point x="632.0" y="159.8"/>
      <point x="696.2" y="188.2" type="qcurve"/>
      <point x="759.0" y="216.4"/>
      <point x="795.6" y="271.4" type="qcurve"/>
      <point x="831.0" y="319.0"/>
      <point x="830.0" y="375.4" type="qcurve"/>
      <point x="830.0" y="1016.4" type="line"/>
      <point x="1026.0" y="1016.4" type="line"/>
      <point x="1026.0" y="0.0" type="line"/>
      <point x="830.0" y="0.0" type="line"/>
      <point x="830.0" y="68.2" type="line"/>
      <point x="838.4" y="84.8"/>
      <point x="742.8" y="31.4" type="qcurve"/>
      <point x="650.8" y="-24.4"/>
    </contour>
  </outline>
</glyph>
<glyph name="yacute" format="2">
  <advance width="1187.4"/>
  <unicode hex="00FD"/>
  <outline>
    <contour>
      <point x="337.8" y="-365.2" type="line"/>
      <point x="489.6" y="27.599999999999998" type="line"/>
      <point x="52.2" y="1016.4" type="line"/>
      <point x="268.6" y="1016.4" type="line"/>
      <point x="589.2" y="268.6" type="line"/>
      <point x="885.8" y="1016.4" type="line"/>
      <point x="1098.4" y="1016.4" type="line"/>
      <point x="533.4" y="-365.2" type="line"/>
    </contour>
    <contour>
      <point x="606.0" y="1385.6" type="line"/>
      <point x="821.2" y="1336.2" type="line"/>
      <point x="510.2" y="1059.4" type="line"/>
      <point x="329.4" y="1059.4" type="line"/>
    </contour>
  </outline>
</glyph>
<glyph name="thorn" format="2">
  <advance width="1257.2"/>
  <unicode hex="00FE"/>
  <outline>
    <contour>
      <point x="684.2" y="1040.8" type="qcurve"/>
      <point x="818.4" y="1043.8"/>
      <point x="923.4" y="972.4" type="qcurve"/>
      <point x="1036.4" y="906.6"/>
      <point x="1093.6" y="782.2" type="qcurve"/>
      <point x="1156.2" y="659.4"/>
      <point x="1153.2" y="508.2" type="qcurve"/>
      <point x="1156.2" y="363.0"/>
      <point x="1093.6" y="237.8" type="qcurve"/>
      <point x="1036.4" y="118.2"/>
      <point x="925.4" y="48.0" type="qcurve"/>
      <point x="820.4" y="-22.4"/>
      <point x="684.8" y="-22.4" type="qcurve"/>
      <point x="564.2" y="-24.4"/>
      <point x="466.6" y="34.0" type="qcurve"/>
      <point x="371.2" y="92.2"/>
      <point x="361.2" y="109.0" type="qcurve"/>
      <point x="361.2" y="-320.0" type="line"/>
      <point x="166.6" y="-320.0" type="line"/>
      <point x="166.6" y="1354.8" type="line"/>
      <point x="361.2" y="1354.8" type="line"/>
      <point x="361.2" y="912.0" type="line"/>
      <point x="369.2" y="925.6"/>
      <point x="465.2" y="982.0" type="qcurve"/>
      <point x="563.2" y="1040.8"/>
    </contour>
    <contour>
      <point x="659.4" y="157.8" type="qcurve"/>
      <point x="742.8" y="160.8"/>
      <point x="808.4" y="202.2" type="qcurve"/>
      <point x="876.8" y="246.2"/>
      <point x="913.0" y="322.4" type="qcurve"/>
      <point x="951.2" y="406.4"/>
      <point x="951.2" y="508.2" type="qcurve"/>
      <point x="951.2" y="614.4"/>
      <point x="912.4" y="692.0" type="qcurve"/>
      <point x="878.2" y="772.2"/>
      <point x="809.8" y="814.2" type="qcurve"/>
      <point x="743.4" y="859.6"/>
      <point x="659.4" y="858.2" type="qcurve"/>
      <point x="576.8" y="859.6"/>
      <point x="506.0" y="814.2" type="qcurve"/>
      <point x="439.6" y="772.8"/>
      <point x="399.4" y="691.4" type="qcurve"/>
      <point x="361.6" y="614.4"/>
      <point x="361.2" y="508.2" type="qcurve"/>
      <point x="361.6" y="406.4"/>
      <point x="399.4" y="325.0" type="qcurve"/>
      <point x="439.0" y="247.6"/>
      <point x="506.0" y="202.2" type="qcurve"/>
      <point x="576.8" y="160.8"/>
    </contour>
  </outline>
</glyph>
<glyph name="ydieresis" format="2">
  <advance width="1187.4"/>
  <unicode hex="00FF"/>
  <outline>
    <contour>
      <point x="337.8" y="-365.2" type="line"/>
      <point x="489.6" y="27.599999999999998" type="line"/>
      <point x="52.2" y="1016.4" type="line"/>
      <point x="268.6" y="1016.4" type="line"/>
      <point x="589.2" y="268.6" type="line"/>
      <point x="885.8" y="1016.4" type="line"/>
      <point x="1098.4" y="1016.4" type="line"/>
      <point x="533.4" y="-365.2" type="line"/>
    </contour>
    <contour>
      <point x="396.0" y="1287.2" type="qcurve"/>
      <point x="443.8" y="1288.8"/>
      <point x="477.6" y="1254.0" type="qcurve"/>
      <point x="511.2" y="1219.2"/>
      <point x="511.2" y="1173.2" type="qcurve"/>
      <point x="512.8" y="1126.8"/>
      <point x="478.0" y="1093.2" type="qcurve"/>
      <point x="443.2" y="1059.4"/>
      <point x="396.6" y="1059.4" type="qcurve"/>
      <point x="351.4" y="1057.8"/>
      <point x="316.0" y="1092.2" type="qcurve"/>
      <point x="283.4" y="1126.4"/>
      <point x="283.4" y="1172.0" type="qcurve"/>
      <point x="281.8" y="1219.2"/>
      <point x="315.6" y="1253.0" type="qcurve"/>
      <point x="350.4" y="1287.2"/>
    </contour>
    <contour>
      <point x="753.2" y="1287.2" type="qcurve"/>
      <point x="801.6" y="1288.8"/>
      <point x="834.8" y="1254.0" type="qcurve"/>
      <point x="869.0" y="1219.2"/>
      <point x="869.0" y="1174.6" type="qcurve"/>
      <point x="869.0" y="1128.4"/>
      <point x="835.8" y="1094.2" type="qcurve"/>
      <point x="802.6" y="1059.4"/>
      <point x="754.4" y="1059.4" type="qcurve"/>
      <point x="707.0" y="1057.8"/>
      <point x="674.2" y="1093.8" type="qcurve"/>
      <point x="642.6" y="1127.4"/>
      <point x="642.6" y="1174.6" type="qcurve"/>
      <point x="642.6" y="1219.2"/>
      <point x="673.2" y="1252.4" type="qcurve"/>
      <point x="707.6" y="1287.2"/>
    </contour>
  </outline>
</glyph>
<glyph name="Amacron" format="2">
  <advance width="1386.2"/>
  <unicode hex="0100"/>
  <outline>
    <contour>
      <point x="595.4" y="1460.2" type="line"/>
      <point x="793.0" y="1460.2" type="line"/>
      <point x="1322.2" y="0.0" type="line"/>
      <point x="1107.2" y="0.0" type="line"/>
      <point x="962.6" y="403.0" type="line"/>
      <point x="424.8" y="403.0" type="line"/>
      <point x="277.2" y="0.0" type="line"/>
      <point x="60.6" y="0.0" type="line"/>
    </contour>
    <contour>
      <point x="694.2" y="1136.2" type="line"/>
      <point x="495.0" y="594.6" type="line"/>
      <point x="892.4" y="594.6" type="line"/>
    </contour>
    <contour>
      <point x="516.4" y="1871.6" type="line"/>
      <point x="1079.2" y="1871.6" type="line"/>
      <point x="1079.2" y="1709.4" type="line"/>
      <point x="516.4" y="1709.4" type="line"/>
    </contour>
    <contour>
      <point x="332.4" y="1530.4" type="line"/>
      <point x="332.4" y="1530.4" type="line"/>
      <point x="332.4" y="1530.4" type="line"/>
      <point x="332.4" y="1530.4" type="line"/>
    </contour>
    <contour>
      <point x="332.4" y="1530.4" type="line"/>
      <point x="332.4" y="1530.4" type="line"/>
      <point x="332.4" y="1530.4" type="line"/>
      <point x="332.4" y="1530.4" type="line"/>
    </contour>
  </outline>
</glyph>
<glyph name="Abreve" format="2">
  <advance width="1386.2"/>
  <unicode hex="0102"/>
  <outline>
    <contour>
      <point x="595.4" y="1460.2" type="line"/>
      <point x="793.0" y="1460.2" type="line"/>
      <point x="1322.2" y="0.0" type="line"/>
      <point x="1107.2" y="0.0" type="line"/>
      <point x="962.6" y="403.0" type="line"/>
      <point x="424.8" y="403.0" type="line"/>
      <point x="277.2" y="0.0" type="line"/>
      <point x="60.6" y="0.0" type="line"/>
    </contour>
    <contour>
      <point x="694.2" y="1136.2" type="line"/>
      <point x="495.0" y="594.6" type="line"/>
      <point x="892.4" y="594.6" type="line"/>
    </contour>
    <contour>
      <point x="691.2" y="1502.2" type="qcurve"/>
      <point x="614.8" y="1502.2"/>
      <point x="536.8" y="1531.8" type="qcurve"/>
      <point x="461.4" y="1564.0"/>
      <point x="378.6" y="1643.2" type="qcurve"/>
      <point x="508.4" y="1769.2" type="line"/>
      <point x="561.4" y="1717.2"/>
      <point x="602.2" y="1696.8" type="qcurve"/>
      <point x="648.4" y="1678.8"/>
      <point x="691.2" y="1678.8" type="qcurve"/>
      <point x="735.0" y="1678.8"/>
      <point x="775.2" y="1696.8" type="qcurve"/>
      <point x="824.6" y="1717.8"/>
      <point x="875.6" y="1770.4" type="qcurve"/>
      <point x="999.6" y="1643.2" type="line"/>
      <point x="927.6" y="1567.0"/>
      <point x="848.6" y="1533.8" type="qcurve"/>
      <point x="774.8" y="1502.2"/>
    </contour>
  </outline>
</glyph>
